<?xml version="1.0" encoding="UTF-8"?>
<svg width="65px" height="41px" viewBox="0 0 65 41" version="1.1" xmlns="http://www.w3.org/2000/svg" xmlns:xlink="http://www.w3.org/1999/xlink">
    <title>seta</title>
    <g id="Page-1" stroke="none" stroke-width="1" fill="none" fill-rule="evenodd">
        <g id="seta" fill="#353535" fill-rule="nonzero">
            <path d="M9.70995893,11.4117043 C6.54004107,11.4117043 4.17094456,16.550308 4.17094456,19.3531828 C4.17094456,23.1237166 5.53901437,24.4917864 7.47433265,27.2612936 C5.73921971,28.5626283 0,33.6011294 0,37.0713552 C0,37.6386037 0.166837782,38.1724846 0.533880903,38.6396304 C0.900924025,39.0734086 1.40143737,39.4404517 2.0687885,39.7073922 C2.70277207,39.9409651 3.43685832,40.1411704 4.17094456,40.1411704 C4.3711499,40.174538 4.57135524,40.174538 4.77156057,40.174538 C5.33880903,40.174538 5.87268994,40.1078029 6.47330595,40.0077002 C10.8110883,39.1067762 13.8141684,35.9368583 13.8141684,32.1663244 C13.8141684,30.698152 13.3803901,29.1632444 12.412731,27.6283368 C13.9810062,26.3270021 18.4856263,23.2571869 20.4209446,22.1226899 C21.2551335,21.6555441 22.0893224,21.1216632 22.9568789,21.1216632 C23.1570842,21.1216632 23.323922,21.1216632 23.5241273,21.1883984 L23.62423,21.1883984 C23.7577002,21.1883984 23.8578029,21.0549281 23.9579055,20.9548255 C22.8234086,19.9871663 21.7222793,19.5867556 20.6211499,19.5867556 C17.150924,19.5867556 13.7474333,23.3906571 10.5775154,25.2258727 C9.70995893,24.2582136 9.2761807,22.5564682 9.2761807,20.9214579 C9.2761807,19.9871663 9.40965092,19.0862423 9.70995893,18.3521561 C10.2104723,17.2843943 11.511807,14.5816222 12.8131417,14.5816222 C13.4137577,14.5816222 13.914271,14.8151951 14.5482546,14.8819302 L14.9820329,14.5148871 C14.1144764,12.9132444 11.5451745,11.4117043 9.70995893,11.4117043 Z M7.17402464,14.448152 C7.04055441,14.9486653 6.60677618,15.6160164 6.23973306,16.1165298 C6.47330595,15.6160164 6.77361396,14.8151951 7.17402464,14.448152 Z M8.20841889,14.9486653 C8.20841889,15.6160164 7.77464066,16.1165298 7.40759754,16.550308 L8.20841889,14.9486653 Z M9.87679671,15.0154004 C9.2761807,16.0164271 8.64219713,17.6848049 7.90811088,18.3521561 C8.20841889,17.2843943 8.70893224,15.5159138 9.87679671,15.0154004 Z M19.0528747,20.2874743 C18.8193018,20.5210472 18.3855236,20.687885 18.051848,20.8880903 C18.3187885,20.687885 18.7525667,20.3208419 19.0528747,20.2874743 Z M19.4199179,20.8880903 C19.2530801,21.2551335 18.886037,21.3886037 18.4856263,21.5220739 L19.4199179,20.8880903 Z M20.2207392,21.4219713 C20.2541068,21.4219713 20.3208419,21.4553388 20.3542094,21.4553388 C19.7535934,21.7556468 18.886037,22.4897331 18.2520534,22.6232033 C18.6524641,22.1560575 19.4532854,21.4219713 20.2207392,21.4219713 Z M7.34086242,28.1955852 C7.17402464,28.3290554 7.04055441,28.4958932 6.90708419,28.6293634 C6.47330595,29.0631417 6.23973306,29.6303901 5.6724846,29.9306982 C4.87166324,30.8983573 4.07084189,31.9327515 3.16991786,32.8670431 C3.13655031,32.9004107 3.10318275,32.9671458 3.0698152,33.0338809 L2.93634497,33.2007187 C2.96971253,33.1673511 3.00308008,33.100616 3.0698152,33.0338809 L3.13655031,32.9004107 C3.13655031,32.8670431 3.16991786,32.8670431 3.16991786,32.8670431 C3.97073922,31.7659138 6.47330595,28.8963039 6.90708419,28.6293634 C7.04055441,28.4291581 7.10728953,28.3290554 7.34086242,28.1955852 Z M9.07597536,28.7962012 C6.74024641,31.3321355 4.23767967,33.9014374 2.56930185,36.9712526 L2.43583162,36.9045175 C2.8362423,36.3039014 3.13655031,35.6031828 3.50359343,35.0025667 C4.07084189,34.0682752 8.34188912,28.7962012 9.0426078,28.7962012 L9.07597536,28.7962012 Z M9.20944559,30.3644764 C9.47638604,30.7982546 9.57648871,31.2320329 9.57648871,31.6658111 C9.57648871,34.2351129 5.83932238,36.9045175 4.53798768,36.9045175 C4.27104723,36.9045175 4.10420945,36.8044148 4.10420945,36.5374743 C4.10420945,35.8033881 5.37217659,33.9348049 9.20944559,30.3644764 Z M10.2438398,33.3341889 L10.3773101,33.4676591 L10.2104723,33.701232 L10.2438398,33.3341889 Z M12.8131417,33.400924 L12.8131417,33.9014374 C12.6796715,34.8690965 12.0456879,35.5698152 11.4450719,36.2371663 L11.3783368,36.1704312 L11.4450719,36.1704312 C11.511807,35.3028747 12.412731,34.0682752 12.8131417,33.400924 Z M10.2104723,33.7679671 C10.1437372,34.1350103 10.0102669,34.5020534 9.57648871,34.7022587 C9.8100616,34.3685832 10.0102669,34.0682752 10.2104723,33.7679671 Z M11.3783368,33.9014374 L11.3116016,34.2684805 C11.2448665,34.5687885 11.1113963,34.7356263 10.8110883,34.8023614 L11.3783368,33.9014374 Z M2.93634497,34.5687885 L2.76950719,34.9358316 L2.76950719,34.8690965 C2.76950719,34.8023614 2.8362423,34.6355236 2.93634497,34.5687885 Z M1.63501027,34.9358316 L1.70174538,35.0025667 L1.63501027,35.1694045 L1.56827515,35.1694045 L1.63501027,34.9358316 Z" id="s"></path>
            <path d="M26.9609856,12.9799795 C26.3270021,12.9799795 25.6596509,13.1468172 24.9589322,13.5805955 C21.4219713,15.7494867 17.2843943,21.6221766 15.9830595,26.8275154 C15.7494867,27.761807 15.649384,28.5959959 15.649384,29.3634497 C15.649384,32.4666324 17.4845996,34.0682752 20.0539014,34.3685832 C20.4209446,34.4019507 20.7546201,34.4353183 21.0882957,34.4353183 C26.7941478,34.4353183 31.2654004,29.0965092 34.3352156,24.7253593 C35.3028747,23.2905544 36.1036961,22.1894251 36.8044148,21.2551335 C36.8377823,21.1883984 36.8377823,21.1550308 36.8377823,21.0882957 C36.8377823,21.0215606 36.8044148,20.9214579 36.7376797,20.7546201 C36.6042094,20.6545175 36.5374743,20.5210472 36.4373717,20.387577 C35.8033881,21.6889117 35.0025667,23.1904517 34.5020534,23.7243326 L34.3685832,23.924538 C34.3685832,23.6909651 34.8690965,22.9902464 35.0025667,22.7566735 C35.5030801,21.9558522 35.8701232,21.1216632 36.3039014,20.2874743 L36.2371663,20.2207392 C36.0035934,20.0205339 35.8033881,19.8870637 35.5698152,19.8536961 C35.2361396,20.5210472 34.8023614,21.1883984 34.3685832,21.9558522 L34.3685832,21.8223819 C34.7689938,21.1216632 35.136037,20.4543121 35.5030801,19.786961 C35.436345,19.7535934 35.3696099,19.7535934 35.3028747,19.7535934 C35.2027721,19.7535934 35.136037,19.786961 35.0693018,19.8536961 C34.00154,21.1216632 32.9671458,22.4229979 31.9661191,23.6909651 C30.0308008,26.0934292 28.2956879,28.1288501 25.4594456,29.7972279 C24.0246407,30.6647844 22.9235113,31.0651951 22.1226899,31.0651951 C21.0215606,31.0651951 20.5210472,30.2977413 20.5210472,29.0631417 C20.5210472,28.362423 20.687885,27.4948665 20.988193,26.5272074 C28.6293634,25.9265914 31.298768,22.0225873 31.298768,18.5523614 C31.298768,15.5826489 29.3968172,12.9799795 26.9943532,12.9799795 L26.9609856,12.9799795 Z M23.3572895,15.8162218 C23.3572895,16.1165298 22.723306,16.6837782 22.5564682,16.9173511 C21.6221766,18.051848 20.7546201,19.3531828 19.8870637,20.5210472 C19.8870637,20.6545175 19.7535934,20.687885 19.6868583,20.7546201 L19.5533881,21.0215606 C19.5533881,20.8880903 19.6201232,20.7546201 19.6868583,20.7546201 C20.1873717,19.7202259 22.3562628,16.7505133 23.2238193,16.0497947 L23.3572895,15.8162218 Z M25.8932238,16.1832649 C23.6575975,18.3521561 21.8557495,21.1883984 20.4209446,23.9912731 C20.387577,24.1581109 20.3208419,24.224846 20.1873717,24.3583162 C20.4209446,23.7243326 20.6211499,23.0569815 20.9214579,22.4229979 C21.6889117,20.8213552 24.2915811,16.9840862 25.8932238,16.1832649 Z M23.7243326,17.0508214 L23.7910678,17.0841889 C23.8244353,17.0841889 23.8244353,17.0841889 23.8578029,17.0508214 L23.8578029,17.1175565 L23.7910678,17.0841889 C23.7577002,17.0841889 23.7577002,17.0841889 23.7243326,17.0508214 Z M27.1945585,17.6848049 C27.7284394,17.7181725 28.062115,18.2854209 28.062115,19.0862423 C28.062115,20.7546201 26.5939425,23.3572895 21.9892197,23.924538 C23.2905544,21.0215606 24.9589322,18.7191992 26.7607803,17.7849076 C26.9276181,17.7181725 27.0610883,17.6848049 27.1945585,17.6848049 Z M23.023614,17.8516427 L23.023614,17.9183778 C22.2895277,18.9194045 21.4887064,19.8536961 20.8213552,20.8880903 C21.4219713,19.7202259 22.1560575,18.7859343 23.023614,17.8516427 Z" id="e"></path>
            <path d="M45.6134497,0 C45.2464066,0 44.912731,0.0667351129 44.6457906,0.233572895 C44.2120123,0.467145791 43.7782341,0.900924025 43.2443532,1.5349076 C42.4101643,2.26899384 41.5092402,3.57032854 40.4414784,5.30544148 C37.1047228,5.47227926 33.8013347,6.03952772 30.0975359,6.84034908 C29.8973306,6.90708419 29.7304928,7.04055441 29.6637577,7.27412731 L29.7972279,7.57443532 L30.2643737,7.50770021 C30.0308008,7.64117043 29.8305955,7.70790554 29.6637577,7.84137577 L29.8305955,7.94147844 L29.7972279,8.20841889 L30.164271,8.07494867 L29.9640657,8.275154 L29.9640657,8.64219713 L30.2643737,8.64219713 L30.164271,8.87577002 C30.2643737,9.07597536 30.4645791,10.1771047 30.6647844,10.1771047 L30.698152,10.1771047 C32.5667351,9.57648871 35.436345,9.07597536 38.5061602,8.77566735 C35.0359343,15.5159138 31.4322382,25.2258727 31.4322382,32.3331622 C31.4322382,36.2705339 32.5333676,39.3737166 35.3696099,40.7417864 C35.5030801,40.8085216 35.8033881,40.8418891 36.1370637,40.8418891 C36.5374743,40.8418891 36.9712526,40.775154 37.0379877,40.4414784 C37.0379877,40.4414784 37.0046201,40.3747433 37.0046201,40.3413758 C37.0046201,40.3080082 37.0046201,40.2746407 37.0379877,40.2746407 C35.7032854,39.7407598 35.2695072,38.2392197 35.2695072,36.4373717 C35.2695072,33.3008214 36.6042094,29.2299795 37.0379877,27.461499 C38.139117,22.8234086 38.5728953,20.5210472 40.8085216,15.5826489 C41.976386,12.9799795 43.2777207,10.5441478 44.6457906,8.37525667 L44.7125257,8.34188912 C45.213039,8.34188912 45.7135524,8.30852156 46.1806982,8.30852156 C48.2161191,8.30852156 50.0847023,8.44199179 51.4861396,8.70893224 C52.2202259,8.80903491 52.9543121,9.07597536 53.5882957,9.30954825 C53.7217659,9.37628337 53.7217659,9.37628337 53.8218686,9.37628337 L53.8886037,9.37628337 C54.088809,9.37628337 54.1889117,9.07597536 54.2556468,8.87577002 C54.2556468,8.80903491 54.1889117,8.77566735 54.1555441,8.77566735 L54.389117,8.64219713 C54.3223819,8.275154 54.2556468,7.90811088 54.1555441,7.50770021 C53.8218686,6.40657084 51.986653,6.10626283 50.9856263,5.90605749 C49.5508214,5.6724846 48.1827515,5.47227926 46.8814168,5.40554415 C47.5821355,4.60472279 48.1827515,4.00410678 48.8834702,3.50359343 C49.1170431,3.30338809 49.2171458,3.0698152 49.2171458,2.8362423 C49.2171458,2.66940452 49.1837782,2.50256674 49.1170431,2.33572895 C48.8834702,1.90195072 48.4830595,1.40143737 48.0159138,1.03439425 C47.5154004,0.600616016 46.8814168,0.266940452 46.2808008,0.100102669 C46.0472279,0.0333675565 45.813655,0 45.6134497,0 Z M42.6103696,4.3711499 C42.6103696,4.3711499 42.6103696,4.43788501 42.6771047,4.43788501 L42.6103696,4.50462012 L42.6103696,4.3711499 Z M44.7125257,4.43788501 L44.1452772,5.17197125 C44.2120123,4.93839836 44.3454825,4.53798768 44.7125257,4.43788501 Z M44.1119097,5.37217659 L44.1119097,5.47227926 C43.2443532,6.70687885 42.6771047,8.14168378 41.976386,9.50975359 C39.0066735,15.8829569 36.2371663,22.1894251 35.1026694,29.0631417 C35.0359343,28.8295688 35.0025667,28.5292608 35.0025667,28.1955852 C35.0025667,24.1914784 39.273614,14.448152 40.8752567,11.3449692 C41.8095483,9.50975359 42.9106776,7.04055441 44.1119097,5.37217659 Z M41.1088296,7.07392197 C41.075462,7.27412731 40.9419918,7.47433265 40.8752567,7.64117043 L40.8752567,7.50770021 C40.8752567,7.47433265 40.8418891,7.44096509 40.8418891,7.40759754 C40.8418891,7.30749487 40.9753593,7.17402464 41.1088296,7.07392197 Z M34.0682752,7.7412731 C34.1350103,7.7412731 34.1683778,7.77464066 34.1683778,7.77464066 C34.1683778,7.87474333 33.4676591,8.10831622 31.5657084,8.44199179 C31.7659138,8.37525667 31.899384,8.275154 31.9994867,8.20841889 C32.9671458,7.87474333 33.7679671,7.7412731 34.0682752,7.7412731 Z M40.8085216,7.77464066 L40.2412731,8.80903491 L40.2412731,8.74229979 C40.2412731,8.34188912 40.474846,8.00821355 40.8085216,7.77464066 Z M40.1411704,9.00924025 L39.9409651,9.37628337 L39.9409651,9.30954825 C39.9075975,9.2761807 39.9075975,9.24281314 39.9075975,9.20944559 C39.9075975,9.14271047 39.9743326,9.07597536 40.0077002,9.07597536 L40.1411704,9.00924025 Z M38.4060575,12.3459959 L38.4727926,12.4794661 C38.2058522,12.713039 37.7053388,13.7140657 37.4717659,14.448152 C37.7053388,13.7140657 37.9722793,12.9799795 38.4060575,12.3459959 Z M37.0379877,15.4491786 C37.0379877,15.6827515 36.337269,17.2510267 36.1704312,17.6180698 C36.4040041,16.8172485 36.7376797,15.7494867 37.0379877,15.4491786 Z M35.9702259,18.051848 L35.9034908,18.4188912 C35.5364476,19.4199179 35.0359343,20.3208419 34.7356263,21.3886037 C34.2351129,22.9235113 33.8680698,24.5918891 33.2674538,26.1601643 C33.3675565,25.726386 33.3675565,25.2926078 33.5010267,24.9255647 C34.00154,22.9902464 34.9358316,20.1540041 35.8701232,18.4188912 L35.9702259,18.051848 Z M36.337269,19.5200205 C36.337269,19.6201232 36.337269,19.7202259 36.3039014,19.786961 C36.3039014,19.9871663 36.2705339,20.087269 36.1036961,20.387577 C36.2037988,20.1873717 36.2705339,19.9871663 36.3039014,19.786961 C36.337269,19.7202259 36.337269,19.6534908 36.337269,19.5200205 Z M35.9702259,20.8880903 C35.1694045,22.8567762 34.5687885,24.9589322 34.2351129,27.0277207 L34.0682752,27.0944559 C34.2351129,25.8932238 35.3696099,21.7556468 35.9702259,20.8880903 Z" id="t"></path>
            <path d="M51.0523614,35.6699179 C52.587269,35.6699179 54.7227926,34.3685832 56.9250513,31.9661191 C59.1940452,29.5302875 61.1960986,26.4604723 63.1314168,23.2571869 C63.49846,22.1226899 63.9322382,21.0549281 64.7997947,19.5200205 C64.6663244,19.3531828 64.4994867,19.1529774 64.2325462,19.0195072 C63.798768,19.7202259 63.3649897,20.387577 62.9979466,21.1216632 C63.3649897,20.3208419 63.7320329,19.6534908 64.1658111,18.9861396 C63.8655031,18.8193018 63.6652977,18.7859343 63.2648871,18.7859343 C62.8644764,19.4532854 62.4974333,20.2207392 62.063655,20.8880903 C62.063655,21.0215606 61.9635524,21.0882957 61.8968172,21.1216632 L61.8300821,21.3886037 C61.8300821,20.988193 62.4974333,19.8536961 63.0646817,18.7859343 C62.9312115,18.8526694 62.8644764,18.9194045 62.7643737,18.9861396 C58.6935318,26.026694 55.7571869,29.863963 54.2556468,29.9974333 C54.0220739,29.9974333 53.8886037,29.6637577 53.8886037,29.1298768 C53.8886037,27.3613963 55.5569815,23.2905544 57.2920945,19.9537988 C57.2253593,19.786961 57.0585216,19.5867556 56.9250513,19.4532854 C55.2566735,21.889117 54.0220739,24.7920945 53.1545175,27.5616016 L52.9543121,27.9286448 C53.0877823,27.3280287 53.1545175,26.6606776 53.3213552,25.9599589 C53.7551335,24.4250513 55.4568789,20.8213552 56.7915811,19.4199179 C56.3578029,19.0862423 55.6237166,18.8526694 54.9563655,18.7859343 L54.8228953,18.8526694 L54.8896304,18.7859343 L54.0220739,18.7191992 C52.8208419,18.7191992 51.7864476,19.0528747 51.7864476,19.5867556 C51.7864476,19.8870637 43.9117043,28.8963039 42.8105749,29.7972279 C42.8105749,29.3634497 42.9106776,28.7628337 43.2777207,27.8952772 C44.7125257,23.9912731 47.8157084,18.2854209 51.7864476,16.9173511 L53.5215606,17.3511294 C53.5882957,17.2510267 53.6550308,17.1842916 53.6550308,17.0508214 C53.6550308,16.8839836 53.5215606,16.6837782 53.3880903,16.550308 C52.3536961,15.5826489 51.1190965,14.74846 49.6842916,14.74846 C44.4789528,14.74846 40.1411704,23.0569815 38.5728953,27.5616016 C38.1057495,28.9964066 37.6386037,30.3978439 37.6386037,31.6324435 C37.6719713,33.5677618 40.1411704,35.2027721 41.976386,35.2027721 C42.5436345,35.2027721 43.0107803,35.0359343 43.2777207,34.6355236 C43.711499,33.9014374 44.612423,33.3341889 45.1463039,32.6001027 L46.948152,30.4312115 C48.0492813,28.9296715 49.0169405,27.5282341 49.8177618,26.6606776 C49.2505133,28.3290554 48.75,30.7982546 48.75,32.2330595 C48.75,34.6021561 49.650924,35.6699179 51.0523614,35.6699179 Z M44.7125257,18.1185832 L44.8459959,17.9851129 L44.912731,17.9851129 L44.7125257,18.1185832 Z M41.3090349,23.8578029 C41.3090349,23.7243326 41.37577,23.62423 41.4425051,23.5574949 C41.8095483,22.4229979 43.6113963,19.2864476 44.4122177,18.4856263 L44.5456879,18.2186858 C44.5456879,18.5523614 44.0451745,19.2197125 43.8449692,19.4199179 C43.0441478,20.6545175 42.3767967,21.9892197 41.5426078,23.2905544 C41.5426078,23.4240246 41.5092402,23.4907598 41.4425051,23.5574949 L41.3090349,23.8578029 Z M42.3100616,27.0944559 C42.4101643,26.4604723 42.5436345,25.726386 42.8105749,25.0924025 C43.3444559,23.4240246 45.5800821,19.2864476 47.1483573,18.3521561 C45.1463039,20.7546201 43.6113963,23.7910678 42.4768994,26.6606776 C42.4101643,26.8275154 42.4101643,26.9609856 42.3100616,27.0944559 Z M51.8531828,24.4917864 C52.2202259,23.3572895 53.8218686,20.1540041 54.5893224,19.2864476 L54.6894251,19.0195072 C54.6894251,19.3531828 54.1889117,19.9537988 54.088809,20.2207392 C53.3213552,21.5220739 52.7207392,22.9235113 52.0200205,24.224846 C52.0200205,24.3583162 51.9199179,24.4250513 51.8531828,24.4917864 Z M64.2325462,21.3886037 C64.4994867,21.0215606 64.6663244,20.6545175 64.8665298,20.2874743 C64.9332649,20.1540041 65,20.0205339 65,19.8870637 L64.2325462,21.3886037 Z M55.3234086,20.2207392 L55.1899384,20.2207392 C55.2566735,20.2207392 55.2566735,20.2207392 55.3234086,20.1540041 L55.3234086,20.2207392 Z M42.4768994,23.5574949 C43.0441478,22.3228953 43.6781314,21.3218686 44.4122177,20.2874743 L44.4122177,20.387577 C43.7782341,21.4553388 43.110883,22.4229979 42.4768994,23.5574949 Z M52.9543121,24.4250513 C53.3880903,23.1904517 54.0220739,22.1226899 54.6894251,21.0882957 L54.6894251,21.1883984 C54.1555441,22.2561602 53.4548255,23.2905544 52.9543121,24.4250513 Z M61.763347,21.7556468 L61.6966119,21.7556468 C61.6966119,21.6889117 61.763347,21.6221766 61.763347,21.5554415 L61.763347,21.7556468 Z M62.6976386,22.0559548 L62.6309035,22.0559548 C62.7643737,21.9558522 62.7643737,21.6889117 62.8311088,21.6221766 L62.6976386,22.0559548 Z M52.7207392,23.3572895 C52.7207392,23.2571869 52.7207392,23.1237166 52.7874743,23.0569815 L52.7874743,23.2571869 L52.7207392,23.3572895 Z M52.5205339,23.8578029 C52.5205339,23.7910678 52.5205339,23.7243326 52.587269,23.6909651 L52.5205339,23.8578029 Z M41.2422998,24.1581109 L41.1755647,24.1581109 C41.1755647,24.1247433 41.2422998,24.0580082 41.2422998,23.9912731 L41.2422998,24.1581109 Z M42.1765914,24.4917864 L42.1098563,24.4917864 C42.2433265,24.3583162 42.2433265,24.1247433 42.3767967,24.0580082 L42.1765914,24.4917864 Z M51.2191992,25.0256674 C51.2859343,24.7253593 51.5528747,24.2915811 51.7197125,24.1247433 L51.2191992,25.0256674 Z M52.0867556,25.2926078 L52.1868583,24.9922998 L52.1534908,24.9255647 C52.1534908,24.7920945 52.2202259,24.7253593 52.286961,24.6919918 L52.4537988,24.1247433 L52.3870637,24.6252567 L52.4537988,24.5918891 C52.2535934,24.9589322 52.3203285,24.9589322 52.0867556,25.2926078 Z M52.2202259,25.0256674 C52.3536961,24.7920945 52.286961,24.9255647 52.3870637,24.6252567 C52.2202259,24.6919918 52.2202259,24.825462 52.1868583,24.9922998 L52.2202259,25.0256674 Z M52.4537988,24.525154 C52.4537988,24.4250513 52.4537988,24.3583162 52.5205339,24.224846 C52.5205339,24.3583162 52.5205339,24.4250513 52.4537988,24.525154 Z M51.7864476,24.7920945 C51.7864476,24.6586242 51.7864476,24.525154 51.8531828,24.4917864 L51.7864476,24.7920945 Z M51.7197125,25.1591376 L51.6529774,25.1591376 C51.6529774,25.0924025 51.7197125,25.0256674 51.7197125,24.9589322 L51.7197125,25.1591376 Z M52.6540041,25.3593429 L52.587269,25.3593429 C52.7207392,25.2258727 52.7207392,25.0256674 52.8542094,24.9589322 L52.6540041,25.3593429 Z M51.986653,25.5929158 L52.0200205,25.3593429 L52.0867556,25.3593429 L51.986653,25.5929158 Z M51.986653,26.0934292 L51.9199179,26.0934292 C51.9199179,25.9599589 51.9199179,25.8932238 51.986653,25.7931211 L51.986653,26.0934292 Z M42.3100616,27.461499 L42.2433265,27.461499 C42.2433265,27.3947639 42.2433265,27.2612936 42.3100616,27.1945585 L42.3100616,27.461499 Z M52.9543121,28.3290554 L52.887577,28.3290554 C52.887577,28.2623203 52.887577,28.1288501 52.9543121,28.062115 L52.9543121,28.3290554 Z M52.1534908,33.0672485 L52.4537988,32.5333676 C52.4537988,32.8670431 52.4204312,32.9004107 52.1534908,33.0672485 Z M52.7874743,32.7669405 L52.6540041,32.7669405 C52.7207392,32.7669405 52.7207392,32.7002053 52.7874743,32.7002053 L52.7874743,32.7669405 Z M51.6529774,33.6344969 L52.0867556,33.1339836 C52.0867556,33.400924 51.8531828,33.4676591 51.6529774,33.6344969 Z M52.0867556,33.3341889 C52.1534908,33.3341889 52.1534908,33.2674538 52.2202259,33.2674538 C52.2202259,33.3341889 52.1534908,33.3341889 52.0867556,33.3341889 Z M51.4861396,33.8347023 C51.4861396,33.7679671 51.5528747,33.701232 51.5862423,33.701232 L51.4861396,33.8347023 Z" id="a"></path>
        </g>
    </g>
</svg>