<svg width="24px" height="16px" viewBox="0 0 24 16" version="1.1" xmlns="http://www.w3.org/2000/svg" xmlns:xlink="http://www.w3.org/1999/xlink">
    <title>mc_symbol</title>
    <g id="Page-1" stroke="none" stroke-width="1" fill="none" fill-rule="evenodd">
        <g id="mc_symbol" fill-rule="nonzero">
            <g id="Group" opacity="0" fill="#FFFFFF">
                <rect id="Rectangle" x="0" y="0" width="23.8890909" height="15.9816092"></rect>
            </g>
            <rect id="Rectangle" fill="#FF5F00" x="9" y="3" width="6" height="10"></rect>
            <path d="M9.4031975,7.49909724 C9.40155393,5.50489262 10.3591246,3.62071246 12,2.38945503 C9.21241095,0.295052736 5.20932129,0.600120542 2.80399484,3.09026499 C0.398668387,5.58040945 0.398668387,9.41959055 2.80399484,11.909735 C5.20932129,14.3998795 9.21241095,14.7049473 12,12.610545 C10.3586025,11.3788965 9.40097325,9.49393545 9.4031975,7.49909724 Z" fill="#EB001B"></path>
            <path d="M22.23,13 L22.23,12.1714286 L22.3966667,12.1714286 L22.3966667,12 L22,12 L22,12.1714286 L22.1566667,12.1714286 L22.1566667,13 L22.23,13 Z M23,13 L23,12 L22.88,12 L22.74,12.7142857 L22.6,12 L22.48,12 L22.48,13 L22.5666667,13 L22.5666667,12.2428571 L22.6966667,12.8928571 L22.7866667,12.8928571 L22.9166667,12.2428571 L22.9166667,13 L23,13 Z" id="Shape" fill="#F79E1B"></path>
            <path d="M23,7.50090267 C23,9.98926027 21.5137104,12.2591528 19.1725203,13.3465481 C16.8313302,14.4339435 14.0462058,14.1479351 12,12.6099919 C13.6400103,11.3778225 14.5975661,9.49409675 14.5975661,7.5 C14.5975661,5.50590325 13.6400103,3.62217748 12,2.39000811 C14.0462058,0.852064871 16.8313302,0.566056504 19.1725203,1.65345186 C21.5137104,2.74084722 23,5.01073973 23,7.49909733 L23,7.50090267 Z" fill="#F79E1B"></path>
        </g>
    </g>
</svg>
