<?xml version="1.0" encoding="UTF-8"?>
<svg width="64px" height="16px" viewBox="0 0 64 16" version="1.1" xmlns="http://www.w3.org/2000/svg" xmlns:xlink="http://www.w3.org/1999/xlink">
    <title>PayPal</title>
    <g id="Page-1" stroke="none" stroke-width="1" fill="none" fill-rule="evenodd">
        <g id="PayPal" fill-rule="nonzero">
            <path d="M23.3824687,4.0000001 L19.8935797,4.0000001 C19.6549538,3.99984908 19.4517279,4.17411836 19.4145525,4.41077313 L18.0034885,13.3929738 C17.9903601,13.4773257 18.0146659,13.5632204 18.0700062,13.6280423 C18.1253466,13.6928642 18.2061754,13.730117 18.2912108,13.7299923 L19.9568378,13.7299923 C20.1956289,13.7301036 20.3989152,13.5555652 20.4358649,13.3187069 L20.8164339,10.8960685 C20.8533538,10.6594019 21.0563531,10.4849241 21.2949509,10.4847834 L22.3994172,10.4847834 C24.6976252,10.4847834 26.024005,9.36821857 26.3703942,7.15557632 C26.5264989,6.18754534 26.3770261,5.42694957 25.9255468,4.89427644 C25.4296849,4.30936036 24.550193,4.0000001 23.3824687,4.0000001 L23.3824687,4.0000001 Z M23.7849739,7.28054964 C23.5941793,8.53745336 22.6376554,8.53745336 21.7127606,8.53745336 L21.1862898,8.53745336 L21.5556356,6.19010627 C21.5779738,6.04823078 21.6997826,5.94374495 21.8428478,5.94374495 L22.0841469,5.94374495 C22.7141773,5.94374495 23.3084975,5.94374495 23.6156054,6.30432368 C23.7987479,6.51944168 23.8548639,6.83904556 23.7849739,7.28054964 L23.7849739,7.28054964 Z M33.8113849,7.24008697 L32.1406565,7.24008697 C31.9975913,7.2400892 31.8757825,7.3445728 31.8534442,7.48644829 L31.7794731,7.9556104 L31.6626496,7.78556474 C31.300956,7.25852565 30.4944151,7.08233377 29.6894046,7.08233377 C27.8431859,7.08233377 26.2663244,8.48623479 25.9592165,10.4555888 C25.7995408,11.437961 26.0265558,12.3773096 26.5815947,13.0323951 C27.0907205,13.6347255 27.8192091,13.8856965 28.6859473,13.8856965 C30.1735332,13.8856965 30.9984394,12.9253483 30.9984394,12.9253483 L30.9239581,13.3914373 C30.9105265,13.4757719 30.9345504,13.5617825 30.9897001,13.626808 C31.0448499,13.6918336 31.1255944,13.7293525 31.2106602,13.7294798 L32.7155911,13.7294798 C32.9543822,13.7295914 33.1576685,13.555053 33.1946183,13.3181947 L34.0975768,7.57710516 C34.1110272,7.49295545 34.0870486,7.40711633 34.0319749,7.34226175 C33.9769011,7.27740718 33.8962719,7.24006062 33.8113849,7.24008697 L33.8113849,7.24008697 Z M31.482568,10.5047586 C31.3213619,11.4630581 30.563795,12.1063633 29.5975783,12.1063633 C29.1124294,12.1063633 28.7247184,11.9501467 28.4757671,11.6541034 C28.2288564,11.3601088 28.1349895,10.9416531 28.213552,10.4755641 C28.3640451,9.52545958 29.1343657,8.86115472 30.0857881,8.86115472 C30.5602239,8.86115472 30.9458944,9.0194201 31.1999471,9.31802437 C31.45451,9.61970175 31.5555189,10.0407184 31.482568,10.5047586 L31.482568,10.5047586 Z M42.7093527,7.24008593 L41.030462,7.24008593 C40.8697141,7.24034244 40.7194608,7.32027402 40.628977,7.4536684 L38.313424,10.878142 L37.3319029,7.58734887 C37.2700405,7.38126633 37.0810311,7.24019096 36.8666497,7.24008593 L35.2168373,7.24008593 C35.1228745,7.2398361 35.0345821,7.28518649 34.9798044,7.36183619 C34.9250268,7.43848589 34.910516,7.53698674 34.9408483,7.62627499 L36.7901278,13.0749065 L35.05155,15.5390319 C34.9885611,15.6280974 34.9803642,15.745016 35.030305,15.8420623 C35.0802459,15.9391085 35.179969,15.9999995 35.2887679,15.9999995 L36.965618,15.9999995 C37.1245383,16.0002188 37.2734459,15.9221174 37.3640421,15.7910273 L42.9481011,7.69849317 C43.0097895,7.60925554 43.0170305,7.49301042 42.9668967,7.39675152 C42.9167629,7.30049263 42.8175448,7.24008593 42.7093527,7.24008593 L42.7093527,7.24008593 Z" id="Shape" fill="#253B80"></path>
            <path d="M48.6602668,4.00046627 L44.9908329,4.00046627 C44.7400984,4.00055821 44.5266887,4.15915079 44.4876269,4.37441716 L43.0037594,12.5514454 C42.9897919,12.6281037 43.0151457,12.7062338 43.0731408,12.765251 C43.131136,12.8242682 43.215956,12.858253 43.3052538,12.858253 L45.1882528,12.858253 C45.3637492,12.8580294 45.5129931,12.7469007 45.5401751,12.5962076 L45.9613016,10.2783649 C46.0001263,10.0629133 46.2135993,9.90407586 46.4645076,9.90394778 L47.6254221,9.90394778 C50.0427421,9.90394778 51.4370197,8.8874728 51.8018172,6.87317376 C51.9665126,5.99191794 51.8082548,5.29950264 51.3334816,4.8145788 C50.8125722,4.28209512 49.8882396,4.00046627 48.6602668,4.00046627 L48.6602668,4.00046627 Z M49.0835392,6.98694436 C48.8834371,8.13117812 47.8775615,8.13117812 46.9044105,8.13117812 L46.3513131,8.13117812 L46.7402516,5.9942493 C46.7632898,5.86506177 46.8913356,5.76981038 47.041746,5.76997182 L47.2954949,5.76997182 C47.9574951,5.76997182 48.5830156,5.76997182 48.9059687,6.09822816 C49.0985603,6.29406279 49.1570352,6.5850171 49.0835392,6.98694436 L49.0835392,6.98694436 Z M59.626724,6.9501088 L57.8708677,6.9501088 C57.7203732,6.94974899 57.5921991,7.04509583 57.5693733,7.17438607 L57.4915856,7.60149207 L57.3681982,7.44668946 C56.9878431,6.96689462 56.1402253,6.80649674 55.2936805,6.80649674 C53.3522067,6.80649674 51.6945238,8.08455082 51.3715707,9.87737022 C51.204193,10.7716817 51.4418479,11.6268262 52.0255239,12.2231893 C52.5619909,12.7715263 53.3269927,13 54.23845,13 C55.8027876,13 56.6702547,12.1257383 56.6702547,12.1257383 L56.5919305,12.5500466 C56.5777763,12.6269824 56.6031762,12.7054415 56.6614125,12.7646734 C56.7196489,12.8239054 56.8048557,12.857944 56.8944979,12.8577868 L58.4765389,12.8577868 C58.7274471,12.8576587 58.9409201,12.6988212 58.9797449,12.4833696 L59.9298278,7.25691638 C59.9434575,7.18007435 59.9177602,7.1018934 59.8594846,7.04290566 C59.8012089,6.98391792 59.7161784,6.950018 59.626724,6.9501088 L59.626724,6.9501088 Z M57.1777524,9.92213242 C57.0093018,10.7945291 56.2115755,11.3801679 55.1955071,11.3801679 C54.6863999,11.3801679 54.2776121,11.2379546 54.0158163,10.9684489 C53.7561663,10.7008082 53.6585293,10.3198632 53.7400723,9.89555486 C53.8994029,9.03061859 54.7083951,8.4258626 55.7089059,8.4258626 C56.2078202,8.4258626 56.6133892,8.56994094 56.8805497,8.84177805 C57.1493197,9.11641281 57.2555401,9.49968915 57.1777524,9.92213242 L57.1777524,9.92213242 Z M61.6980228,4.22474355 L60.1921601,12.5514454 C60.1781927,12.6281037 60.2035464,12.7062338 60.2615416,12.765251 C60.3195367,12.8242682 60.4043568,12.858253 60.4936546,12.858253 L62.0075643,12.858253 C62.2591673,12.858253 62.4726811,12.6997202 62.5113067,12.4838359 L63.9962472,4.30727386 C64.0101977,4.23057158 63.9848544,4.15240294 63.9268795,4.09331667 C63.8689046,4.03423041 63.7840978,4.00013743 63.6947528,4 L61.9995173,4 C61.8491836,4.00046267 61.7214541,4.09567634 61.6980228,4.22474355 L61.6980228,4.22474355 Z" id="Shape" fill="#179BD7"></path>
            <path d="M3.16989482,15 L3.43707532,13.2285819 L2.84192182,13.2141844 L0,13.2141844 L1.97499007,0.142910281 C1.98714264,0.0603627901 2.05538995,-0.000437979483 2.13540054,0 L6.92728023,0 C8.51810255,0 9.61594364,0.345540893 10.1891301,1.02755287 C10.4578432,1.34749594 10.6289817,1.68183645 10.7117413,2.04977098 C10.7985877,2.43583562 10.8001203,2.89708688 10.7153173,3.45965345 L10.709187,3.50071281 L10.709187,3.861182 L10.9779001,4.02008706 C11.18304,4.12856912 11.3674322,4.27531541 11.5219674,4.45307668 C11.751855,4.72662801 11.9005157,5.07429948 11.9633517,5.4864928 C12.028231,5.91041737 12.0067749,6.41486094 11.9005157,6.98595932 C11.777909,7.64290909 11.5796948,8.21507395 11.3120034,8.68325731 C11.0758158,9.10267409 10.7582521,9.46593303 10.3796814,9.74973421 C10.0241219,10.013154 9.60163952,10.2131184 9.12398414,10.3410957 C8.66114373,10.4669399 8.13342393,10.5303953 7.554618,10.5303953 L7.18168919,10.5303953 C6.91501956,10.5303953 6.65601284,10.6306441 6.45269001,10.8103455 C6.24965546,10.9919643 6.11496698,11.2429067 6.07260915,11.5184862 L6.04451177,11.6779245 L5.57247586,14.8000356 L5.55101969,14.9146818 C5.54540021,14.9509421 5.53569385,14.9690722 5.52138973,14.9813367 C5.50753309,14.9931651 5.49024568,14.9997439 5.47234704,15 L3.16989482,15 Z" fill="#253B80"></path>
            <path d="M11.8263226,5 C11.8133249,5.08747223 11.7984704,5.17689916 11.781759,5.26876944 C11.2075383,8.37232341 9.24302581,9.44446912 6.73400166,9.44446912 L5.45651148,9.44446912 C5.14967245,9.44446912 4.89111066,9.67903154 4.84329762,9.99764549 L4.18923379,14.3644158 L4.00401628,15.6022212 C3.98908446,15.7015861 4.01621612,15.8028527 4.07826823,15.8793602 C4.14032034,15.9558678 4.23107472,16 4.32663825,16 L6.59241936,16 C6.86072943,16 7.08865374,15.7947579 7.13089633,15.516215 L7.15317813,15.3950244 L7.57978187,12.5450911 L7.60716992,12.3887161 C7.64894831,12.1091959 7.87733681,11.9039538 8.14564689,11.9039538 L8.48451601,11.9039538 C10.6797381,11.9039538 12.3982223,10.9657041 12.9004914,8.25064416 C13.1103117,7.11643714 13.0016879,6.16939138 12.4464996,5.50333185 C12.2705338,5.29728981 12.0603756,5.12672671 11.8263226,5 L11.8263226,5 Z" fill="#179BD7"></path>
            <path d="M12.3118394,4.27803659 C12.1017889,4.20654413 11.8881076,4.15074501 11.6720734,4.110973 C11.2452011,4.03378702 10.8137791,3.9967531 10.3819052,4.00022297 L6.4720468,4.00022297 C6.16459633,4 5.90289966,4.26348058 5.85568038,4.62092368 L5.0239314,10.8191709 L5,11 C5.05354099,10.5922864 5.35187819,10.2914945 5.70251944,10.2917004 L7.1660573,10.2917004 C10.0404839,10.2917004 12.2910988,8.91827495 12.9489464,4.94503957 C12.9686233,4.82740678 12.9851094,4.71290251 13,4.60090107 C12.8264098,4.49379803 12.6454929,4.40400753 12.4591504,4.33247305 C12.4102975,4.31340142 12.3611875,4.29525359 12.3118394,4.27803659 L12.3118394,4.27803659 Z" fill="#222D65"></path>
            <path d="M4.56146889,4.30432352 C4.60324482,3.98479696 4.83700688,3.74927553 5.11137412,3.75027954 L8.5996427,3.75027954 C9.01290194,3.75027954 9.39864219,3.78214685 9.75069541,3.84923593 C9.98892798,3.89335384 10.2238707,3.95933925 10.4533785,4.04658964 C10.6265583,4.11423779 10.787402,4.19418561 10.9359096,4.2864331 C11.1105128,2.97428252 10.9344862,2.08087961 10.3323898,1.27189713 C9.66861292,0.381289601 8.47058815,0 6.9375909,0 L2.48710678,0 C2.17395971,0 1.90683577,0.268356318 1.85844032,0.633432725 L0.00470455485,14.4789415 C-0.0127692578,14.6090312 0.0189335275,14.7416174 0.0914734682,14.841823 C0.164013409,14.9420287 0.270128263,14.9998218 0.381904435,15 L3.12953274,15 L3.81940523,9.84252702 L4.56146889,4.30432352 Z" fill="#253B80"></path>
        </g>
    </g>
</svg>
