<svg width="37px" height="12px" viewBox="0 0 37 12" version="1.1" xmlns="http://www.w3.org/2000/svg" xmlns:xlink="http://www.w3.org/1999/xlink">
    <title>Visa_Inc._logo</title>
    <g id="Page-1" stroke="none" stroke-width="1" fill="none" fill-rule="evenodd">
        <g id="Visa_Inc._logo" fill-rule="nonzero">
            <polygon id="polygon9" fill="#00579F" points="16.0761338 12 13 12 14.9240345 0 18 0"></polygon>
            <path d="M27,0.494552423 C26.4082142,0.259512729 25.4695931,0 24.3089908,0 C21.3461244,0 19.2596981,1.58171366 19.246901,3.84308787 C19.2222911,5.51152477 20.7407212,6.43821517 21.8763854,6.99452505 C23.0371518,7.56298932 23.4317303,7.93402683 23.4317303,8.44073364 C23.4199176,9.21894333 22.4937655,9.5776622 21.6299584,9.5776622 C20.4321132,9.5776622 19.7902873,9.39271831 18.8149154,8.9597591 L18.4198447,8.77415823 L18,11.3817684 C18.7036787,11.7027101 20.0001276,11.9875171 21.3461244,12 C24.4942212,12 26.5437327,10.4427594 26.5680144,8.03290446 C26.5799912,6.71053928 25.7782011,5.6972899 24.0496026,4.86931289 C23.000237,4.33780454 22.3575908,3.97941418 22.3575908,3.43558719 C22.3698957,2.94119901 22.9011412,2.4348207 24.0856971,2.4348207 C25.061069,2.41001916 25.7777089,2.64473036 26.320603,2.8796058 L26.5919681,3.00295647 L27,0.494552423 L27,0.494552423 L27,0.494552423 Z" id="path11" fill="#00579F"></path>
            <path d="M30.7428793,7.74893599 C30.9953367,7.05954216 31.9667779,4.39138611 31.9667779,4.39138611 C31.9540377,4.4170072 32.2187324,3.68926658 32.3701062,3.24250951 L32.5843429,4.27651542 C32.5843429,4.27651542 33.1648608,7.14896144 33.2909218,7.74893599 C32.8118228,7.74893599 31.3483747,7.74893599 30.7428793,7.74893599 L30.7428793,7.74893599 Z M34.5268901,0 L32.1557019,0 C31.4244807,0 30.8689404,0.216846005 30.5534525,0.995659121 L26,12 L29.2165684,12 C29.2165684,12 29.7461254,10.5188977 29.8599491,10.1999067 C30.2128195,10.1999067 33.3418827,10.1999067 33.7958366,10.1999067 C33.8838446,10.6212123 34.1616148,12 34.1616148,12 L37,12 L34.5268901,0 L34.5268901,0 L34.5268901,0 Z" id="path13" fill="#00579F"></path>
            <path d="M11.0013646,0 L8.22417269,8.19153845 L7.92069597,6.53019859 C7.40725119,4.61322878 5.79697919,2.53048168 4,1.49488315 L6.54380796,12 L9.54259839,12 L14,0 L11.0013646,0 L11.0013646,0 L11.0013646,0 Z" id="path15" fill="#00579F"></path>
            <path d="M4.68648076,0 L0.0474592306,0 L0,0.222996697 C3.61872691,1.13885927 6.01533922,3.34651096 7,6 L5.99153077,0.927722438 C5.8255023,0.222840646 5.31527615,0.02325158 4.68648076,0 L4.68648076,0 Z" id="path17" fill="#FAA61A"></path>
        </g>
    </g>
</svg>
