
<svg width="1920px" height="177px" viewBox="0 0 1920 177" version="1.1" xmlns="http://www.w3.org/2000/svg" xmlns:xlink="http://www.w3.org/1999/xlink">
    <g id="Page-1" stroke="none" stroke-width="1" fill="none" fill-rule="evenodd">
        <path d="M172.542443,174.671251 C168.575088,174.097045 168.039019,170.757219 171.918883,170.786026 C174.566227,170.806768 178.807639,173.224674 178.817749,174.720615 C178.817749,175.503407 178.261782,175.498982 172.542443,174.671297 L172.542443,174.671251 Z" id="path2987-path" fill="#F3EFE8" fill-rule="nonzero" transform="translate(174.044844, 173.042947) scale(-1, 1) translate(-174.044844, -173.042947) "></path>
        <path d="M110.867883,171.616523 C109.893346,170.062024 114.381156,167.786793 116.700346,168.659556 C117.736742,169.049512 118.589612,170.118278 118.595692,171.034574 C118.607207,172.937479 112.007523,173.434551 110.867883,171.616523 Z" id="path2987-path" fill="#F3EFE8" fill-rule="nonzero" transform="translate(114.663596, 170.608035) scale(-1, 1) translate(-114.663596, -170.608035) "></path>
        <path d="M162.174738,168.699494 C162.981617,168.366461 164.59503,168.335695 165.759956,168.631048 C166.924675,168.926471 166.264567,169.19894 164.292738,169.23655 C162.320702,169.274345 161.367744,169.032596 162.174738,168.699425 L162.174738,168.699494 Z" id="path2987-path" fill="#F3EFE8" fill-rule="nonzero" transform="translate(164.111492, 168.834301) scale(-1, 1) translate(-164.111492, -168.834301) "></path>
        <path d="M1463.07875,175.81699 C1462.66808,175.161939 1462.86987,174.622371 1463.52723,174.617946 C1464.18458,174.613337 1465.05838,175.1459 1465.46908,175.800927 C1465.87972,176.456 1465.67796,176.995569 1465.02057,176.99997 C1464.36322,177.004579 1463.48942,176.47204 1463.07875,175.81699 Z" id="path2987-path" fill="#F3EFE8" fill-rule="nonzero" transform="translate(1464.273906, 175.808958) scale(-1, 1) translate(-1464.273906, -175.808958) "></path>
        <path d="M162.550092,161.409018 C162.538577,160.477166 163.178742,159.923493 163.960979,160.178609 C166.132846,160.886849 166.453469,163.077179 164.38731,163.091052 C163.382949,163.097966 162.556287,162.340892 162.550092,161.409018 Z" id="path2987-path" fill="#F3EFE8" fill-rule="nonzero" transform="translate(164.162820, 161.603775) scale(-1, 1) translate(-164.162820, -161.603775) "></path>
        <path d="M48.8815323,157.995838 C47.4682964,157.095259 47.7236761,156.870725 50.0697651,156.951661 C51.7135313,157.008354 54.6746365,157.454794 56.6500347,157.943685 C60.1097624,158.799947 60.0661436,158.838272 55.4618249,158.987862 C52.8329275,159.073361 49.8717302,158.626874 48.8815323,157.995838 Z" id="path2987-path" fill="#F3EFE8" fill-rule="nonzero" transform="translate(53.555599, 157.967353) scale(-1, 1) translate(-53.555599, -157.967353) "></path>
        <path d="M66.3067354,156.082033 C67.1260967,155.744759 68.4707493,155.735725 69.2947166,156.061291 C70.1184536,156.387549 69.4480964,156.663521 67.8047677,156.67456 C66.161324,156.686083 65.4872589,156.418638 66.3067354,156.081341 L66.3067354,156.082033 Z" id="path2987-path" fill="#F3EFE8" fill-rule="nonzero" transform="translate(67.802471, 156.248945) scale(-1, 1) translate(-67.802471, -156.248945) "></path>
        <path d="M82.7654716,155.724663 C82.7654716,155.150941 84.8766316,154.328026 87.4654799,153.89592 C95.3081159,152.586925 94.7933954,150.412704 86.7612916,150.920746 C82.9041352,151.164731 78.1306842,150.76634 76.153697,150.035216 C74.1767097,149.30423 68.4358145,147.821149 63.3961828,146.739546 C58.3567584,145.657943 52.7221236,144.001282 50.8750256,143.058022 C49.0280427,142.114832 45.2362224,141.045858 42.4486482,140.682589 C35.1634764,139.733154 34.4615221,136.759777 41.5113273,136.712442 C44.8145201,136.689396 46.6379893,137.143972 46.1919904,137.877032 C45.7900708,138.537544 46.7036709,139.161667 48.2224072,139.264013 C53.3274902,139.607993 54.5545976,139.79139 58.7614876,140.839023 C63.5611467,142.034264 64.5463701,142.209319 67.4370726,142.380526 C68.5879507,142.44851 69.3995509,143.172813 69.2407591,143.989736 C68.9171185,145.653657 80.8683294,148.067277 90.1715279,148.216843 C97.1848996,148.329536 101.157206,151.100226 99.1008113,154.44496 C98.0077384,156.222957 96.238689,156.677372 90.2536298,156.71754 C86.1390671,156.745195 82.7692946,156.298362 82.7654716,155.724663 Z" id="path2987-path" fill="#F3EFE8" fill-rule="nonzero" transform="translate(68.114781, 146.715181) scale(-1, 1) translate(-68.114781, -146.715181) "></path>
        <path d="M91.3635231,155.037464 C91.1981677,154.874531 88.010194,154.49755 84.2794262,154.199708 C80.5485664,153.901843 76.5091275,153.056135 75.3028161,152.320356 C73.5361158,151.242809 74.1566591,151.09322 78.4917341,151.551529 C88.8333553,152.644816 94.0621554,153.58349 94.6012646,154.443577 C95.0870825,155.218396 92.1031546,155.765731 91.3635231,155.037464 Z" id="path2987-path" fill="#F3EFE8" fill-rule="nonzero" transform="translate(84.517626, 153.343381) scale(-1, 1) translate(-84.517626, -153.343381) "></path>
        <path d="M375.747919,145.807655 C375.293813,145.083283 373.897435,144.823697 372.644902,145.230776 C371.048279,145.749695 370.547768,145.491376 370.970506,144.366494 C371.84362,142.043144 365.515506,138.726594 362.543277,139.949813 C358.840306,141.473731 357.173764,141.280332 357.160636,139.325091 C357.153727,138.338413 357.955333,137.525707 358.941339,137.519093 C359.927345,137.512179 360.730471,136.968878 360.726049,136.311085 C360.721443,135.653315 359.911317,135.120522 358.92531,135.127159 C357.939304,135.134073 357.129085,134.619555 357.124848,133.984417 C357.120242,133.349301 354.967236,133.058257 352.339652,133.337686 C349.712067,133.617092 347.558854,133.344599 347.554755,132.730594 C347.550149,132.117279 348.085089,131.611864 348.742435,131.607463 C349.399757,131.602853 349.928549,130.25399 349.917517,128.60952 C349.906002,126.965049 350.435301,125.615979 351.092646,125.611577 C352.676166,125.602359 352.603621,121.172196 351.003981,120.197687 C349.08625,119.029386 346.287621,122.006519 346.30897,125.192123 C346.332,128.494222 344.562214,128.941055 342.918977,126.048477 C341.881176,124.221623 341.616608,124.213211 339.901633,125.952607 C338.258972,127.618579 338.24695,127.943822 339.806519,128.530657 C340.788011,128.90001 342.116589,130.557985 342.758942,132.215062 C343.401271,133.872138 344.689339,135.222799 345.621271,135.216554 C348.559001,135.195813 348.920756,138.586707 346.037607,139.117887 C343.468726,139.591153 343.475681,139.624223 346.39425,140.814786 C349.307821,142.003298 349.317033,142.046439 346.830507,142.854582 C345.433346,143.308674 343.83032,143.558097 343.268204,143.40883 C342.706111,143.259494 341.066329,143.548718 339.624259,144.051206 C337.733151,144.710243 336.314388,144.285765 334.534399,142.528301 L332.06655,140.091613 L336.946769,140.058888 C342.0431,140.02478 343.070975,137.705994 338.527456,136.493192 C336.306373,135.900342 335.43455,133.714229 335.444153,128.761898 C335.44641,127.476571 334.885215,125.754737 334.196526,124.935578 C333.507837,124.116443 333.20946,123.010458 333.533492,122.477872 C333.857524,121.94524 333.373204,120.175747 332.457162,118.545611 C331.192217,116.294487 330.784885,116.08514 330.763375,117.674992 C330.727448,120.324484 325.959686,120.582388 325.941952,117.935777 C325.935043,116.91029 325.393861,116.40748 324.739234,116.818407 C324.084629,117.229358 323.544783,116.932944 323.539601,116.159554 C323.534995,115.342332 324.532931,115.008745 325.92468,115.36298 C327.24165,115.69818 328.316368,115.551955 328.312914,115.037921 C328.301399,113.359343 321.709983,112.77956 314.479139,113.821156 C307.407616,114.839798 305.661781,114.234134 305.593428,110.738451 C305.544605,108.242627 307.870865,107.749058 311.435701,109.498847 C316.401292,111.936204 318.153921,110.432865 316.40219,105.238831 C315.634945,102.963854 315.342303,100.21084 315.751892,99.1209643 C316.189277,97.9570885 315.905041,97.1433457 315.063249,97.1489919 C313.273726,97.1605147 307.202166,101.920991 307.614771,102.988443 C307.781969,103.421126 307.382237,103.958113 306.726366,104.181795 C306.070495,104.405568 305.52998,104.005495 305.52519,103.292831 C305.520584,102.580235 304.171947,102.006237 302.528619,102.017276 C299.493311,102.038017 298.410671,103.85662 300.942451,104.682255 C301.835393,104.97346 302.036928,106.334975 301.508229,108.504472 L300.687002,111.874326 L295.16655,105.793033 C289.852447,99.9390397 287.548526,98.890254 283.492712,100.479023 C280.830444,101.521863 281.118642,102.571109 285.273599,106.962578 C288.91805,110.814501 289.438943,113.854111 286.317918,113.056638 C285.412493,112.825283 283.057215,112.496329 281.083959,112.32563 C278.001485,112.058945 277.541323,111.578466 277.81614,108.913648 C278.27142,104.499064 274.9513,106.065087 274.060062,110.685261 C273.684028,112.634695 272.42666,114.591596 271.265902,115.033888 C270.105143,115.476204 268.459212,116.820066 267.608277,118.020285 C265.386642,121.153829 258.322006,121.047819 257.46826,117.868184 C256.992714,116.0971 257.415522,115.476503 259.105532,115.465142 C260.358687,115.458228 261.387529,115.982771 261.391904,116.634111 C261.39651,117.285451 262.33572,117.020264 263.479574,116.04481 C264.623428,115.069332 266.582912,113.524627 267.833971,112.612133 C270.850164,110.412285 269.528219,107.203613 264.900087,105.490927 C261.176804,104.113072 259.935119,101.107317 263.080464,101.086184 C266.148935,101.065443 264.695443,97.3183085 261.119114,96.0295943 C259.586237,95.4772355 259.216145,96.1155546 259.328163,99.1189132 C259.442622,102.189888 258.955975,102.981345 256.749701,103.311728 C254.77633,103.607266 254.21601,104.29193 254.707701,105.806861 C255.168093,107.225322 254.420217,108.419987 252.375107,109.532978 C249.761432,110.95538 248.774965,110.889308 244.88764,109.031688 C242.425157,107.854953 241.08108,106.647129 241.900787,106.34765 C242.720471,106.048195 243.384218,104.771626 243.375766,103.510866 C243.366554,101.985334 244.193262,101.213005 245.850294,101.201897 C249.110628,101.178851 248.16467,98.3181451 244.738129,97.8371127 C241.932522,97.443216 241.178843,94.6390182 243.608346,93.6334893 C244.728917,93.1697411 244.651766,92.7097264 243.297096,91.7776901 C241.843511,90.7776 242.258834,90.3793476 245.449572,89.7136963 C248.137288,89.152972 249.010171,88.5008716 248.175794,87.6770347 C247.341417,86.853221 246.409715,86.9187398 245.265954,87.8816803 C244.340562,88.6607394 242.717062,88.9721095 241.65812,88.5736037 C240.599178,88.1751209 236.635922,88.8150533 232.850895,89.9957063 C226.023606,92.1253111 222.252904,94.1841887 225.216474,94.1642773 C226.044057,94.1596681 226.363759,94.7416867 225.92688,95.4597669 C225.35493,96.3998922 224.766491,96.403856 223.824587,95.4735943 C223.105199,94.7633035 221.580244,94.1884291 220.435837,94.1961264 C217.91092,94.2122584 216.031281,96.8803715 218.074664,97.5467602 C219.030247,97.8584069 219.144269,98.50175 218.40473,99.4091504 C217.144597,100.955354 218.048225,107.368412 219.52484,107.358503 C220.043982,107.356198 220.194713,108.430403 219.859719,109.74827 C219.248825,112.151727 216.435043,112.891401 214.095011,111.263708 C213.406874,110.785049 212.09269,108.111059 211.174646,105.321519 C210.256578,102.531978 209.030138,100.252807 208.449183,100.256724 C207.868252,100.259029 207.496847,99.5903586 207.623811,98.7672362 C207.750707,97.9441138 207.429208,96.3116042 206.909306,95.1394089 C205.643139,92.2848794 209.162215,88.3466038 212.271864,89.1380845 C214.954421,89.8208587 215.270508,87.8172907 213.287372,82.701289 C212.282158,80.1080513 211.772735,79.7592319 210.954617,81.1039471 C210.319358,82.1481006 210.407793,83.4188622 211.17962,84.3368175 C212.096214,85.4270393 211.997554,85.9973046 210.826156,86.3795402 C196.990607,90.8940959 185.85452,93.3093057 182.09455,92.6108604 C180.917257,92.392157 179.957804,92.778172 179.962433,93.4684822 C179.967039,94.1588846 180.775507,94.4085384 181.75898,94.0232838 C183.933726,93.1714004 184.095259,94.5758039 182.076265,96.7819895 C180.889759,98.0785162 180.890772,98.231816 182.080871,97.5485808 C183.755865,96.5873918 184.179134,98.7136089 182.520122,99.7550891 C181.934331,100.122852 178.570984,99.8546464 175.046058,99.1589435 C163.344907,96.8497899 158.872642,96.7139587 155.403979,98.5624062 C152.420166,100.152489 152.316508,100.402857 154.394505,101.000593 C161.366354,103.006143 170.872538,103.965995 172.889874,102.868145 C175.584062,101.40191 180.014251,101.277325 180.023578,102.667417 C180.025881,103.230538 182.732919,103.13771 186.035928,102.461158 C190.283972,101.590954 192.819967,101.618816 194.70184,102.556337 C197.111515,103.756763 197.136802,103.856782 194.970093,103.617475 C193.1811,103.419974 192.665712,103.968691 192.926158,105.793817 C193.20512,107.748482 192.082177,108.672429 187.285558,110.434893 C179.426917,113.322493 169.632304,113.715906 167.735876,111.220105 C165.678675,108.512722 162.344553,107.583037 161.275938,109.418786 C160.04123,111.539841 153.746717,112.642024 151.033392,111.212247 C147.931043,109.577502 145.244594,112.100496 146.189054,115.761832 C147.060371,119.139591 145.317438,119.459511 140.241396,116.853575 C135.567872,114.454289 133.490819,114.65504 133.509911,117.504154 C133.519123,118.819717 132.988144,119.899706 132.330798,119.904131 C131.673476,119.90874 131.127297,118.666025 131.117071,117.142959 C131.10095,114.63347 130.622364,114.406239 126.021177,114.719822 C123.228675,114.910179 120.288665,115.099684 119.487866,115.140958 C118.68709,115.18221 118.346868,116.021234 118.73186,117.005377 C119.11683,117.989519 118.971211,118.844698 118.408289,118.905838 C108.20464,120.013621 104.696734,119.928052 105.143976,118.582277 C105.416122,117.763326 106.933983,117.07585 108.517019,117.054533 C111.5015,117.014434 116.754389,114.134899 116.743749,112.544932 C116.741446,112.045394 115.231761,111.646773 113.391203,111.659149 C111.550669,111.670671 109.470093,111.114187 108.767701,110.420697 C108.065286,109.72716 105.53544,109.071396 103.145778,108.963404 C100.685023,108.852324 98.7944673,108.142908 98.7859693,107.327737 C98.7767573,106.33834 97.6568084,106.532799 95.2067159,107.949786 C90.5943828,110.617254 90.692076,111.805074 95.5238159,111.805696 L99.4082398,111.80618 L96.4359421,114.148427 L93.4635983,116.490698 L97.9406762,115.749272 C103.375019,114.849338 103.934164,116.788886 98.8584216,118.932802 C95.5940805,120.311625 93.9645007,122.553738 96.2378611,122.538482 C96.7552991,122.536178 97.2669105,123.607986 97.37476,124.92288 C97.4825404,126.237797 96.8809047,127.318247 96.0376382,127.323917 C95.1943488,127.328526 93.5482565,128.405842 92.3796222,129.715574 C90.3364007,132.005577 90.3388189,132.128548 92.4429547,132.920398 C93.7406952,133.408759 94.8185452,133.1683 95.0917041,132.32953 C95.8567376,129.980461 97.6066951,130.729238 97.428489,133.329412 C97.2790243,135.51004 96.7095615,135.68233 91.8368743,135.021218 C88.8529694,134.616398 85.8975296,133.813302 85.269156,133.236584 C84.6408516,132.659889 82.6208213,132.198123 80.7802868,132.210499 C76.1427588,132.24161 76.5795228,130.31006 81.5928312,128.616963 C83.8884155,127.841707 85.7632877,126.710948 85.7592344,126.104178 C85.7546284,125.497432 86.961907,124.989528 88.4408706,124.975539 C90.9044817,124.952263 90.8419322,124.802236 87.6946525,123.186526 C85.8052484,122.216534 83.5141319,121.427934 82.6032724,121.434041 C81.6923899,121.43865 80.9435464,120.906963 80.9391247,120.249194 C80.9345187,119.591401 82.0067494,119.046002 83.3214169,119.037176 C84.8828278,119.027957 85.7063806,118.223802 85.6963165,116.721938 C85.6778925,113.797879 79.5488497,111.695284 73.4610766,112.52373 C71.0222688,112.855634 67.7220929,112.640802 66.1273576,112.046247 C63.4091959,111.032928 63.1806922,111.273502 62.4743161,115.892455 C61.7896803,120.369285 62.0580719,121.103704 65.4109404,123.928597 C69.2288537,127.14529 69.1381846,128.700596 65.131172,128.72749 C63.5679417,128.736709 63.0309742,128.160913 63.4835137,126.956707 C63.9309175,125.766213 63.1972047,124.936661 61.2838494,124.469779 C59.5753689,124.052836 58.6514053,123.134558 59.0018989,122.201831 C59.3258619,121.339807 58.9880809,120.267077 58.2507064,119.818009 C57.2750865,119.223661 57.2965274,118.529733 58.3294689,117.267083 C60.494381,114.620841 56.3436842,112.048736 51.9804206,113.332726 C47.7899049,114.565877 47.6341991,113.022139 51.6777603,110.331902 C53.5350146,109.096262 56.5404295,108.412589 59.3158899,108.594396 C61.9670343,108.768161 64.7474922,108.17379 65.9260063,107.181627 C67.0447576,106.239727 69.771095,105.612977 71.9844622,105.788839 C77.1988685,106.203131 80.8367793,104.983969 80.8223165,102.827032 C80.8084985,100.907719 77.7488019,100.508314 76.6679349,102.284905 C76.2707365,102.937789 74.8547831,103.028866 73.3852158,102.496003 C71.9354083,101.970355 69.3496921,102.118377 67.4950862,102.833162 C63.5980879,104.335071 61.924544,103.256165 64.0746247,100.628013 C65.7412366,98.5908215 65.7305047,98.5675915 62.255439,96.69195 C60.0104977,95.4802775 60.1053352,95.3070432 63.7313625,93.9965969 C66.5842728,92.9655334 67.6015309,91.8698959 67.5879432,89.8428213 C67.5718222,87.5159224 66.9482159,87.0936565 63.5582,87.1164026 C61.3519951,87.13023 57.9187289,86.3146205 55.9287067,85.3016939 C53.9386844,84.2888134 51.9756534,83.7996459 51.5664103,84.2147215 C51.1571672,84.6297742 50.8183959,84.3801895 50.8135596,83.6601043 C50.8020446,81.7974376 38.0302058,80.4555109 36.0645954,82.1103287 C34.9701407,83.0317409 34.1200804,83.051952 33.2344848,82.1773916 C32.3489122,81.3030387 32.1516833,81.8517562 32.5778535,84.0043145 C33.2969422,87.6361748 31.2657883,88.07826 27.0963221,85.1973892 C24.7702001,83.5901837 23.5572561,83.5158384 19.3571369,84.7230631 C16.6177416,85.5104647 14.107011,86.0863761 13.7777742,86.0029047 C13.4485373,85.9194793 1.75299748,86.9965651 -7.95807864e-12,87.6770347 L-7.95807864e-12,-1.13686838e-13 L1920,-1.13686838e-13 L1920,102.833162 C1917.14023,102.384439 1909.54721,100.446528 1907.44415,98.8866589 C1904.17728,96.4635443 1902.25989,96.0572721 1894.27806,96.0969107 C1883.04804,96.1526812 1879.58324,95.3791531 1879.44064,92.7843022 C1879.37316,91.5447675 1879.11654,91.3789999 1878.74016,92.3305098 C1878.41426,93.1549458 1876.98246,93.8925457 1875.55886,93.9695874 C1874.13506,94.04656 1875.9346,95.0422253 1879.55761,96.1819953 C1887.16271,98.5744591 1888.42492,101.455929 1881.9852,101.723674 C1873.16669,102.090307 1872.42718,102.271585 1872.43922,104.063616 C1872.45074,105.066587 1871.16237,106.387542 1869.58698,106.999059 C1868.01157,107.610599 1866.37342,108.684712 1865.94686,109.385969 C1864.6978,111.438878 1860.49282,110.994488 1861.2825,108.893045 C1861.65439,107.903833 1861.33086,107.098663 1860.56491,107.103802 C1859.7984,107.108411 1859.50827,106.559371 1859.92009,105.882496 C1860.3318,105.205622 1860.22586,104.731849 1859.68472,104.829678 C1859.14347,104.927622 1857.8934,104.940988 1856.90682,104.859637 C1855.31241,104.728046 1855.3114,104.579148 1856.89531,103.518425 C1858.36467,102.536057 1858.25772,102.362085 1856.29109,102.534282 C1854.97725,102.64928 1851.7502,102.66426 1849.12017,102.567699 C1845.68034,102.441408 1844.82591,102.0786 1846.0762,101.275458 C1847.33403,100.467408 1846.73901,100.196736 1843.92244,100.29581 C1841.78182,100.371169 1839.48659,99.8954603 1838.82139,99.2388429 C1838.15644,98.5822025 1836.28168,98.3087425 1834.65544,98.6311745 C1832.4117,99.0760252 1831.87291,99.7543516 1832.42126,101.443899 C1833.05394,103.392941 1832.64995,103.588115 1829.17926,103.010222 C1826.99861,102.647137 1824.54085,102.148936 1823.71746,101.90313 C1822.89405,101.657325 1822.22572,102.24658 1822.23223,103.212609 C1822.24375,104.178637 1821.67445,104.972861 1820.97834,104.977516 C1820.28212,104.982125 1820.03236,104.460532 1820.42316,103.818226 C1820.86093,103.098602 1819.05163,102.875358 1815.70896,103.23653 C1810.93754,103.752039 1810.28238,103.541494 1810.26866,101.488193 C1810.25484,99.3982037 1809.62775,99.2255225 1804.28145,99.8390445 C1800.99717,100.215957 1798.30676,100.034241 1798.30271,99.4354456 C1798.29119,97.9059732 1780.14859,99.2308 1778.09851,100.910738 C1776.82348,101.955559 1776.29178,101.915736 1775.88954,100.74527 C1775.45646,99.4855929 1775.01316,99.4885889 1773.46418,100.761402 C1771.90812,102.040068 1771.7364,102.03585 1772.50494,100.737895 C1773.10701,99.7212811 1772.86559,99.2396034 1771.82905,99.3891007 C1768.25867,99.9039641 1765.92768,99.3061363 1766.68058,98.0686065 C1767.15221,97.2933961 1766.57603,96.8706923 1765.25012,97.019913 C1764.02872,97.1574957 1761.14624,97.1397506 1758.84437,96.9807354 C1754.76917,96.6990942 1754.80042,96.6685356 1760.0318,95.8186572 C1765.10033,94.9952121 1765.16746,94.9363074 1761.22001,94.7779606 C1758.9186,94.6855474 1755.68905,94.3106634 1754.04315,93.9447442 C1751.6965,93.4230131 1751.43944,93.5533594 1752.85201,94.5487713 C1754.44753,95.6730777 1754.44484,95.8216301 1752.82829,95.8486857 C1751.82427,95.8648177 1749.93692,95.1435341 1748.63423,94.2443149 C1746.97729,93.1004889 1744.6517,92.8636485 1740.89295,93.4558762 C1737.93792,93.921445 1733.63477,93.8485054 1731.33018,93.2938651 C1729.02573,92.7391557 1723.96562,91.7189467 1720.08553,91.0267468 C1713.7125,89.8898114 1712.87539,89.9839299 1711.42222,92.0007492 C1710.34589,93.4946621 1710.21342,94.627818 1711.02154,95.4257054 C1713.1275,97.5049784 1712.34897,99.7320665 1709.55994,99.6069284 C1707.51299,99.5152066 1707.37253,99.3514902 1708.97235,98.9223566 C1710.12874,98.6122079 1710.81112,97.9377993 1710.48883,97.4236502 C1710.16653,96.9095243 1707.1122,97.233293 1703.70173,98.142998 C1695.48868,100.333881 1687.49831,100.586969 1682.05204,98.8287681 C1679.6115,98.0409287 1676.39693,97.6280193 1674.90834,97.9112046 C1672.67989,98.3351298 1673.31369,98.9162726 1678.49524,101.200468 C1681.95667,102.726345 1684.79159,104.40619 1684.79507,104.933429 C1684.80659,105.950619 1680.38856,106.505651 1674.94297,106.172411 C1672.37548,106.01524 1671.65834,106.496525 1671.67083,108.367696 C1671.68925,111.015183 1670.28198,111.383269 1666.91872,109.611125 C1665.69735,108.967552 1660.00975,108.384888 1654.27963,108.316304 C1648.5494,108.247858 1642.19639,107.862558 1640.16183,107.460365 L1636.46245,106.729102 L1640.32465,105.097768 C1643.38144,103.806657 1643.90326,103.129091 1642.82693,101.848835 C1640.98499,99.6580207 1644.08476,98.4773677 1649.47705,99.3158846 C1655.03073,100.179498 1656.97419,97.7537795 1653.336,94.4993614 C1648.77353,90.4184331 1639.8041,85.862303 1636.37719,85.8853026 C1634.58396,85.8968254 1631.96755,85.3015556 1630.56274,84.5613055 C1629.15793,83.8210553 1624.48243,83.1342942 1620.17287,83.0351286 C1615.4561,82.9265835 1609.72082,81.8415009 1605.76346,80.3088713 C1602.14798,78.9085469 1597.19169,77.7762667 1594.7498,77.7926522 C1592.30781,77.8087842 1587.7253,77.3111359 1584.56619,76.6861602 C1578.85945,75.5571756 1558.86545,73.7626088 1540.55694,72.7361544 L1530.99173,72.1998585 L1536.68113,74.0122856 C1539.81035,75.0091033 1542.37244,76.1051556 1542.3747,76.4479601 C1542.3747,77.1788767 1529.32816,76.9134366 1527.13368,76.1379727 C1524.91423,75.3536592 1525.30523,73.4875817 1527.71272,73.3746348 C1529.50065,73.2907486 1529.45634,73.1299128 1527.40649,72.264732 C1525.00937,71.2529347 1525.00937,71.2529347 1527.39497,71.077004 C1531.28732,70.790408 1524.82939,68.6330331 1519.68225,68.5004744 C1517.34068,68.4400947 1513.53828,67.7655708 1511.23236,67.0013993 C1508.92655,66.2372277 1502.38663,65.6907686 1496.69914,65.7870996 C1491.01188,65.8834305 1486.96095,65.5833758 1487.69722,65.1205264 C1488.61285,64.5447763 1488.47867,64.1025068 1487.27269,63.720709 C1483.79541,62.6198632 1464.98434,59.4524194 1455.59736,58.3871331 C1450.33439,57.7898583 1442.52878,56.756398 1438.25137,56.0905393 C1433.97408,55.4247036 1427.76895,54.4878047 1424.46239,54.0085468 C1421.15549,53.529312 1417.92383,52.8224781 1417.28046,52.4378227 C1416.63721,52.0531443 1411.53697,51.4074044 1405.94676,51.0028607 C1400.35629,50.5982708 1394.97434,50.0715158 1393.98666,49.8322555 C1391.38148,49.2011497 1374.83933,48.1257002 1361.70203,47.7333706 C1350.77102,47.4069517 1338.74356,46.4683243 1331.20817,45.353628 C1329.23411,45.0616163 1324.92805,44.5552797 1321.63902,44.228446 C1318.34999,43.9015891 1310.00505,42.6569844 1303.09469,41.4626192 C1296.18435,40.268277 1286.91466,39.0205611 1282.49546,38.6899478 C1278.07623,38.3593576 1268.65699,37.3089588 1261.56356,36.3557435 C1244.51321,34.0644963 1241.04641,33.7186499 1228.33768,33.0413605 C1222.4192,32.7259574 1212.73308,31.9869056 1206.81292,31.3990796 C1194.53231,30.1796637 1181.62217,29.2525592 1170.34144,28.7799615 C1166.06741,28.6008966 1160.41488,27.8399745 1157.78037,27.0890081 C1155.09905,26.3246752 1141.15084,25.5382646 1126.09537,25.3025534 C1087.26431,24.6946315 1072.52181,24.1663786 1071.15547,23.3339457 C1070.49354,22.9306464 1069.00283,23.1028898 1067.84306,23.7167113 C1066.68306,24.3305099 1060.3585,25.2503089 1053.78822,25.7607015 C1021.37338,28.2787411 1016.62513,28.5326584 1014.95785,27.837186 C1013.96901,27.4247375 1007.24669,27.5330292 1000.01932,28.077852 C992.791978,28.6226979 977.468968,29.4428013 965.968132,29.900304 C954.467296,30.3578068 944.788847,30.7592394 944.460347,30.792356 C944.13187,30.8255418 939.561843,31.0703791 934.304854,31.3365336 C929.047612,31.6027111 919.908249,32.1893388 913.994951,32.6401353 C908.081653,33.0909548 895.716133,33.8167092 886.515948,34.2529178 C861.258901,35.4504633 852.823289,36.8006172 849.492621,40.1786294 C848.414265,41.2722619 847.07279,41.8873279 846.511549,41.5454223 C845.950308,41.2034936 845.20006,41.4020782 844.844315,41.9869083 C844.488571,42.5716693 847.174767,43.09877 850.813645,43.1582739 C854.774667,43.2230323 857.141966,42.8074266 856.71271,42.1226243 C856.029525,41.0328865 877.248238,41.4223123 887.170115,42.6816202 C891.190323,43.1918745 896.127495,43.3563976 939.52306,44.4262931 C950.235004,44.6903735 959.651441,45.3074215 960.448417,45.7975339 C961.245301,46.2876462 967.275108,46.5633186 973.847754,46.4101571 C981.253235,46.2375449 984.664162,46.503953 982.816511,47.1103077 C981.176775,47.6485164 971.230648,48.257268 960.71416,48.4630198 C934.080266,48.9841286 928.042237,49.4013705 921.887839,51.1458591 C915.148201,53.0562534 847.930335,52.6687404 846.703896,50.712416 C844.657657,47.4484569 811.040122,46.0383612 805.938218,49.002496 C803.666585,50.3222758 803.457104,50.7384576 805.053589,50.7600975 C807.232987,50.789596 808.092098,53.174109 805.928568,53.1886508 C805.250496,53.19326 801.451214,52.1273744 797.485678,50.8201545 C789.964495,48.3408316 785.876325,48.8049945 789.868253,51.6850127 C791.977202,53.2065343 791.96092,53.2824237 789.521927,53.2988092 C788.114288,53.3080274 786.50783,52.5155327 785.95207,51.5371746 C784.65935,49.2616446 770.795014,47.7001618 769.582301,49.6935206 C769.034624,50.5937308 766.560834,50.8068572 762.22995,50.326954 C757.278501,49.7783056 755.205939,50.0427548 753.643814,51.4225685 C752.511245,52.4229352 750.779872,53.5436464 749.796307,53.9130686 C745.914693,55.370938 773.099995,55.2932741 782.066334,53.8208859 C785.446147,53.2658769 785.961328,53.4287637 784.761258,54.6729767 C783.293211,56.1949823 776.052625,57.2428461 765.059439,57.5242338 C761.937493,57.6042023 759.385308,57.9874519 759.38791,58.376025 C759.394819,59.3353013 758.140974,59.490537 745.174739,60.1364381 C738.340495,60.4768688 733.604836,61.249406 733.081756,62.1091941 C732.429431,63.1814172 732.102313,63.1710697 731.726049,62.0663291 C731.210637,60.5529196 708.587854,60.0365351 707.13982,61.5051208 C706.747297,61.9032349 710.146133,62.2145589 714.692785,62.196975 C723.367794,62.1633284 741.070171,64.7150608 742.48449,66.2029127 C742.93901,66.6810644 732.6864,66.7632913 719.700911,66.3856649 C694.939471,65.6655567 691.283504,66.4041014 700.901799,70.1797897 C708.412734,73.1287605 706.826935,74.4682213 697.039254,73.442343 C685.222285,72.2037532 676.024311,72.5125191 674.356754,74.2037491 C672.430088,76.157792 671.060402,75.9693244 671.045501,73.7481822 C671.036289,72.3118604 670.405797,72.1063852 668.350392,72.8692432 C666.874976,73.4168545 660.020971,73.9400374 653.119272,74.0318975 C638.892306,74.221333 636.930127,74.5092887 641.178931,75.7844981 C643.050211,76.3461443 640.019371,76.7033983 633.096714,76.7371602 C621.449799,76.7940831 618.929004,77.5728886 622.366301,80.0527877 C625.442533,82.2721785 623.718945,83.1167334 616.007649,83.168517 C612.215967,83.1938672 607.603588,83.8042781 605.757871,84.5248011 C603.912132,85.2453242 600.034571,86.0468067 597.141013,86.3059092 C594.247432,86.5649887 591.438163,87.4845573 590.898156,88.3493923 C589.097348,91.2334204 589.82452,95.1147501 592.310148,95.8858584 C597.09569,97.3704839 594.512323,98.5943245 584.863743,99.4135983 C572.188009,100.4899 568.204855,99.4274257 566.784365,94.594517 C565.628236,90.6603666 562.260858,89.2057697 558.13082,90.8565084 C553.853297,92.5661288 546.867238,92.1662172 546.854134,90.2109529 C546.840316,88.1910455 544.968645,87.8144561 543.875227,89.6116731 C543.457785,90.2978351 541.105064,89.5139595 538.250956,87.7376218 C534.142818,85.1809115 532.876145,84.9012292 530.467438,86.0190827 C528.363624,86.9953897 526.136255,86.9981091 522.178826,86.028301 C518.340209,85.0884523 515.491421,85.0719055 512.378502,85.9713782 C498.830874,89.8862393 497.842772,89.9105986 494.4201,86.4141548 C492.296135,84.2443813 489.930931,83.1325657 487.344731,83.0882028 C485.208031,83.0515602 483.462334,83.3923597 483.465374,83.845599 C483.467677,84.2987922 481.862233,85.3951211 479.89607,86.2818495 C475.807853,88.1256188 475.200184,90.0931664 478.726261,90.0694985 C480.040928,90.0602803 481.120667,90.6642152 481.125687,91.4107108 C481.130293,92.1571833 482.243932,91.3371951 483.59957,89.5886505 C486.520948,85.8204521 488.589664,86.4941924 487.524066,90.8667867 C486.790008,93.8789257 486.902947,93.9506669 491.226691,93.2187362 C494.785264,92.6162992 495.556769,92.8088458 495.04465,94.1716288 C494.629834,95.2754476 495.830826,96.5459326 498.440078,97.7635509 C502.026794,99.4372892 507.665597,104.227448 506.061857,104.23821 C502.793255,104.261256 492.492305,101.617733 491.84956,100.592431 C491.265382,99.6606249 490.375525,99.6472353 488.799306,100.54657 C486.691532,101.749116 486.686626,101.858837 488.706495,102.621994 C490.238981,103.201017 490.616903,104.145083 490.049444,105.97673 C489.615121,107.378668 489.311816,110.008018 489.375471,111.819731 C489.481409,114.838484 489.123269,115.114709 485.08915,115.125011 C480.1868,115.136534 478.900252,114.48789 476.943578,111.011934 C476.205766,109.70128 475.123171,108.670562 474.537795,108.72147 C473.952418,108.772401 472.753039,108.10274 471.872487,107.233342 C470.991981,106.363967 469.842416,105.922066 469.317884,106.251319 C468.793376,106.580596 467.442505,105.114545 466.31597,102.993421 C465.085454,100.676524 464.487895,100.14917 464.819204,101.672558 C465.251109,103.658427 464.896355,104.087538 463.182946,103.651445 C461.47663,103.217149 461.142396,102.331596 461.664071,99.6271856 C462.191597,96.8924474 461.904528,96.162637 460.30544,96.1733762 C459.190327,96.1802899 457.496724,96.9793066 456.541877,97.9476859 C455.240222,99.2678574 454.041303,99.4233927 451.750278,98.5693199 C450.069733,97.9428463 448.113082,97.7954 447.402169,98.2416795 C446.586791,98.7535701 446.37837,98.3380105 446.837634,97.1158291 C447.349568,95.7535992 446.46084,94.6361836 443.843849,93.3516406 C439.214727,91.0793601 439.291072,91.0731608 439.308828,93.720118 C439.315737,94.9245311 440.807551,96.6495229 442.621348,97.5534204 C446.475211,99.4739779 452.003977,103.405155 450.861919,103.41283 C450.429462,103.415134 451.028656,104.852516 452.193491,106.605693 C454.283947,109.752073 454.276785,109.784498 451.640241,109.113431 C449.812028,108.648116 448.972722,108.964326 448.980437,110.115572 C448.987346,111.040672 447.981926,111.804336 446.747748,111.81261 C444.2644,111.828742 441.379732,109.082089 442.590833,107.8538 C443.014769,107.423814 444.087438,107.66667 444.974484,108.393277 C447.669754,110.601283 446.690357,107.844306 443.512494,104.277872 C440.687588,101.107525 440.34428,101.020389 437.122084,102.656033 C433.944358,104.269115 433.574312,104.197166 431.581572,101.578555 C428.708902,97.8036965 427.385806,98.0563693 427.414755,102.374253 C427.430876,104.766187 428.036403,105.958155 429.231545,105.950112 C430.217552,105.943199 430.893666,106.511736 430.734022,107.212877 C430.574424,107.914019 433.409878,109.674755 437.035099,111.125595 C441.851685,113.053274 443.734019,114.469108 444.025971,116.38395 C444.245677,117.825157 445.015501,119.000395 445.736685,118.995555 C446.457846,118.990946 446.749498,119.289364 446.384772,119.659271 C446.020069,120.029154 443.692934,119.499564 441.213363,118.482259 C438.733769,117.465046 436.507367,116.833202 436.265782,117.078224 C435.533774,117.82064 437.2876,121.444319 438.375399,121.437014 C440.190094,121.425491 449.683474,130.763 448.783899,131.675332 C448.303517,132.162518 446.913817,131.530605 445.695669,130.270998 C440.467582,124.86515 435.767666,121.454529 433.566712,121.469301 C431.957146,121.480824 431.426765,122.055767 431.903509,123.274515 C432.641897,125.162025 430.669584,125.604709 423.086128,125.253631 C418.431443,125.038154 418.155705,126.688156 422.224322,130.410885 C423.877876,131.92388 425.233791,133.611376 425.237475,134.160831 C425.239778,134.710286 424.594455,134.518362 423.800357,133.734325 C423.006283,132.950265 420.613512,132.320496 418.483076,132.334784 C416.352686,132.348611 414.296245,131.860965 413.913233,131.250047 C413.530244,130.639106 411.690562,130.192965 409.825063,130.258576 C405.552653,130.408834 403.691069,129.293608 403.672829,126.572858 C403.663617,125.133978 402.15331,124.000523 399.028761,123.086554 C393.076772,121.345546 392.88104,121.366056 392.896885,123.728745 C392.917612,126.784233 400.273325,132.702109 403.307274,132.103866 C405.248634,131.721101 406.023777,132.274404 406.431547,134.333881 C407.049349,137.454266 405.42707,139.598597 402.433377,139.618693 C397.183781,139.653952 384.690375,132.242279 375.853304,123.850196 C374.592296,122.652673 373.219892,122.018387 372.80351,122.440676 C372.387128,122.862965 372.625258,123.578994 373.33244,124.031819 C374.738283,124.931914 377.890169,130.217347 377.968563,131.806231 C377.995508,132.352437 378.96339,133.481698 380.119381,134.315675 C381.275349,135.149675 382.224691,136.359043 382.228998,137.003193 C382.233604,137.647296 383.615934,138.791975 385.301476,139.546836 C388.976373,141.192666 388.133199,143.302774 383.789027,143.33195 C382.07191,143.343473 379.742495,144.201486 378.612574,145.238657 C377.192452,146.542167 376.303218,146.717752 375.732465,145.807355 L375.747919,145.807655 Z" id="path2987-path" fill="#F3EFE8" fill-rule="nonzero" transform="translate(960.000000, 73.188352) scale(-1, 1) translate(-960.000000, -73.188352) "></path>
        <path d="M1527.45789,130.650046 C1526.74212,128.444782 1521.27629,126.002056 1518.91954,126.834212 C1517.92492,127.185405 1517.90367,128.415699 1518.84055,131.399353 C1520.459,136.552827 1525.8004,138.939437 1527.23798,135.151397 C1527.73625,133.838438 1527.83517,131.812816 1527.45768,130.650046 L1527.45789,130.650046 Z" id="path2987-path" fill="#F3EFE8" fill-rule="nonzero" transform="translate(1522.921147, 131.837687) scale(-1, 1) translate(-1522.921147, -131.837687) "></path>
        <path d="M1523.74781,130.916569 C1523.74321,130.2588 1524.27539,129.384401 1524.93001,128.97345 C1525.58462,128.5625 1526.12382,128.764426 1526.12822,129.422242 C1526.13282,130.080034 1525.60067,130.954433 1524.94604,131.365384 C1524.29144,131.776334 1523.75224,131.574408 1523.74781,130.916569 Z" id="path2987-path" fill="#F3EFE8" fill-rule="nonzero" transform="translate(1524.938016, 130.169417) scale(-1, 1) translate(-1524.938016, -130.169417) "></path>
        <path d="M1482.65095,136.549393 C1482.29799,135.986365 1482.65555,134.093485 1483.44864,132.343028 C1484.64592,129.695817 1485.44181,129.275763 1488.17948,129.846236 C1490.06873,130.239948 1491.46748,130.016544 1491.4628,129.321716 C1491.45359,127.926577 1487.67448,126.536301 1485.29652,127.053169 C1484.40804,127.246292 1483.80035,126.763554 1483.94608,125.980393 C1484.09186,125.197255 1483.14406,124.225465 1481.83997,123.820898 C1480.53587,123.416331 1479.46569,122.607797 1479.46178,122.024142 C1479.45947,121.440487 1477.61652,120.630662 1475.3699,120.224505 C1473.12327,119.818325 1470.17859,118.468194 1468.82611,117.224165 C1465.87175,114.506735 1465.06814,114.400056 1465.08376,116.727439 C1465.09066,117.846791 1464.39956,118.221951 1463.17666,117.761775 C1461.76361,117.230019 1461.37682,117.636637 1461.70935,119.304199 C1461.95773,120.549657 1462.96046,121.587795 1463.93767,121.61114 C1464.91488,121.634647 1465.59069,122.28306 1465.43952,123.05244 C1465.28822,123.821797 1467.31368,125.079906 1469.9403,125.848203 C1472.56689,126.616523 1474.719,127.698126 1474.72271,128.251798 C1474.72501,128.805447 1475.94767,130.461256 1477.43661,131.931317 C1478.92554,133.401423 1480.21368,135.007407 1480.29915,135.500193 C1480.62578,137.383255 1480.79731,137.589883 1482.02706,137.581632 C1482.72319,137.577023 1483.00395,137.112445 1482.65095,136.549393 Z" id="path2987-path" fill="#F3EFE8" fill-rule="nonzero" transform="translate(1476.530204, 126.329543) scale(-1, 1) translate(-1476.530204, -126.329543) "></path>
        <path d="M1461.17973,132.717958 C1461.17513,132.060188 1460.60214,131.525828 1459.90601,131.530506 C1459.20988,131.535115 1458.97634,132.07496 1459.38701,132.730011 C1459.79768,133.385061 1460.37085,133.919421 1460.66071,133.917462 C1460.95058,133.915227 1461.18415,133.37575 1461.17973,132.717958 Z" id="path2987-path" fill="#F3EFE8" fill-rule="nonzero" transform="translate(1460.182071, 132.723972) scale(-1, 1) translate(-1460.182071, -132.723972) "></path>
        <path d="M1745.87768,124.734774 C1747.15078,125.213848 1747.50091,124.988185 1746.92062,124.062578 C1745.57772,121.920552 1742.58923,122.433133 1742.71106,124.784599 C1742.7707,125.935385 1743.07631,126.232674 1743.3903,125.445226 C1743.70429,124.657802 1744.8236,124.338112 1745.87768,124.734774 Z" id="path2987-path" fill="#F3EFE8" fill-rule="nonzero" transform="translate(1744.949862, 124.296347) scale(-1, 1) translate(-1744.949862, -124.296347) "></path>
        <path d="M1562.59973,124.254641 C1563.8194,123.017641 1561.09078,119.039911 1559.03208,119.053739 C1557.48136,119.062957 1557.40886,119.392141 1558.63493,120.850426 C1559.75262,122.179838 1559.77498,122.636811 1558.72267,122.643886 C1557.94603,122.648495 1557.64662,123.189308 1558.05729,123.844382 C1558.89522,125.180939 1561.45806,125.412409 1562.59964,124.254641 L1562.59973,124.254641 Z" id="path2987-path" fill="#F3EFE8" fill-rule="nonzero" transform="translate(1560.343454, 122.026995) scale(-1, 1) translate(-1560.343454, -122.026995) "></path>
        <path d="M1708.60266,121.791358 C1708.23223,121.4256 1707.56839,122.093855 1707.1275,123.276352 C1706.49033,124.985212 1706.62853,125.121642 1707.80104,123.941358 C1708.61238,123.124596 1708.97313,122.157115 1708.60266,121.791358 Z" id="path2987-path" fill="#F3EFE8" fill-rule="nonzero" transform="translate(1707.749748, 123.202225) scale(-1, 1) translate(-1707.749748, -123.202225) "></path>
        <path d="M1775.79356,122.908796 C1775.40083,122.282369 1774.29202,122.078299 1773.32955,122.455303 C1770.86539,123.420572 1771.16098,124.083688 1774.04675,124.064329 C1775.40023,124.055111 1776.18629,123.535247 1775.79356,122.908796 Z" id="path2987-path" fill="#F3EFE8" fill-rule="nonzero" transform="translate(1773.779344, 123.165390) scale(-1, 1) translate(-1773.779344, -123.165390) "></path>
        <path d="M104.382401,110.831502 C103.517394,110.491809 102.486824,110.541219 102.092436,110.9412 C101.69784,111.341273 102.405759,111.619227 103.66527,111.558824 C105.057134,111.491991 105.338399,111.206801 104.382401,110.83141 L104.382401,110.831502 Z" id="path2987-path" fill="#F3EFE8" fill-rule="nonzero" transform="translate(103.463530, 111.086421) scale(-1, 1) translate(-103.463530, -111.086421) "></path>
        <path d="M1756.4563,118.291664 C1756.0565,117.896938 1755.77874,118.605178 1755.8391,119.865592 C1755.90589,121.258449 1756.19088,121.539929 1756.56602,120.583303 C1756.90548,119.717662 1756.8561,118.686414 1756.45617,118.291664 L1756.4563,118.291664 Z" id="path2987-path" fill="#F3EFE8" fill-rule="nonzero" transform="translate(1756.311216, 119.663759) scale(-1, 1) translate(-1756.311216, -119.663759) "></path>
        <path d="M214.18631,109.037374 C211.221267,108.014468 208.524223,106.8564 208.193029,106.463886 C207.861627,106.071395 206.917881,105.700959 206.095825,105.640694 C202.624744,105.386247 202.104289,105.128412 202.7895,104.002147 C203.193999,103.337164 202.745743,103.115211 201.769409,103.497539 C200.811039,103.87293 198.309106,103.305799 196.209208,102.236963 C191.231089,99.7030682 190.456821,100.701683 194.000101,105.086077 C196.982117,108.77592 202.480921,110.307536 214.197433,110.711665 L219.577241,110.897183 L214.18631,109.037374 Z" id="path2987-path" fill="#F3EFE8" fill-rule="nonzero" transform="translate(205.694263, 105.882057) scale(-1, 1) translate(-205.694263, -105.882057) "></path>
        <path d="M1799.13704,118.242946 C1800.37315,116.232349 1800.23309,115.687733 1798.20502,114.619059 C1796.07511,113.496712 1791.04679,114.758025 1791.05789,116.411828 C1791.08737,120.810534 1796.76705,122.097842 1799.13704,118.242946 Z" id="path2987-path" fill="#F3EFE8" fill-rule="nonzero" transform="translate(1795.493133, 117.361603) scale(-1, 1) translate(-1795.493133, -117.361603) "></path>
        <path d="M1417.81254,113.231756 C1417.60158,111.908611 1416.78674,110.191824 1416.00162,109.416636 C1415.21651,108.641449 1414.56945,107.307588 1414.56372,106.452478 C1414.5499,104.326054 1413.75587,104.50233 1411.06726,107.229164 C1408.80415,109.524398 1408.81113,109.58964 1411.64384,112.607379 C1415.1271,116.318194 1418.35653,116.645074 1417.81254,113.231756 Z" id="path2987-path" fill="#F3EFE8" fill-rule="nonzero" transform="translate(1413.655542, 110.303145) scale(-1, 1) translate(-1413.655542, -110.303145) "></path>
        <path d="M1772.5976,115.483203 C1774.04455,115.55234 1775.55219,115.076908 1775.94789,114.426513 C1776.35851,113.751551 1775.14002,113.254202 1773.10905,113.267845 C1768.72172,113.297344 1765.77699,114.382104 1765.7876,115.964973 C1765.79221,116.644889 1766.69556,116.771802 1767.88119,116.259151 C1769.02827,115.763139 1771.15065,115.413951 1772.5976,115.483203 Z" id="path2987-path" fill="#F3EFE8" fill-rule="nonzero" transform="translate(1770.907403, 114.920363) scale(-1, 1) translate(-1770.907403, -114.920363) "></path>
        <path d="M1472.74404,111.915087 C1472.34799,110.902644 1471.45033,110.078139 1470.74923,110.082864 C1469.86534,110.087473 1469.88866,110.853442 1470.82523,112.576821 C1472.32736,115.340804 1473.87525,114.806951 1472.74399,111.915087 L1472.74404,111.915087 Z" id="path2987-path" fill="#F3EFE8" fill-rule="nonzero" transform="translate(1471.618630, 112.236648) scale(-1, 1) translate(-1471.618630, -112.236648) "></path>
        <path d="M158.204597,105.212782 C157.339475,104.873089 156.308928,104.922499 155.914425,105.32248 C155.520036,105.722576 156.22784,106.000483 157.487235,105.940104 C158.879238,105.873271 159.16048,105.588081 158.204597,105.21269 L158.204597,105.212782 Z" id="path2987-path" fill="#F3EFE8" fill-rule="nonzero" transform="translate(157.285619, 105.467699) scale(-1, 1) translate(-157.285619, -105.467699) "></path>
        <path d="M1801.82169,108.512992 L1805.62735,108.365269 L1801.73473,107.144471 C1799.59377,106.473035 1797.82281,105.598014 1797.79925,105.199969 C1797.77552,104.801924 1796.99502,103.484472 1796.06449,102.272292 C1794.55694,100.308501 1794.10576,100.258054 1791.92376,101.809351 C1790.5769,102.766922 1789.87672,103.947068 1790.36776,104.431926 C1790.85883,104.916761 1790.24133,106.069851 1788.99545,106.994351 C1786.80836,108.61732 1786.82964,108.711577 1789.6133,109.729804 C1791.27347,110.33708 1793.66683,110.333969 1795.25616,109.72289 C1796.77411,109.138867 1799.72861,108.594574 1801.82169,108.513361 L1801.82169,108.512992 Z" id="path2987-path" fill="#F3EFE8" fill-rule="nonzero" transform="translate(1796.529987, 105.449429) scale(-1, 1) translate(-1796.529987, -105.449429) "></path>
        <path d="M1755.24154,108.926823 C1757.10805,107.493244 1757.23377,106.877717 1755.96776,105.371913 C1753.95225,102.974609 1748.89626,103.084929 1746.17184,105.585546 C1743.08119,108.422446 1743.46621,109.385133 1747.8995,109.905481 C1750.03763,110.156448 1752.05637,110.428987 1752.38561,110.511121 C1752.71485,110.593164 1754.00001,109.880269 1755.24154,108.926708 L1755.24154,108.926823 Z" id="path2987-path" fill="#F3EFE8" fill-rule="nonzero" transform="translate(1750.479777, 107.078776) scale(-1, 1) translate(-1750.479777, -107.078776) "></path>
        <path d="M1310.06892,104.829971 C1310.0551,102.772222 1306.36908,101.435389 1303.64804,102.501274 C1299.78764,104.013462 1301.72552,106.599418 1306.69415,106.56607 C1308.83658,106.552243 1310.0762,105.913993 1310.06892,104.829971 Z" id="path2987-path" fill="#F3EFE8" fill-rule="nonzero" transform="translate(1305.836350, 104.346067) scale(-1, 1) translate(-1305.836350, -104.346067) "></path>
        <path d="M1765.55681,107.008225 C1764.43387,105.899474 1763.79642,105.903738 1762.68845,107.026661 C1761.58046,108.150392 1761.90129,108.467177 1764.13227,108.452198 C1766.36321,108.43837 1766.67978,108.116146 1765.55681,107.007418 L1765.55681,107.008225 Z" id="path2987-path" fill="#F3EFE8" fill-rule="nonzero" transform="translate(1764.128865, 107.316622) scale(-1, 1) translate(-1764.128865, -107.316622) "></path>
        <path d="M81.4273814,95.8034633 C86.144501,95.7718907 85.3625864,95.1124848 79.5992831,94.2618459 C76.7860765,93.8466089 75.3619244,94.0357678 75.818379,94.7638959 C76.6905941,96.1553477 70.3470269,94.9024004 68.6239684,93.3429687 C67.995687,92.7743166 65.5718947,92.2510185 63.2377583,92.1800839 L58.9938591,92.0512585 L63.1710634,91.1420836 L67.3481525,90.2328856 L63.4253376,90.1017557 C60.8682938,90.0162562 59.2581283,90.6208365 58.8007756,91.8381321 C58.4147007,92.8652318 57.3316459,93.4168762 56.3939794,93.0640008 C55.4495652,92.7086134 55.0182824,92.9476201 55.4271801,93.5997666 C55.8330377,94.247304 58.1505466,94.7948232 60.5769182,94.8164401 C63.0034971,94.8371812 67.1430243,95.2850739 69.775975,95.8098239 C72.4089258,96.3345739 75.2781413,96.5534157 76.1519225,96.2961107 C77.0256115,96.0388057 79.3996821,95.8171524 81.4273814,95.8035324 L81.4273814,95.8034633 Z" id="path2987-path" fill="#F3EFE8" fill-rule="nonzero" transform="translate(69.888574, 93.248907) scale(-1, 1) translate(-69.888574, -93.248907) "></path>
        <path d="M1419.8461,103.725806 C1419.84149,103.068036 1418.89697,102.544393 1417.74669,102.562207 C1415.95937,102.589862 1415.91707,102.761322 1417.45579,103.741869 C1419.72107,105.185335 1419.85589,105.184436 1419.8461,103.725737 L1419.8461,103.725806 Z" id="path2987-path" fill="#F3EFE8" fill-rule="nonzero" transform="translate(1418.098691, 103.691945) scale(-1, 1) translate(-1418.098691, -103.691945) "></path>
        <path d="M1339.79703,101.95606 C1340.19888,101.295547 1340.09214,100.697904 1339.55987,100.627937 C1331.21546,99.5312396 1329.18076,99.988535 1331.63281,102.409552 C1332.87744,103.63844 1338.9797,103.299484 1339.79703,101.95606 Z" id="path2987-path" fill="#F3EFE8" fill-rule="nonzero" transform="translate(1335.351356, 101.617185) scale(-1, 1) translate(-1335.351356, -101.617185) "></path>
        <path d="M1387.51384,99.3364115 C1387.88559,98.3471759 1387.66883,97.5413377 1387.03212,97.5456012 C1386.39539,97.5502103 1385.87986,98.3606576 1385.8865,99.3473352 C1385.8934,100.33399 1386.10989,101.139851 1386.36824,101.138122 C1386.62656,101.135864 1387.14209,100.325624 1387.51384,99.3364115 Z" id="path2987-path" fill="#F3EFE8" fill-rule="nonzero" transform="translate(1386.791051, 99.341855) scale(-1, 1) translate(-1386.791051, -99.341855) "></path>
        <path d="M1717.54473,101.016303 C1720.06285,99.3958693 1717.6532,98.6869613 1711.16595,99.1396706 C1703.30231,99.6884342 1702.45091,102.18859 1710.15362,102.112448 C1713.33068,102.080875 1716.65667,101.58779 1717.54473,101.016303 Z" id="path2987-path" fill="#F3EFE8" fill-rule="nonzero" transform="translate(1711.663006, 100.559793) scale(-1, 1) translate(-1711.663006, -100.559793) "></path>
        <path d="M1729.93191,98.5803059 C1729.925,97.3693248 1728.73686,97.1263542 1722.00588,96.9579364 C1719.47779,96.8947913 1718.46145,97.345726 1718.8563,98.3556567 C1719.5528,100.137157 1729.94377,100.347932 1729.93191,98.580352 L1729.93191,98.5803059 Z" id="path2987-path" fill="#F3EFE8" fill-rule="nonzero" transform="translate(1724.352817, 98.378018) scale(-1, 1) translate(-1724.352817, -98.378018) "></path>
        <path d="M1310.03057,95.8117137 C1310.02597,95.1539209 1309.21582,94.621151 1308.22983,94.6277651 C1307.24383,94.6346788 1306.4407,95.1780037 1306.4451,95.8357733 C1306.44971,96.4935661 1307.25986,97.026336 1308.24586,97.0197219 C1309.23187,97.0128082 1310.03499,96.4694833 1310.03057,95.8117137 Z" id="path2987-path" fill="#F3EFE8" fill-rule="nonzero" transform="translate(1308.237837, 95.823743) scale(-1, 1) translate(-1308.237837, -95.823743) "></path>
        <path d="M1664.65079,96.1934422 C1665.02463,95.7788275 1664.65539,95.2038609 1663.83297,94.9157208 C1663.00933,94.6275807 1662.33033,93.6294034 1662.32409,92.6975284 C1662.3006,89.2127457 1658.27754,91.4780895 1656.99025,95.70091 C1656.16013,98.423941 1656.32026,98.5320022 1660.04265,97.7610091 C1662.2033,97.3134621 1664.27697,96.60808 1664.65079,96.1934422 Z" id="path2987-path" fill="#F3EFE8" fill-rule="nonzero" transform="translate(1660.688395, 94.581411) scale(-1, 1) translate(-1660.688395, -94.581411) "></path>
        <path d="M1767.25596,91.9014386 L1769.97886,90.1136473 L1767.49084,87.8251656 C1765.34847,85.8545759 1764.44132,85.7262576 1760.96094,86.9016562 C1756.80255,88.3060136 1752.84187,91.7597768 1755.40955,91.7425156 C1756.14737,91.7379065 1756.75637,92.5273361 1756.76287,93.4975821 C1756.77668,95.6425814 1762.99944,94.6960955 1767.25596,91.9014386 Z" id="path2987-path" fill="#F3EFE8" fill-rule="nonzero" transform="translate(1762.287126, 90.411213) scale(-1, 1) translate(-1762.287126, -90.411213) "></path>
        <path d="M1809.50234,93.1902911 C1809.09167,92.5352408 1808.2496,92.0026783 1807.63106,92.0068495 C1807.01252,92.0114587 1806.51006,92.5525711 1806.51445,93.2103639 C1806.51906,93.8681335 1807.36094,94.4006961 1808.38576,94.3938285 C1809.41055,94.3869147 1809.91301,93.8453644 1809.50234,93.1902911 Z" id="path2987-path" fill="#F3EFE8" fill-rule="nonzero" transform="translate(1808.080044, 93.200360) scale(-1, 1) translate(-1808.080044, -93.200360) "></path>
        <path d="M1780.24831,86.2195042 C1782.01734,85.3103753 1784.2664,84.5611374 1785.24626,84.5545693 C1788.95821,84.52968 1788.27185,82.1424476 1784.05538,80.4126853 C1778.57055,78.1625516 1778.75949,78.1397824 1778.779,81.0484463 C1778.79742,83.7525107 1774.14071,86.2405679 1772.28836,84.5166131 C1770.57131,82.9185568 1769.23205,83.2457363 1769.24557,85.2599975 C1769.25248,86.2466981 1768.48261,87.0591734 1767.53538,87.065534 C1766.58818,87.0724477 1765.46927,87.6423903 1765.04893,88.3333227 C1763.9998,90.0577845 1776.03723,88.3837927 1780.24831,86.2195042 Z" id="path2987-path" fill="#F3EFE8" fill-rule="nonzero" transform="translate(1776.324950, 83.918136) scale(-1, 1) translate(-1776.324950, -83.918136) "></path>
        <path d="M1740.7109,83.2002672 C1743.71472,81.887839 1746.17027,80.4940826 1746.16765,80.1029744 C1746.16542,79.7119123 1745.60383,79.7428627 1744.92055,80.1716505 C1744.23725,80.6005997 1742.92954,80.3382708 1742.01447,79.5885949 C1740.74507,78.5486819 1739.50148,78.672368 1736.76768,80.1103721 C1734.797,81.1469666 1732.8027,82.6228577 1732.3359,83.3901174 C1731.80821,84.2574875 1732.00694,84.4588606 1732.86128,83.9225186 C1733.61704,83.4480773 1734.23922,83.6298386 1734.24389,84.3264632 C1734.25541,85.9935874 1734.35835,85.9756118 1740.7109,83.2001058 L1740.7109,83.2002672 Z" id="path2987-path" fill="#F3EFE8" fill-rule="nonzero" transform="translate(1739.106286, 82.180829) scale(-1, 1) translate(-1739.106286, -82.180829) "></path>
        <path d="M1762.91235,81.5778055 C1763.34879,80.4164878 1762.99249,80.0646725 1761.83791,80.5169439 C1759.95237,81.2555578 1759.47395,83.3340012 1761.19212,83.3224784 C1761.77914,83.3178692 1762.55324,82.5334175 1762.91235,81.5778055 Z" id="path2987-path" fill="#F3EFE8" fill-rule="nonzero" transform="translate(1761.611778, 81.824400) scale(-1, 1) translate(-1761.611778, -81.824400) "></path>
        <path d="M1143.2098,64.0029426 C1142.3859,63.676685 1141.04134,63.6857189 1140.22189,64.0236838 C1139.40246,64.3609803 1140.07657,64.6279414 1141.71987,64.6169025 C1143.36323,64.6053797 1144.03368,64.3298916 1143.2098,64.003634 L1143.2098,64.0029426 Z" id="path2987-path" fill="#F3EFE8" fill-rule="nonzero" transform="translate(1141.717642, 64.190669) scale(-1, 1) translate(-1141.717642, -64.190669) "></path>
        <path d="M1028.16401,61.8635434 C1028.40074,61.1234546 1027.36017,60.1833984 1025.85157,59.7745681 C1021.97327,58.7235931 1003.35006,58.2715522 1002.77646,59.214466 C1002.19849,60.164501 997.757251,59.9628283 996.720809,58.9394389 C995.736254,57.9673493 992.631879,59.2216793 992.641045,60.5878961 C992.645651,61.178142 997.623102,61.6253433 1003.70346,61.5816487 C1018.8014,61.4735645 1018.79925,61.4735645 1019.63676,62.8090614 C1020.61356,64.3671104 1027.61083,63.5912316 1028.16401,61.8635434 Z" id="path2987-path" fill="#F3EFE8" fill-rule="nonzero" transform="translate(1010.419308, 61.122439) scale(-1, 1) translate(-1010.419308, -61.122439) "></path>
        <path d="M1052.045,56.696265 C1052.04269,56.2029262 1051.77006,55.8011018 1051.4414,55.8033142 C1046.68361,55.8353477 1046.63463,55.855167 1048.46153,57.0182131 C1050.41984,58.2648459 1052.05453,58.1179758 1052.045,56.696265 Z" id="path2987-path" fill="#F3EFE8" fill-rule="nonzero" transform="translate(1049.695983, 56.834443) scale(-1, 1) translate(-1049.695983, -56.834443) "></path>
        <path d="M8.157641,44.7390853 C8.157641,44.4868503 6.82445738,44.0353395 5.19911518,43.7356996 C3.57356571,43.4360367 2.53108976,43.6492783 2.8824124,44.2098413 C3.50102121,45.1966572 8.16381304,45.6644613 8.157641,44.7390853 Z" id="path2987-path" fill="#F3EFE8" fill-rule="nonzero" transform="translate(5.485962, 44.419217) scale(-1, 1) translate(-5.485962, -44.419217) "></path>
        <path d="M1870.1931,158.720878 C1870.18388,157.228947 1871.36806,155.681107 1873.15517,154.851762 C1874.7935,154.091462 1876.13583,153.750455 1876.13813,154.093928 C1876.14036,154.437447 1874.8075,156.178548 1873.17603,157.963044 C1870.40674,160.992144 1870.20866,161.042476 1870.1931,158.720878 Z" id="path2987-path" fill="#F3EFE8" fill-rule="nonzero" transform="translate(1873.165587, 157.160042) scale(-1, 1) translate(-1873.165587, -157.160042) "></path>
        <path d="M1712.40148,158.425317 C1712.39688,157.728715 1712.93083,157.155154 1713.58817,157.15073 C1714.2455,157.146121 1714.78491,157.380034 1714.78684,157.67011 C1714.7891,157.960186 1714.2548,158.533747 1713.6002,158.944697 C1712.94557,159.355625 1712.40616,159.121919 1712.40148,158.425317 Z" id="path2987-path" fill="#F3EFE8" fill-rule="nonzero" transform="translate(1713.594151, 158.149072) scale(-1, 1) translate(-1713.594151, -158.149072) "></path>
        <path d="M1735.88178,156.217334 C1734.94515,154.493955 1734.92185,153.729276 1735.80555,153.723354 C1737.25444,153.714135 1738.85491,157.057141 1737.87641,158.049557 C1737.52219,158.408793 1736.62452,157.584311 1735.8816,156.217334 L1735.88178,156.217334 Z" id="path2987-path" fill="#F3EFE8" fill-rule="nonzero" transform="translate(1736.668791, 155.928524) scale(-1, 1) translate(-1736.668791, -155.928524) "></path>
        <path d="M1469.65773,155.950142 C1468.5729,155.669584 1467.43524,154.508635 1467.12956,153.370202 C1466.45119,150.843704 1468.59468,144.752041 1469.4114,146.885425 C1469.72539,147.705598 1470.74419,148.371503 1471.67538,148.365257 C1472.60663,148.358343 1473.37371,149.124912 1473.38002,150.067249 C1473.38693,151.009587 1474.56266,152.143918 1475.99404,152.587985 L1478.59652,153.395345 L1475.71153,155.020134 C1474.12479,155.913776 1472.55734,156.603372 1472.22831,156.552579 C1471.89928,156.501879 1470.74251,156.2307 1469.65773,155.950142 Z" id="path2987-path" fill="#F3EFE8" fill-rule="nonzero" transform="translate(1472.797700, 151.497733) scale(-1, 1) translate(-1472.797700, -151.497733) "></path>
        <path d="M150.591517,147.154437 C150.236717,146.804189 146.244973,146.394944 141.720937,146.245009 C132.861734,145.95143 126.308433,143.624831 126.289318,140.766499 C126.277803,139.523254 127.839075,138.865876 131.470745,138.580317 C134.762814,138.321468 136.392648,138.618112 135.922789,139.39058 C135.05138,140.822914 145.948877,144.233836 151.329813,144.212933 C153.346941,144.20602 157.957662,144.543662 161.576067,144.965259 C166.9208,145.588023 167.595418,145.895729 165.172662,146.605535 C161.564828,147.662548 151.490171,148.041788 150.591517,147.154437 Z" id="path2987-path" fill="#F3EFE8" fill-rule="nonzero" transform="translate(146.400441, 143.069264) scale(-1, 1) translate(-146.400441, -143.069264) "></path>
        <path d="M234.521967,146.515219 C234.916448,146.115123 235.947133,146.065737 236.812139,146.405292 C237.768138,146.780683 237.486872,147.065965 236.094778,147.132705 C234.835498,147.193085 234.127578,146.915154 234.521967,146.515081 L234.521967,146.515219 Z" id="path2987-path" fill="#F3EFE8" fill-rule="nonzero" transform="translate(235.893205, 146.660312) scale(-1, 1) translate(-235.893205, -146.660312) "></path>
        <path d="M1822.0628,155.23621 C1822.33119,154.412143 1824.2524,153.672653 1826.33217,153.592915 C1829.37786,153.476074 1829.85516,153.763914 1828.78537,155.07148 C1827.08398,157.151145 1821.39375,157.290571 1822.0628,155.236256 L1822.0628,155.23621 Z" id="path2987-path" fill="#F3EFE8" fill-rule="nonzero" transform="translate(1825.656141, 155.137710) scale(-1, 1) translate(-1825.656141, -155.137710) "></path>
        <path d="M1816.80738,153.465058 C1816.79587,151.787678 1821.16802,149.765904 1826.67553,148.901599 C1832.25416,148.026117 1835.27424,148.770469 1834.08364,150.727462 C1833.69798,151.361379 1832.53383,151.276226 1831.31327,150.524891 C1829.68972,149.525353 1827.94207,149.816305 1823.67394,151.796689 C1817.59073,154.619277 1816.81637,154.807445 1816.80738,153.46515 L1816.80738,153.465058 Z" id="path2987-path" fill="#F3EFE8" fill-rule="nonzero" transform="translate(1825.574181, 151.405092) scale(-1, 1) translate(-1825.574181, -151.405092) "></path>
        <path d="M1456.67831,150.72813 C1456.6737,150.031529 1457.20763,149.457968 1457.86497,149.453566 C1458.52232,149.448957 1459.0617,149.682871 1459.06366,149.972924 C1459.0659,150.262999 1458.5316,150.83656 1457.877,151.247511 C1457.22239,151.658461 1456.68298,151.424732 1456.67831,150.72813 Z" id="path2987-path" fill="#F3EFE8" fill-rule="nonzero" transform="translate(1457.870974, 150.451902) scale(-1, 1) translate(-1457.870974, -150.451902) "></path>
        <path d="M1777.41993,151.612278 C1777.41533,150.954485 1776.59364,150.421784 1775.59354,150.42849 C1774.59346,150.435404 1773.14437,149.079535 1772.37337,147.415891 C1771.23235,144.953875 1771.31933,144.038339 1772.84076,142.495293 C1774.54164,140.770278 1774.78185,140.820979 1775.5081,143.058529 C1776.02033,144.636766 1776.95687,145.262687 1778.12274,144.805991 C1779.32767,144.333992 1779.81257,144.705051 1779.56297,145.90868 C1779.35593,146.906512 1780.53875,148.837486 1782.19129,150.199716 L1785.19592,152.676481 L1781.31193,152.742392 C1779.17574,152.778573 1777.42433,152.270024 1777.41993,151.612255 L1777.41993,151.612278 Z" id="path2987-path" fill="#F3EFE8" fill-rule="nonzero" transform="translate(1778.396857, 147.013108) scale(-1, 1) translate(-1778.396857, -147.013108) "></path>
        <path d="M1583.24891,149.589789 C1582.80775,149.154249 1582.44017,147.81117 1582.43209,146.605236 C1582.42057,144.955603 1583.32526,144.40654 1586.08338,144.388011 C1589.20551,144.36727 1589.63447,144.009279 1588.97468,141.976558 C1588.09714,139.272839 1589.45515,138.855482 1591.95868,141.059501 C1593.36848,142.300603 1593.41042,142.235384 1592.2153,140.66065 C1591.09754,139.187824 1591.15293,138.276344 1592.46978,136.472859 C1594.12485,134.206155 1594.18381,134.2074 1595.99763,136.547296 C1598.5293,139.813214 1598.39031,140.558373 1594.95193,142.154056 C1593.31362,142.914356 1591.97761,144.195419 1591.983,145.000865 C1591.99221,146.478554 1587.01119,150.361911 1585.08903,150.374817 C1584.51814,150.377122 1583.69005,150.025399 1583.24891,149.589812 L1583.24891,149.589789 Z" id="path2987-path" fill="#F3EFE8" fill-rule="nonzero" transform="translate(1590.083821, 142.578657) scale(-1, 1) translate(-1590.083821, -142.578657) "></path>
        <path d="M1838.8315,149.592094 C1838.38755,148.883946 1836.7406,148.636159 1835.17164,149.04144 C1832.78285,149.658465 1832.31594,149.331009 1832.30051,147.027801 C1832.2867,145.041472 1833.32424,143.875637 1836.03315,142.831599 C1840.2153,141.219784 1842.04451,141.72748 1841.10097,144.238238 C1840.02821,147.092836 1844.40091,148.405357 1849.93058,146.888536 C1855.40115,145.38794 1856.64403,145.814769 1855.51929,148.807757 C1854.94032,150.348361 1853.12831,150.789017 1847.20878,150.828771 C1843.04521,150.856656 1839.27542,150.300218 1838.8315,149.592094 Z" id="path2987-path" fill="#F3EFE8" fill-rule="nonzero" transform="translate(1844.099211, 146.367786) scale(-1, 1) translate(-1844.099211, -146.367786) "></path>
        <path d="M1860.76469,146.571405 C1860.76008,145.948042 1862.15105,144.123885 1863.85472,142.517693 C1866.55558,139.971446 1866.89947,139.885808 1866.53946,141.849277 C1866.1091,144.196456 1860.778,148.555776 1860.76469,146.571405 Z" id="path2987-path" fill="#F3EFE8" fill-rule="nonzero" transform="translate(1863.711280, 143.777854) scale(-1, 1) translate(-1863.711280, -143.777854) "></path>
        <path d="M244.15935,134.115194 C243.232162,133.550414 242.083518,133.333323 241.606475,133.632756 C241.129431,133.932211 240.397676,133.632986 239.980464,132.966736 C239.563023,132.301015 239.926574,131.743333 240.786008,131.727501 C241.940363,131.70676 241.88774,131.410231 240.584726,130.597848 C238.141496,129.074505 239.790674,127.768023 242.928097,128.741357 C244.344834,129.180884 245.204889,129.843793 244.839403,130.214506 C244.473802,130.585219 245.059109,131.526404 246.139515,132.306062 C248.445786,133.969868 246.635443,135.623718 244.159373,134.115194 L244.15935,134.115194 Z" id="path2987-path" fill="#F3EFE8" fill-rule="nonzero" transform="translate(243.305662, 131.556915) scale(-1, 1) translate(-243.305662, -131.556915) "></path>
        <path d="M1436.83476,136.093089 C1436.39678,135.394459 1436.32348,134.533727 1436.67194,134.180367 C1437.52233,133.317952 1439.86342,134.811773 1439.87288,136.222859 C1439.88209,137.751272 1437.81911,137.663099 1436.83483,136.093112 L1436.83476,136.093089 Z" id="path2987-path" fill="#F3EFE8" fill-rule="nonzero" transform="translate(1438.162362, 135.623677) scale(-1, 1) translate(-1438.162362, -135.623677) "></path>
        <path d="M178.2754,128.151872 C174.733593,127.31188 175.941033,125.440594 180.049746,125.401993 C182.185963,125.381252 186.889909,125.038101 190.502694,124.637913 L197.071518,123.910315 L194.158661,126.304853 C191.366135,128.60041 183.851331,129.474302 178.2754,128.151872 Z" id="path2987-path" fill="#F3EFE8" fill-rule="nonzero" transform="translate(186.628923, 126.341200) scale(-1, 1) translate(-186.628923, -126.341200) "></path>
        <path d="M1432.88747,133.822883 C1432.88286,133.126281 1433.41681,132.55272 1434.07416,132.548318 C1434.73148,132.543709 1435.27089,132.777623 1435.27284,133.067676 C1435.27508,133.357752 1434.74078,133.931313 1434.08618,134.342263 C1433.43155,134.753214 1432.89214,134.519484 1432.88747,133.822883 Z" id="path2987-path" fill="#F3EFE8" fill-rule="nonzero" transform="translate(1434.080144, 133.546654) scale(-1, 1) translate(-1434.080144, -133.546654) "></path>
        <path d="M1.11502993,123.770981 C1.10351493,122.803869 2.71282825,121.43892 4.68025806,120.737755 C6.64768786,120.036591 8.25872843,119.667399 8.26040962,119.917283 C8.26040962,120.167144 6.65779803,121.532094 4.69508938,122.950486 C1.91437817,124.960092 1.12426496,125.141208 1.11502993,123.770981 Z" id="path2987-path" fill="#F3EFE8" fill-rule="nonzero" transform="translate(4.687689, 122.247602) scale(-1, 1) translate(-4.687689, -122.247602) "></path>
        <path d="M87.6471725,123.514736 C85.1148859,122.061453 84.9250496,119.639721 87.193873,117.729672 C89.2211117,116.022817 96.2299695,113.850878 96.0829921,114.975046 C95.5992009,118.671157 96.5472308,119.962729 99.7278349,119.941366 C104.374874,119.910254 106.98286,122.903657 103.212965,123.941634 C99.0083317,125.099242 89.9766108,124.851547 87.6471725,123.514736 Z" id="path2987-path" fill="#F3EFE8" fill-rule="nonzero" transform="translate(95.314816, 119.673012) scale(-1, 1) translate(-95.314816, -119.673012) "></path>
        <path d="M55.4948659,120.923688 C55.0842871,120.268638 55.8874583,119.725036 57.2795527,119.71568 C58.6718774,119.706461 59.4821418,120.239093 59.0803374,120.899605 C58.6786251,121.560117 57.8754769,122.103742 57.2956507,122.107636 C56.7159165,122.109941 55.9055599,121.578738 55.4948659,120.923688 Z" id="path2987-path" fill="#F3EFE8" fill-rule="nonzero" transform="translate(57.285385, 120.911603) scale(-1, 1) translate(-57.285385, -120.911603) "></path>
        <path d="M1653.72067,129.273251 C1652.39716,127.966515 1651.31128,126.442597 1651.30754,125.886758 C1651.30524,125.33092 1652.36987,123.894829 1653.67655,122.695439 C1654.98325,121.496027 1656.04749,119.790855 1656.04155,118.906108 C1656.03003,117.051623 1657.1179,116.881453 1659.49616,118.366148 C1660.47563,118.977619 1660.90343,120.453349 1660.52866,121.927811 C1660.1767,123.312464 1660.37206,124.739844 1660.96285,125.099749 C1662.17176,125.836219 1658.8253,131.631031 1657.18471,131.642047 C1656.60299,131.644352 1655.04416,130.58001 1653.72067,129.273251 Z" id="path2987-path" fill="#F3EFE8" fill-rule="nonzero" transform="translate(1656.264052, 124.505912) scale(-1, 1) translate(-1656.264052, -124.505912) "></path>
        <path d="M1903.78531,133.056488 C1904.21558,131.244614 1905.13952,129.38363 1905.83848,128.920965 C1906.61065,128.409835 1906.18248,127.781057 1904.74729,127.318507 C1898.91191,125.43791 1898.80392,125.274194 1902.60456,124.069965 C1905.07766,123.286343 1906.54916,121.969375 1906.79102,120.323084 C1906.99622,118.926862 1907.82445,117.914627 1908.6316,118.073665 C1910.38713,118.419534 1910.5877,115.227754 1908.87595,114.184937 C1907.39332,113.281708 1907.26238,110.009706 1908.70852,110.000004 C1909.28918,109.997699 1910.03063,110.984884 1910.35616,112.197317 C1910.82171,113.931135 1911.77338,114.274839 1914.81403,113.807403 C1918.42428,113.252371 1918.59274,113.378823 1917.36101,115.719549 C1916.63559,117.098095 1916.11584,118.650982 1916.20605,119.170385 C1916.76437,122.385119 1915.74617,124.35216 1913.18086,125.014792 C1911.56719,125.431619 1909.55833,126.632552 1908.7167,127.683527 C1907.41069,129.314447 1907.49219,129.477449 1909.27276,128.796034 C1912.34275,127.621143 1911.82706,129.424351 1908.04102,133.103156 C1903.81992,137.204687 1902.80289,137.193533 1903.78533,133.056373 L1903.78531,133.056488 Z" id="path2987-path" fill="#F3EFE8" fill-rule="nonzero" transform="translate(1909.032493, 123.084656) scale(-1, 1) translate(-1909.032493, -123.084656) "></path>
        <path d="M1301.82448,125.697899 C1300.83923,124.126345 1302.2533,121.877226 1303.6801,122.746463 C1305.13776,123.634505 1305.15004,126.871592 1303.69622,126.881341 C1303.07766,126.88595 1302.23559,126.352973 1301.82492,125.697899 L1301.82448,125.697899 Z" id="path2987-path" fill="#F3EFE8" fill-rule="nonzero" transform="translate(1303.138179, 124.717123) scale(-1, 1) translate(-1303.138179, -124.717123) "></path>
        <path d="M1591.27825,126.057366 C1591.27364,125.180293 1592.05116,124.457466 1593.00886,124.451036 C1593.96659,124.444122 1595.03016,125.155081 1595.37236,126.029872 C1595.76099,127.023348 1595.11141,127.626315 1593.64175,127.636179 C1592.34772,127.645397 1591.28415,126.934392 1591.27825,126.057366 Z" id="path2987-path" fill="#F3EFE8" fill-rule="nonzero" transform="translate(1593.380587, 126.043627) scale(-1, 1) translate(-1593.380587, -126.043627) "></path>
        <path d="M140.207455,116.642193 C136.553401,115.204673 137.185735,111.466019 141.164789,110.981391 C143.13975,110.740795 144.661526,111.450601 145.69129,113.092675 C148.345152,117.325267 145.92509,118.891728 140.207455,116.642193 Z" id="path2987-path" fill="#F3EFE8" fill-rule="nonzero" transform="translate(142.279662, 114.302023) scale(-1, 1) translate(-142.279662, -114.302023) "></path>
        <path d="M1886.74399,126.540265 C1883.96475,124.542228 1884.53748,122.500842 1887.8836,122.478372 C1889.52695,122.466849 1890.87485,122.959082 1890.87895,123.571106 C1890.88356,124.183153 1892.05553,124.848044 1893.48445,125.048656 C1894.9134,125.249154 1896.30954,126.087924 1896.58701,126.912337 C1897.21614,128.781526 1889.4534,128.488085 1886.74399,126.540265 Z" id="path2987-path" fill="#F3EFE8" fill-rule="nonzero" transform="translate(1890.797614, 125.323345) scale(-1, 1) translate(-1890.797614, -125.323345) "></path>
        <path d="M1878.96066,122.921932 C1880.15237,121.691524 1881.76993,121.182422 1883.00761,121.648175 C1885.53351,122.598717 1885.14394,122.988626 1880.55528,124.102539 C1877.19465,124.918356 1877.097,124.846062 1878.96066,122.921932 Z" id="path2987-path" fill="#F3EFE8" fill-rule="nonzero" transform="translate(1881.151952, 123.036308) scale(-1, 1) translate(-1881.151952, -123.036308) "></path>
        <path d="M1428.65873,119.376747 C1428.65413,118.718954 1429.48917,118.175145 1430.51396,118.168255 C1431.53877,118.161341 1432.04845,118.696162 1431.6466,119.356674 C1431.24477,120.017186 1430.40989,120.560995 1429.79135,120.565166 C1429.17283,120.569775 1428.66313,120.03454 1428.65873,119.376747 Z" id="path2987-path" fill="#F3EFE8" fill-rule="nonzero" transform="translate(1430.221381, 119.366692) scale(-1, 1) translate(-1430.221381, -119.366692) "></path>
        <path d="M300.532698,111.833321 C300.532698,111.175528 302.541513,110.632042 305.006667,110.625543 C308.340444,110.616325 309.03139,110.913845 307.703618,111.785156 C305.358312,113.324284 300.542924,113.356617 300.532698,111.833321 Z" id="path2987-path" fill="#F3EFE8" fill-rule="nonzero" transform="translate(304.435322, 111.791591) scale(-1, 1) translate(-304.435322, -111.791591) "></path>
        <path d="M1363.58274,117.133412 C1364.39443,116.141226 1365.24472,115.328198 1365.47228,115.326677 C1365.69982,115.325547 1365.58191,116.133252 1365.21011,117.122465 C1364.83834,118.111678 1363.98807,118.924706 1363.32057,118.9292 C1362.62103,118.933809 1362.73208,118.173186 1363.58274,117.133412 Z" id="path2987-path" fill="#F3EFE8" fill-rule="nonzero" transform="translate(1364.225057, 117.127948) scale(-1, 1) translate(-1364.225057, -117.127948) "></path>
        <path d="M1319.39457,116.266572 C1317.47159,115.454926 1317.88385,115.232189 1321.47865,115.140629 C1323.94334,115.077714 1325.96353,115.564646 1325.96793,116.222439 C1325.97714,117.65058 1322.72535,117.672404 1319.39457,116.266456 L1319.39457,116.266572 Z" id="path2987-path" fill="#F3EFE8" fill-rule="nonzero" transform="translate(1322.114125, 116.221265) scale(-1, 1) translate(-1322.114125, -116.221265) "></path>
        <path d="M267.953146,109.184566 C266.50449,108.261564 266.692069,108.03007 268.912069,108.000433 C270.450818,107.979692 271.348343,108.494832 270.941012,109.164517 C270.062394,110.608628 270.186549,110.607798 267.953146,109.185258 L267.953146,109.184566 Z" id="path2987-path" fill="#F3EFE8" fill-rule="nonzero" transform="translate(269.031072, 109.124861) scale(-1, 1) translate(-269.031072, -109.124861) "></path>
        <path d="M1645.74138,117.909936 C1645.73913,117.619837 1646.27345,117.046299 1646.92805,116.635348 C1647.58265,116.224398 1648.12206,116.458127 1648.12674,117.154706 C1648.13134,117.851307 1647.59742,118.424868 1646.94009,118.429293 C1646.28275,118.433902 1645.74334,118.199989 1645.74138,117.909936 Z" id="path2987-path" fill="#F3EFE8" fill-rule="nonzero" transform="translate(1646.934072, 117.430957) scale(-1, 1) translate(-1646.934072, -117.430957) "></path>
        <path d="M1278.18006,114.913675 C1278.17085,113.418587 1281.53622,112.256877 1282.3086,113.488876 C1282.65829,114.046674 1282.09903,114.834237 1281.06565,115.239034 C1278.56674,116.217899 1278.18851,116.175265 1278.18006,114.913675 Z" id="path2987-path" fill="#F3EFE8" fill-rule="nonzero" transform="translate(1280.296438, 114.446403) scale(-1, 1) translate(-1280.296438, -114.446403) "></path>
        <path d="M1648.21499,115.47357 C1648.20808,114.223434 1647.69534,113.237794 1646.63541,112.428291 C1646.03476,111.969613 1646.95511,111.584819 1648.68063,111.573227 C1652.70724,111.546264 1653.44496,112.766855 1650.52239,114.620695 C1649.25555,115.424252 1648.21722,115.808032 1648.21499,115.47357 Z" id="path2987-path" fill="#F3EFE8" fill-rule="nonzero" transform="translate(1649.374250, 113.583621) scale(-1, 1) translate(-1649.374250, -113.583621) "></path>
        <path d="M267.410734,105.117788 C265.837025,104.258691 265.085925,103.219101 265.741428,102.807551 C266.397046,102.396002 267.902402,103.116502 269.086904,104.408673 C271.590403,107.139793 271.322311,107.253246 267.410734,105.117788 Z" id="path2987-path" fill="#F3EFE8" fill-rule="nonzero" transform="translate(268.107219, 104.646491) scale(-1, 1) translate(-268.107219, -104.646491) "></path>
        <path d="M1872.24958,114.521092 C1871.26217,114.318981 1868.4558,113.841452 1866.01324,113.460069 L1861.57213,112.766579 L1864.04302,110.260638 C1866.09688,108.177608 1867.4279,107.873751 1871.92921,108.460379 C1875.17393,108.883244 1877.96673,108.642209 1878.89691,107.859163 C1880.05398,106.885 1881.14542,107.192498 1883.183,109.066665 L1885.91668,111.581132 L1883.27471,112.291469 C1881.82165,112.682162 1880.93055,113.476846 1881.29452,114.057436 C1881.91492,115.047017 1876.23929,115.337969 1872.24958,114.521092 Z" id="path2987-path" fill="#F3EFE8" fill-rule="nonzero" transform="translate(1873.744409, 111.157174) scale(-1, 1) translate(-1873.744409, -111.157174) "></path>
        <path d="M1833.00856,112.470465 C1836.28663,111.164144 1839.50675,110.13119 1840.16442,110.175023 C1842.23461,110.313067 1831.94787,114.74558 1829.43852,114.796811 C1828.12397,114.823544 1829.73049,113.776809 1833.00856,112.470465 Z" id="path2987-path" fill="#F3EFE8" fill-rule="nonzero" transform="translate(1834.708621, 112.485495) scale(-1, 1) translate(-1834.708621, -112.485495) "></path>
        <path d="M1696.7055,112.954401 C1696.7032,112.402204 1695.21509,111.265199 1693.40173,110.427719 C1691.58475,109.588557 1690.75565,108.663895 1691.55482,108.367874 C1692.35241,108.072428 1694.35731,108.802308 1696.01018,109.989805 C1699.14251,112.240215 1699.95512,113.936608 1697.90739,113.950366 C1697.25007,113.954975 1696.70921,113.506598 1696.7055,112.954401 Z" id="path2987-path" fill="#F3EFE8" fill-rule="nonzero" transform="translate(1695.141718, 111.126309) scale(-1, 1) translate(-1695.141718, -111.126309) "></path>
        <path d="M1235.22752,109.323946 C1235.22061,108.379005 1235.97616,106.96589 1236.90526,106.183697 C1238.29224,105.016018 1238.48155,105.205869 1237.9633,107.244812 C1237.20154,110.241787 1235.24367,111.729754 1235.22752,109.323946 Z" id="path2987-path" fill="#F3EFE8" fill-rule="nonzero" transform="translate(1236.727535, 107.993534) scale(-1, 1) translate(-1236.727535, -107.993534) "></path>
        <path d="M1892.49932,113.393882 C1892.8938,112.993809 1893.92433,112.944399 1894.7894,113.284185 C1895.74538,113.659553 1895.46409,113.944858 1894.07218,114.011575 C1892.81264,114.071955 1892.10486,113.794024 1892.49932,113.393974 L1892.49932,113.393882 Z" id="path2987-path" fill="#F3EFE8" fill-rule="nonzero" transform="translate(1893.870484, 113.539101) scale(-1, 1) translate(-1893.870484, -113.539101) "></path>
        <path d="M1345.9833,109.26488 C1345.56003,108.589757 1346.03857,108.386057 1347.10477,108.787328 C1349.1806,109.568484 1349.56518,110.423179 1347.84604,110.434725 C1347.22747,110.439334 1346.38925,109.912441 1345.9833,109.26488 Z" id="path2987-path" fill="#F3EFE8" fill-rule="nonzero" transform="translate(1347.379818, 109.508652) scale(-1, 1) translate(-1347.379818, -109.508652) "></path>
        <path d="M290.58956,99.8404665 C288.943214,99.3900849 284.551992,99.062191 280.83138,99.1117623 C276.213796,99.1732942 274.395025,98.7985715 275.101148,97.9310171 C275.76531,97.1147392 278.612371,96.9525437 283.058566,97.4776395 C286.866346,97.9273297 291.461107,98.3307443 293.269077,98.3740932 C295.077162,98.4174191 296.559995,98.9911412 296.564394,99.6489339 C296.575909,100.991713 294.984374,101.042644 290.58956,99.8404435 L290.58956,99.8404665 Z" id="path2987-path" fill="#F3EFE8" fill-rule="nonzero" transform="translate(285.759118, 98.938051) scale(-1, 1) translate(-285.759118, -98.938051) "></path>
        <path d="M1886.13565,109.090471 C1886.4705,108.540048 1887.25058,108.086302 1887.86912,108.082153 C1888.48766,108.077544 1888.99676,108.523086 1889.00042,109.071228 C1889.00272,109.619392 1888.22403,110.073138 1887.26695,110.079568 C1886.30985,110.086482 1885.80077,109.640894 1886.13565,109.090471 Z" id="path2987-path" fill="#F3EFE8" fill-rule="nonzero" transform="translate(1887.516541, 109.080883) scale(-1, 1) translate(-1887.516541, -109.080883) "></path>
        <path d="M1898.77463,106.925122 C1899.57771,104.185475 1903.70012,99.9172778 1905.61028,99.847772 C1906.10317,99.8293355 1906.51368,100.891534 1906.5225,102.207096 C1906.53401,103.824557 1907.33529,104.593683 1908.9994,104.582506 C1912.71024,104.557617 1910.74339,106.548348 1906.28706,107.327822 C1904.13719,107.703859 1901.37759,108.414564 1900.15466,108.907142 C1898.24446,109.676545 1898.04999,109.397209 1898.77463,106.925122 Z" id="path2987-path" fill="#F3EFE8" fill-rule="nonzero" transform="translate(1904.667052, 104.566918) scale(-1, 1) translate(-1904.667052, -104.566918) "></path>
        <path d="M1353.31061,103.918698 C1354.29,102.925407 1355.73341,102.108391 1356.51818,102.103114 C1357.59679,102.0962 1357.58486,102.533838 1356.46935,103.897473 C1355.65764,104.889659 1354.21426,105.706651 1353.26178,105.713058 C1351.77665,105.722276 1351.7836,105.467506 1353.31061,103.918698 Z" id="path2987-path" fill="#F3EFE8" fill-rule="nonzero" transform="translate(1354.736630, 103.908164) scale(-1, 1) translate(-1354.736630, -103.908164) "></path>
        <path d="M1277.02634,104.477164 C1277.42083,104.077091 1278.45137,104.027705 1279.31645,104.367467 C1280.27242,104.742835 1279.99113,105.02814 1278.59922,105.094858 C1277.33967,105.155237 1276.63189,104.877306 1277.02634,104.477256 L1277.02634,104.477164 Z" id="path2987-path" fill="#F3EFE8" fill-rule="nonzero" transform="translate(1278.397519, 104.622388) scale(-1, 1) translate(-1278.397519, -104.622388) "></path>
        <path d="M380.174184,98.4009184 C380.981063,98.0678853 382.594475,98.0370963 383.759402,98.3324727 C384.924121,98.6278952 384.264012,98.9003873 382.292069,98.9379979 C380.320148,98.9757928 379.36719,98.7338132 380.174184,98.4008492 L380.174184,98.4009184 Z" id="path2987-path" fill="#F3EFE8" fill-rule="nonzero" transform="translate(382.110935, 98.535731) scale(-1, 1) translate(-382.110935, -98.535731) "></path>
        <path d="M377.808114,94.7969434 C378.614993,94.4639104 380.228176,94.4331213 381.393125,94.7284978 C382.557936,95.0238972 381.897828,95.2964123 379.925884,95.3340229 C377.954078,95.3718178 377.00089,95.1298382 377.808114,94.7968743 L377.808114,94.7969434 Z" id="path2987-path" fill="#F3EFE8" fill-rule="nonzero" transform="translate(379.744745, 94.931756) scale(-1, 1) translate(-379.744745, -94.931756) "></path>
        <path d="M394.635208,92.5513497 C392.348743,90.2937262 393.419777,88.7431901 397.611375,88.2429837 C400.053038,87.9515941 400.641639,88.4653744 400.971705,91.176099 C401.289956,93.7893865 400.883961,94.465754 398.987739,94.4784983 C397.676273,94.4877165 395.717733,93.6200929 394.635208,92.5513497 Z" id="path2987-path" fill="#F3EFE8" fill-rule="nonzero" transform="translate(397.263744, 91.324611) scale(-1, 1) translate(-397.263744, -91.324611) "></path>
        <path d="M428.552932,92.8508052 C428.106933,92.4105637 425.964176,91.6348462 423.790835,91.1270117 C420.860452,90.4422325 421.930587,90.2710723 427.933079,90.4644946 C432.384433,90.6078387 436.376545,91.0709416 436.804327,91.4934149 C437.23234,91.9158882 436.822751,92.2740181 435.889368,92.2892512 C434.958127,92.3053832 433.109003,92.6171682 431.779988,92.9841245 C430.450972,93.3510577 428.998816,93.2910929 428.552932,92.85069 L428.552932,92.8508052 Z" id="path2987-path" fill="#F3EFE8" fill-rule="nonzero" transform="translate(429.599022, 91.807301) scale(-1, 1) translate(-429.599022, -91.807301) "></path>
        <path d="M1839.73892,100.681657 C1839.34886,100.059493 1840.08398,98.9766685 1841.37253,98.2754347 C1843.87234,96.9149793 1845.83093,98.3726874 1844.48209,100.58982 C1843.55612,102.111802 1840.67053,102.167688 1839.73892,100.681542 L1839.73892,100.681657 Z" id="path2987-path" fill="#F3EFE8" fill-rule="nonzero" transform="translate(1842.278030, 99.756821) scale(-1, 1) translate(-1842.278030, -99.756821) "></path>
        <path d="M441.614701,89.0163274 C436.902211,86.9650088 436.871166,86.9111971 439.800997,85.886932 C441.440502,85.3137169 443.050668,84.80821 443.378914,84.7635936 C443.707414,84.718885 444.511691,84.3531962 445.166319,83.9507265 C445.821039,83.5482108 447.298943,83.3643524 448.450489,83.5421267 C452.482973,84.1646365 450.48968,81.9437017 446.34306,81.1940719 C444.039507,80.7776135 442.151231,79.9230799 442.147086,79.2951082 C442.135571,77.7865383 444.116519,77.8357178 447.120575,79.4186331 C448.459148,80.123946 452.328902,80.9704137 455.719816,81.2996903 C462.76893,81.9841007 463.762375,82.4328231 460.573204,83.4919563 C459.331565,83.9043356 457.141481,84.812727 455.70632,85.5106192 C454.271367,86.2085344 451.449271,86.4612303 449.43539,86.0721962 C446.674692,85.5389654 445.776383,85.7990358 445.785273,87.1289326 C445.796788,88.0991556 446.635679,88.8873408 447.660376,88.8804501 C448.685187,88.8735364 449.194841,89.4083574 448.793037,90.0688695 C447.860552,91.6015913 447.398018,91.5337679 441.614701,89.0163274 Z" id="path2987-path" fill="#F3EFE8" fill-rule="nonzero" transform="translate(450.052209, 84.643705) scale(-1, 1) translate(-450.052209, -84.643705) "></path>
        <path d="M405.420614,89.7839789 C404.02267,88.8931483 404.370492,88.6275699 406.977235,88.595836 C408.914634,88.5714076 410.025371,89.0628336 409.603668,89.7559092 C408.696471,91.2470106 407.726769,91.2535325 405.420614,89.784025 L405.420614,89.7839789 Z" id="path2987-path" fill="#F3EFE8" fill-rule="nonzero" transform="translate(407.152006, 89.737599) scale(-1, 1) translate(-407.152006, -89.737599) "></path>
        <path d="M408.38819,83.8215325 C407.786992,82.8623945 414.155524,81.6714401 423.987606,80.9044108 L431.155256,80.3452767 L425.101268,81.3586872 C421.771429,81.9160699 417.964985,82.9611222 416.64205,83.681046 C414.08344,85.0734888 409.22487,85.1561767 408.38819,83.8216247 L408.38819,83.8215325 Z" id="path2987-path" fill="#F3EFE8" fill-rule="nonzero" transform="translate(419.752133, 82.560474) scale(-1, 1) translate(-419.752133, -82.560474) "></path>
        <path d="M496.620431,81.6690203 C492.178289,79.4022937 492.046143,79.1861022 494.438891,78.0983693 C495.839645,77.4615712 497.959441,77.35699 499.1497,77.8659768 C500.339706,78.3749636 501.985062,78.678406 502.805759,78.5402932 C503.626479,78.4022496 504.301557,78.8069778 504.305726,79.439812 C504.305726,80.0726002 504.645671,81.4394853 505.051644,82.4772782 C506.061832,85.0596384 502.618179,84.7295091 496.620431,81.6690203 Z" id="path2987-path" fill="#F3EFE8" fill-rule="nonzero" transform="translate(499.059198, 80.876985) scale(-1, 1) translate(-499.059198, -80.876985) "></path>
        <path d="M404.691247,79.4834836 C405.085866,79.0834107 406.116298,79.0340007 406.981327,79.3737862 C407.937303,79.7491542 407.656175,80.0344596 406.264173,80.1011769 C405.004662,80.1615565 404.296743,79.8836257 404.691247,79.4835758 L404.691247,79.4834836 Z" id="path2987-path" fill="#F3EFE8" fill-rule="nonzero" transform="translate(406.062431, 79.628703) scale(-1, 1) translate(-406.062431, -79.628703) "></path>
        <path d="M532.556788,73.8910816 C532.556788,73.2332889 533.387388,72.689457 534.412108,72.6825894 C535.43692,72.6756757 535.946574,73.2104967 535.544769,73.8710088 C535.142942,74.531521 534.307966,75.0753298 533.689449,75.079478 C533.070818,75.0840871 532.561164,74.5488513 532.556788,73.8910816 Z" id="path2987-path" fill="#F3EFE8" fill-rule="nonzero" transform="translate(534.119493, 73.881015) scale(-1, 1) translate(-534.119493, -73.881015) "></path>
    </g>
</svg>
