
<svg width="1920px" height="177px" viewBox="0 0 1920 177" version="1.1" xmlns="http://www.w3.org/2000/svg" xmlns:xlink="http://www.w3.org/1999/xlink">
    <g id="Page-1" stroke="none" stroke-width="1" fill="none" fill-rule="evenodd">
        <path d="M1744.45275,5.58535645 C1740.4854,5.01115039 1739.94933,1.67132496 1743.82919,1.70013205 C1746.47654,1.72087316 1750.71795,4.13877937 1750.72806,5.63472028 C1750.72806,6.41751275 1750.17209,6.41308799 1744.45275,5.58540254 L1744.45275,5.58535645 Z" id="path2987-path" fill="#FCFBF9" fill-rule="nonzero" transform="translate(1745.955156, 3.957053) scale(1, -1) translate(-1745.955156, -3.957053) "></path>
        <path d="M1801.54069,7.40045255 C1800.56615,5.84595258 1805.05396,3.57072214 1807.37315,4.44348493 C1808.40955,4.83344081 1809.26242,5.90220707 1809.2685,6.81850314 C1809.28001,8.72140764 1802.68033,9.21847982 1801.54069,7.40045255 Z" id="path2987-path" fill="#FCFBF9" fill-rule="nonzero" transform="translate(1805.336404, 6.391965) scale(1, -1) translate(-1805.336404, -6.391965) "></path>
        <path d="M1753.95175,8.03089167 C1754.75863,7.69785861 1756.37205,7.66709263 1757.53697,7.96244601 C1758.70169,8.25786853 1758.04158,8.53033756 1756.06975,8.5679481 C1754.09772,8.60574301 1753.14476,8.36399387 1753.95175,8.03082253 L1753.95175,8.03089167 Z" id="path2987-path" fill="#FCFBF9" fill-rule="nonzero" transform="translate(1755.888508, 8.165699) scale(1, -1) translate(-1755.888508, -8.165699) "></path>
        <path d="M454.530934,1.19907316 C454.120263,0.544022872 454.322052,0.00445446367 454.979421,2.96939153e-05 C455.636766,-0.00457944125 456.51057,0.527983081 456.921264,1.18301033 C457.331912,1.83808366 457.130146,2.37765207 456.472755,2.38205379 C455.81541,2.38666293 454.941605,1.85412345 454.530934,1.19907316 Z" id="path2987-path" fill="#FCFBF9" fill-rule="nonzero" transform="translate(455.726094, 1.191042) scale(1, -1) translate(-455.726094, -1.191042) "></path>
        <path d="M1754.22445,15.2014682 C1754.21294,14.2696163 1754.8531,13.715944 1755.63534,13.9710596 C1757.80721,14.6792993 1758.12783,16.8696295 1756.06167,16.883503 C1755.05731,16.8904167 1754.23065,16.1333432 1754.22445,15.2014682 Z" id="path2987-path" fill="#FCFBF9" fill-rule="nonzero" transform="translate(1755.837180, 15.396225) scale(1, -1) translate(-1755.837180, -15.396225) "></path>
        <path d="M1861.77033,19.0611326 C1860.3571,18.1605537 1860.61248,17.9360196 1862.95857,18.0169561 C1864.60233,18.0736484 1867.56344,18.5200893 1869.53884,19.0089802 C1872.99856,19.8652423 1872.95495,19.9035673 1868.35063,20.0531567 C1865.72173,20.1386562 1862.76053,19.6921693 1861.77033,19.0611326 Z" id="path2987-path" fill="#FCFBF9" fill-rule="nonzero" transform="translate(1866.444401, 19.032647) scale(1, -1) translate(-1866.444401, -19.032647) "></path>
        <path d="M1850.70179,20.584142 C1851.52116,20.2468686 1852.86581,20.2378347 1853.68978,20.5634009 C1854.51351,20.8896586 1853.84315,21.1656305 1852.19983,21.1766694 C1850.55638,21.1881923 1849.88232,20.9207472 1850.70179,20.5834507 L1850.70179,20.584142 Z" id="path2987-path" fill="#FCFBF9" fill-rule="nonzero" transform="translate(1852.197529, 20.751055) scale(1, -1) translate(-1852.197529, -20.751055) "></path>
        <path d="M1866.53591,39.2943007 C1866.53591,38.7205786 1868.64707,37.8976636 1871.23592,37.4655572 C1879.07855,36.1565628 1878.56383,33.9823415 1870.53173,34.4903835 C1866.67457,34.734368 1861.90112,34.3359774 1859.92413,33.6048534 C1857.94715,32.8738676 1852.20625,31.3907862 1847.16662,30.3091835 C1842.1272,29.2275808 1836.49256,27.5709193 1834.64546,26.6276598 C1832.79848,25.6844694 1829.00666,24.6154957 1826.21909,24.2522268 C1818.93391,23.302791 1818.23196,20.3294149 1825.28176,20.282079 C1828.58496,20.2590334 1830.40843,20.7136093 1829.96243,21.4466692 C1829.56051,22.1071813 1830.47411,22.7313043 1831.99284,22.8336502 C1837.09793,23.1776299 1838.32503,23.3610274 1842.53192,24.4086608 C1847.33158,25.6039017 1848.31681,25.7789567 1851.20751,25.950163 C1852.35839,26.0181478 1853.16999,26.7424503 1853.0112,27.5593734 C1852.68756,29.2232943 1864.63877,31.636914 1873.94196,31.7864804 C1880.95534,31.8991738 1884.92764,34.6698632 1882.87125,38.0145974 C1881.77818,39.7925943 1880.00913,40.2470089 1874.02407,40.2871775 C1869.9095,40.3148323 1866.53973,39.8679997 1866.53591,39.2943007 Z" id="path2987-path" fill="#FCFBF9" fill-rule="nonzero" transform="translate(1851.885219, 30.284819) scale(1, -1) translate(-1851.885219, -30.284819) "></path>
        <path d="M1842.32827,25.3507021 C1842.16291,25.1877691 1838.97494,24.810788 1835.24417,24.5129457 C1831.51331,24.2150803 1827.47387,23.3693731 1826.26756,22.6335938 C1824.50086,21.5560472 1825.12141,21.4064577 1829.45648,21.864767 C1839.7981,22.9580539 1845.0269,23.8967273 1845.56601,24.756815 C1846.05183,25.5316337 1843.0679,26.0789685 1842.32827,25.3507021 Z" id="path2987-path" fill="#FCFBF9" fill-rule="nonzero" transform="translate(1835.482374, 23.656619) scale(1, -1) translate(-1835.482374, -23.656619) "></path>
        <path d="M375.747919,176.430951 C375.293813,175.706579 373.897435,175.446993 372.644902,175.854072 C371.048279,176.372991 370.547768,176.114672 370.970506,174.98979 C371.84362,172.66644 365.515506,169.349891 362.543277,170.573109 C358.840306,172.097027 357.173764,171.903628 357.160636,169.948387 C357.153727,168.961709 357.955333,168.149004 358.941339,168.142389 C359.927345,168.135476 360.730471,167.592174 360.726049,166.934381 C360.721443,166.276612 359.911317,165.743819 358.92531,165.750456 C357.939304,165.757369 357.129085,165.242852 357.124848,164.607713 C357.120242,163.972597 354.967236,163.681553 352.339652,163.960982 C349.712067,164.240388 347.558854,163.967896 347.554755,163.35389 C347.550149,162.740575 348.085089,162.235161 348.742435,162.230759 C349.399757,162.22615 349.928549,160.877286 349.917517,159.232816 C349.906002,157.588346 350.435301,156.239275 351.092646,156.234873 C352.676166,156.225655 352.603621,151.795492 351.003981,150.820983 C349.08625,149.652682 346.287621,152.629815 346.30897,155.815419 C346.332,159.117518 344.562214,159.564351 342.918977,156.671773 C341.881176,154.844919 341.616608,154.836508 339.901633,156.575903 C338.258972,158.241875 338.24695,158.567119 339.806519,159.153954 C340.788011,159.523307 342.116589,161.181282 342.758942,162.838358 C343.401271,164.495434 344.689339,165.846095 345.621271,165.83985 C348.559001,165.819109 348.920756,169.210003 346.037607,169.741183 C343.468726,170.214449 343.475681,170.24752 346.39425,171.438082 C349.307821,172.626594 349.317033,172.669736 346.830507,173.477878 C345.433346,173.93197 343.83032,174.181394 343.268204,174.032127 C342.706111,173.882791 341.066329,174.172014 339.624259,174.674502 C337.733151,175.333539 336.314388,174.909061 334.534399,173.151598 L332.06655,170.714909 L336.946769,170.682184 C342.0431,170.648077 343.070975,168.32929 338.527456,167.116488 C336.306373,166.523638 335.43455,164.337525 335.444153,159.385194 C335.44641,158.099867 334.885215,156.378033 334.196526,155.558874 C333.507837,154.739739 333.20946,153.633754 333.533492,153.101168 C333.857524,152.568537 333.373204,150.799043 332.457162,149.168908 C331.192217,146.917783 330.784885,146.708436 330.763375,148.298288 C330.727448,150.94778 325.959686,151.205684 325.941952,148.559073 C325.935043,147.533586 325.393861,147.030776 324.739234,147.441703 C324.084629,147.852654 323.544783,147.55624 323.539601,146.78285 C323.534995,145.965628 324.532931,145.632042 325.92468,145.986277 C327.24165,146.321476 328.316368,146.175251 328.312914,145.661217 C328.301399,143.98264 321.709983,143.402856 314.479139,144.444452 C307.407616,145.463094 305.661781,144.85743 305.593428,141.361747 C305.544605,138.865923 307.870865,138.372354 311.435701,140.122143 C316.401292,142.5595 318.153921,141.056161 316.40219,135.862127 C315.634945,133.58715 315.342303,130.834137 315.751892,129.744261 C316.189277,128.580385 315.905041,127.766642 315.063249,127.772288 C313.273726,127.783811 307.202166,132.544287 307.614771,133.61174 C307.781969,134.044422 307.382237,134.58141 306.726366,134.805091 C306.070495,135.028864 305.52998,134.628792 305.52519,133.916127 C305.520584,133.203532 304.171947,132.629533 302.528619,132.640572 C299.493311,132.661313 298.410671,134.479916 300.942451,135.305551 C301.835393,135.596756 302.036928,136.958271 301.508229,139.127768 L300.687002,142.497622 L295.16655,136.416329 C289.852447,130.562336 287.548526,129.51355 283.492712,131.102319 C280.830444,132.145159 281.118642,133.194406 285.273599,137.585874 C288.91805,141.437798 289.438943,144.477407 286.317918,143.679935 C285.412493,143.448579 283.057215,143.119625 281.083959,142.948926 C278.001485,142.682241 277.541323,142.201762 277.81614,139.536944 C278.27142,135.122361 274.9513,136.688384 274.060062,141.308558 C273.684028,143.257991 272.42666,145.214892 271.265902,145.657184 C270.105143,146.0995 268.459212,147.443363 267.608277,148.643581 C265.386642,151.777125 258.322006,151.671115 257.46826,148.49148 C256.992714,146.720397 257.415522,146.0998 259.105532,146.088438 C260.358687,146.081524 261.387529,146.606067 261.391904,147.257407 C261.39651,147.908747 262.33572,147.64356 263.479574,146.668106 C264.623428,145.692629 266.582912,144.147923 267.833971,143.23543 C270.850164,141.035582 269.528219,137.826909 264.900087,136.114224 C261.176804,134.736369 259.935119,131.730613 263.080464,131.709481 C266.148935,131.688739 264.695443,127.941605 261.119114,126.652891 C259.586237,126.100532 259.216145,126.738851 259.328163,129.742209 C259.442622,132.813184 258.955975,133.604642 256.749701,133.935024 C254.77633,134.230562 254.21601,134.915226 254.707701,136.430157 C255.168093,137.848618 254.420217,139.043283 252.375107,140.156274 C249.761432,141.578676 248.774965,141.512604 244.88764,139.654984 C242.425157,138.478249 241.08108,137.270425 241.900787,136.970947 C242.720471,136.671491 243.384218,135.394922 243.375766,134.134162 C243.366554,132.608631 244.193262,131.836301 245.850294,131.825193 C249.110628,131.802147 248.16467,128.941441 244.738129,128.460409 C241.932522,128.066512 241.178843,125.262314 243.608346,124.256786 C244.728917,123.793037 244.651766,123.333023 243.297096,122.400986 C241.843511,121.400896 242.258834,121.002644 245.449572,120.336993 C248.137288,119.776268 249.010171,119.124168 248.175794,118.300331 C247.341417,117.476517 246.409715,117.542036 245.265954,118.504977 C244.340562,119.284036 242.717062,119.595406 241.65812,119.1969 C240.599178,118.798417 236.635922,119.43835 232.850895,120.619003 C226.023606,122.748607 222.252904,124.807485 225.216474,124.787574 C226.044057,124.782964 226.363759,125.364983 225.92688,126.083063 C225.35493,127.023188 224.766491,127.027152 223.824587,126.096891 C223.105199,125.3866 221.580244,124.811725 220.435837,124.819423 C217.91092,124.835555 216.031281,127.503668 218.074664,128.170057 C219.030247,128.481703 219.144269,129.125046 218.40473,130.032447 C217.144597,131.57865 218.048225,137.991709 219.52484,137.981799 C220.043982,137.979495 220.194713,139.0537 219.859719,140.371567 C219.248825,142.775023 216.435043,143.514697 214.095011,141.887004 C213.406874,141.408345 212.09269,138.734356 211.174646,135.944815 C210.256578,133.155274 209.030138,130.876103 208.449183,130.880021 C207.868252,130.882325 207.496847,130.213655 207.623811,129.390532 C207.750707,128.56741 207.429208,126.9349 206.909306,125.762705 C205.643139,122.908176 209.162215,118.9699 212.271864,119.761381 C214.954421,120.444155 215.270508,118.440587 213.287372,113.324585 C212.282158,110.731348 211.772735,110.382528 210.954617,111.727243 C210.319358,112.771397 210.407793,114.042158 211.17962,114.960114 C212.096214,116.050336 211.997554,116.620601 210.826156,117.002836 C196.990607,121.517392 185.85452,123.932602 182.09455,123.234157 C180.917257,123.015453 179.957804,123.401468 179.962433,124.091778 C179.967039,124.782181 180.775507,125.031835 181.75898,124.64658 C183.933726,123.794697 184.095259,125.1991 182.076265,127.405286 C180.889759,128.701812 180.890772,128.855112 182.080871,128.171877 C183.755865,127.210688 184.179134,129.336905 182.520122,130.378385 C181.934331,130.746148 178.570984,130.477943 175.046058,129.78224 C163.344907,127.473086 158.872642,127.337255 155.403979,129.185702 C152.420166,130.775785 152.316508,131.026153 154.394505,131.623889 C161.366354,133.629439 170.872538,134.589291 172.889874,133.491441 C175.584062,132.025206 180.014251,131.900621 180.023578,133.290713 C180.025881,133.853835 182.732919,133.761007 186.035928,133.084455 C190.283972,132.21425 192.819967,132.242112 194.70184,133.179633 C197.111515,134.38006 197.136802,134.480078 194.970093,134.240771 C193.1811,134.04327 192.665712,134.591988 192.926158,136.417113 C193.20512,138.371778 192.082177,139.295725 187.285558,141.058189 C179.426917,143.94579 169.632304,144.339202 167.735876,141.843402 C165.678675,139.136019 162.344553,138.206333 161.275938,140.042083 C160.04123,142.163137 153.746717,143.26532 151.033392,141.835543 C147.931043,140.200798 145.244594,142.723793 146.189054,146.385128 C147.060371,149.762887 145.317438,150.082807 140.241396,147.476871 C135.567872,145.077586 133.490819,145.278337 133.509911,148.12745 C133.519123,149.443013 132.988144,150.523002 132.330798,150.527427 C131.673476,150.532036 131.127297,149.289321 131.117071,147.766256 C131.10095,145.256766 130.622364,145.029535 126.021177,145.343118 C123.228675,145.533475 120.288665,145.72298 119.487866,145.764255 C118.68709,145.805506 118.346868,146.64453 118.73186,147.628673 C119.11683,148.612815 118.971211,149.467994 118.408289,149.529135 C108.20464,150.636917 104.696734,150.551349 105.143976,149.205573 C105.416122,148.386622 106.933983,147.699147 108.517019,147.677829 C111.5015,147.63773 116.754389,144.758196 116.743749,143.168228 C116.741446,142.66869 115.231761,142.270069 113.391203,142.282445 C111.550669,142.293968 109.470093,141.737484 108.767701,141.043993 C108.065286,140.350457 105.53544,139.694692 103.145778,139.5867 C100.685023,139.47562 98.7944673,138.766205 98.7859693,137.951033 C98.7767573,136.961636 97.6568084,137.156096 95.2067159,138.573082 C90.5943828,141.24055 90.692076,142.42837 95.5238159,142.428992 L99.4082398,142.429476 L96.4359421,144.771724 L93.4635983,147.113994 L97.9406762,146.372568 C103.375019,145.472635 103.934164,147.412182 98.8584216,149.556098 C95.5940805,150.934921 93.9645007,153.177035 96.2378611,153.161778 C96.7552991,153.159474 97.2669105,154.231282 97.37476,155.546176 C97.4825404,156.861093 96.8809047,157.941544 96.0376382,157.947213 C95.1943488,157.951822 93.5482565,159.029138 92.3796222,160.33887 C90.3364007,162.628873 90.3388189,162.751845 92.4429547,163.543694 C93.7406952,164.032055 94.8185452,163.791596 95.0917041,162.952826 C95.8567376,160.603757 97.6066951,161.352534 97.428489,163.952709 C97.2790243,166.133337 96.7095615,166.305626 91.8368743,165.644515 C88.8529694,165.239694 85.8975296,164.436599 85.269156,163.859881 C84.6408516,163.283186 82.6208213,162.821419 80.7802868,162.833795 C76.1427588,162.864907 76.5795228,160.933356 81.5928312,159.24026 C83.8884155,158.465003 85.7632877,157.334244 85.7592344,156.727474 C85.7546284,156.120728 86.961907,155.612824 88.4408706,155.598836 C90.9044817,155.575559 90.8419322,155.425532 87.6946525,153.809823 C85.8052484,152.83983 83.5141319,152.05123 82.6032724,152.057337 C81.6923899,152.061947 80.9435464,151.53026 80.9391247,150.87249 C80.9345187,150.214697 82.0067494,149.669298 83.3214169,149.660472 C84.8828278,149.651254 85.7063806,148.847098 85.6963165,147.345234 C85.6778925,144.421176 79.5488497,142.31858 73.4610766,143.147026 C71.0222688,143.47893 67.7220929,143.264098 66.1273576,142.669543 C63.4091959,141.656225 63.1806922,141.896798 62.4743161,146.515751 C61.7896803,150.992581 62.0580719,151.727001 65.4109404,154.551894 C69.2288537,157.768586 69.1381846,159.323892 65.131172,159.350787 C63.5679417,159.360005 63.0309742,158.784209 63.4835137,157.580003 C63.9309175,156.38951 63.1972047,155.559957 61.2838494,155.093075 C59.5753689,154.676133 58.6514053,153.757855 59.0018989,152.825127 C59.3258619,151.963104 58.9880809,150.890373 58.2507064,150.441305 C57.2750865,149.846957 57.2965274,149.153029 58.3294689,147.89038 C60.494381,145.244137 56.3436842,142.672032 51.9804206,143.956022 C47.7899049,145.189173 47.6341991,143.645435 51.6777603,140.955198 C53.5350146,139.719558 56.5404295,139.035885 59.3158899,139.217693 C61.9670343,139.391457 64.7474922,138.797086 65.9260063,137.804924 C67.0447576,136.863024 69.771095,136.236274 71.9844622,136.412135 C77.1988685,136.826427 80.8367793,135.607265 80.8223165,133.450328 C80.8084985,131.531015 77.7488019,131.13161 76.6679349,132.908201 C76.2707365,133.561085 74.8547831,133.652162 73.3852158,133.1193 C71.9354083,132.593651 69.3496921,132.741673 67.4950862,133.456458 C63.5980879,134.958368 61.924544,133.879461 64.0746247,131.251309 C65.7412366,129.214118 65.7305047,129.190888 62.255439,127.315246 C60.0104977,126.103574 60.1053352,125.930339 63.7313625,124.619893 C66.5842728,123.58883 67.6015309,122.493192 67.5879432,120.466118 C67.5718222,118.139219 66.9482159,117.716953 63.5582,117.739699 C61.3519951,117.753526 57.9187289,116.937917 55.9287067,115.92499 C53.9386844,114.91211 51.9756534,114.422942 51.5664103,114.838018 C51.1571672,115.25307 50.8183959,115.003486 50.8135596,114.283401 C50.8020446,112.420734 38.0302058,111.078807 36.0645954,112.733625 C34.9701407,113.655037 34.1200804,113.675248 33.2344848,112.800688 C32.3489122,111.926335 32.1516833,112.475052 32.5778535,114.627611 C33.2969422,118.259471 31.2657883,118.701556 27.0963221,115.820685 C24.7702001,114.21348 23.5572561,114.139135 19.3571369,115.346359 C16.6177416,116.133761 14.107011,116.709672 13.7777742,116.626201 C13.4485373,116.542776 1.75299748,117.619861 0,118.300331 L0,30.6232963 L1920,30.6232963 L1920,133.456458 C1917.14023,133.007736 1909.54721,131.069825 1907.44415,129.509955 C1904.17728,127.086841 1902.25989,126.680568 1894.27806,126.720207 C1883.04804,126.775977 1879.58324,126.002449 1879.44064,123.407598 C1879.37316,122.168064 1879.11654,122.002296 1878.74016,122.953806 C1878.41426,123.778242 1876.98246,124.515842 1875.55886,124.592884 C1874.13506,124.669856 1875.9346,125.665522 1879.55761,126.805292 C1887.16271,129.197755 1888.42492,132.079225 1881.9852,132.34697 C1873.16669,132.713604 1872.42718,132.894881 1872.43922,134.686913 C1872.45074,135.689884 1871.16237,137.010839 1869.58698,137.622356 C1868.01157,138.233896 1866.37342,139.308009 1865.94686,140.009265 C1864.6978,142.062174 1860.49282,141.617784 1861.2825,139.516341 C1861.65439,138.527129 1861.33086,137.721959 1860.56491,137.727098 C1859.7984,137.731707 1859.50827,137.182667 1859.92009,136.505793 C1860.3318,135.828918 1860.22586,135.355145 1859.68472,135.452974 C1859.14347,135.550918 1857.8934,135.564285 1856.90682,135.482933 C1855.31241,135.351343 1855.3114,135.202444 1856.89531,134.141721 C1858.36467,133.159353 1858.25772,132.985381 1856.29109,133.157579 C1854.97725,133.272577 1851.7502,133.287556 1849.12017,133.190995 C1845.68034,133.064705 1844.82591,132.701896 1846.0762,131.898755 C1847.33403,131.090704 1846.73901,130.820033 1843.92244,130.919106 C1841.78182,130.994465 1839.48659,130.518757 1838.82139,129.862139 C1838.15644,129.205499 1836.28168,128.932039 1834.65544,129.254471 C1832.4117,129.699321 1831.87291,130.377648 1832.42126,132.067196 C1833.05394,134.016237 1832.64995,134.211411 1829.17926,133.633518 C1826.99861,133.270433 1824.54085,132.772232 1823.71746,132.526427 C1822.89405,132.280622 1822.22572,132.869876 1822.23223,133.835905 C1822.24375,134.801934 1821.67445,135.596157 1820.97834,135.600812 C1820.28212,135.605421 1820.03236,135.083828 1820.42316,134.441522 C1820.86093,133.721898 1819.05163,133.498655 1815.70896,133.859826 C1810.93754,134.375335 1810.28238,134.16479 1810.26866,132.111489 C1810.25484,130.0215 1809.62775,129.848819 1804.28145,130.462341 C1800.99717,130.839253 1798.30676,130.657538 1798.30271,130.058742 C1798.29119,128.529269 1780.14859,129.854096 1778.09851,131.534034 C1776.82348,132.578856 1776.29178,132.539033 1775.88954,131.368566 C1775.45646,130.108889 1775.01316,130.111885 1773.46418,131.384698 C1771.90812,132.663364 1771.7364,132.659147 1772.50494,131.361191 C1773.10701,130.344577 1772.86559,129.8629 1771.82905,130.012397 C1768.25867,130.52726 1765.92768,129.929433 1766.68058,128.691903 C1767.15221,127.916692 1766.57603,127.493989 1765.25012,127.643209 C1764.02872,127.780792 1761.14624,127.763047 1758.84437,127.604032 C1754.76917,127.32239 1754.80042,127.291832 1760.0318,126.441953 C1765.10033,125.618508 1765.16746,125.559604 1761.22001,125.401257 C1758.9186,125.308844 1755.68905,124.93396 1754.04315,124.56804 C1751.6965,124.046309 1751.43944,124.176656 1752.85201,125.172068 C1754.44753,126.296374 1754.44484,126.444926 1752.82829,126.471982 C1751.82427,126.488114 1749.93692,125.76683 1748.63423,124.867611 C1746.97729,123.723785 1744.6517,123.486945 1740.89295,124.079173 C1737.93792,124.544741 1733.63477,124.471802 1731.33018,123.917161 C1729.02573,123.362452 1723.96562,122.342243 1720.08553,121.650043 C1713.7125,120.513108 1712.87539,120.607226 1711.42222,122.624045 C1710.34589,124.117958 1710.21342,125.251114 1711.02154,126.049002 C1713.1275,128.128275 1712.34897,130.355363 1709.55994,130.230225 C1707.51299,130.138503 1707.37253,129.974786 1708.97235,129.545653 C1710.12874,129.235504 1710.81112,128.561096 1710.48883,128.046947 C1710.16653,127.532821 1707.1122,127.856589 1703.70173,128.766294 C1695.48868,130.957177 1687.49831,131.210265 1682.05204,129.452064 C1679.6115,128.664225 1676.39693,128.251316 1674.90834,128.534501 C1672.67989,128.958426 1673.31369,129.539569 1678.49524,131.823764 C1681.95667,133.349641 1684.79159,135.029487 1684.79507,135.556726 C1684.80659,136.573916 1680.38856,137.128948 1674.94297,136.795707 C1672.37548,136.638536 1671.65834,137.119822 1671.67083,138.990992 C1671.68925,141.63848 1670.28198,142.006565 1666.91872,140.234422 C1665.69735,139.590848 1660.00975,139.008184 1654.27963,138.9396 C1648.5494,138.871155 1642.19639,138.485854 1640.16183,138.083661 L1636.46245,137.352399 L1640.32465,135.721064 C1643.38144,134.429953 1643.90326,133.752388 1642.82693,132.472131 C1640.98499,130.281317 1644.08476,129.100664 1649.47705,129.939181 C1655.03073,130.802795 1656.97419,128.377076 1653.336,125.122658 C1648.77353,121.041729 1639.8041,116.485599 1636.37719,116.508599 C1634.58396,116.520122 1631.96755,115.924852 1630.56274,115.184602 C1629.15793,114.444352 1624.48243,113.75759 1620.17287,113.658425 C1615.4561,113.54988 1609.72082,112.464797 1605.76346,110.932168 C1602.14798,109.531843 1597.19169,108.399563 1594.7498,108.415948 C1592.30781,108.43208 1587.7253,107.934432 1584.56619,107.309456 C1578.85945,106.180472 1558.86545,104.385905 1540.55694,103.359451 L1530.99173,102.823155 L1536.68113,104.635582 C1539.81035,105.6324 1542.37244,106.728452 1542.3747,107.071256 C1542.3747,107.802173 1529.32816,107.536733 1527.13368,106.761269 C1524.91423,105.976955 1525.30523,104.110878 1527.71272,103.997931 C1529.50065,103.914045 1529.45634,103.753209 1527.40649,102.888028 C1525.00937,101.876231 1525.00937,101.876231 1527.39497,101.7003 C1531.28732,101.413704 1524.82939,99.2563294 1519.68225,99.1237707 C1517.34068,99.063391 1513.53828,98.3888671 1511.23236,97.6246955 C1508.92655,96.860524 1502.38663,96.3140649 1496.69914,96.4103958 C1491.01188,96.5067268 1486.96095,96.2066721 1487.69722,95.7438227 C1488.61285,95.1680726 1488.47867,94.725803 1487.27269,94.3440053 C1483.79541,93.2431595 1464.98434,90.0757157 1455.59736,89.0104293 C1450.33439,88.4131545 1442.52878,87.3796943 1438.25137,86.7138355 C1433.97408,86.0479999 1427.76895,85.111101 1424.46239,84.6318431 C1421.15549,84.1526083 1417.92383,83.4457743 1417.28046,83.061119 C1416.63721,82.6764405 1411.53697,82.0307007 1405.94676,81.6261569 C1400.35629,81.221567 1394.97434,80.694812 1393.98666,80.4555518 C1391.38148,79.824446 1374.83933,78.7489965 1361.70203,78.3566669 C1350.77102,78.0302479 1338.74356,77.0916206 1331.20817,75.9769243 C1329.23411,75.6849126 1324.92805,75.178576 1321.63902,74.8517422 C1318.34999,74.5248854 1310.00505,73.2802806 1303.09469,72.0859155 C1296.18435,70.8915733 1286.91466,69.6438574 1282.49546,69.3132441 C1278.07623,68.9826539 1268.65699,67.932255 1261.56356,66.9790398 C1244.51321,64.6877926 1241.04641,64.3419461 1228.33768,63.6646568 C1222.4192,63.3492537 1212.73308,62.6102019 1206.81292,62.0223758 C1194.53231,60.80296 1181.62217,59.8758555 1170.34144,59.4032578 C1166.06741,59.2241929 1160.41488,58.4632708 1157.78037,57.7123044 C1155.09905,56.9479715 1141.15084,56.1615609 1126.09537,55.9258497 C1087.26431,55.3179278 1072.52181,54.7896748 1071.15547,53.957242 C1070.49354,53.5539426 1069.00283,53.726186 1067.84306,54.3400076 C1066.68306,54.9538061 1060.3585,55.8736051 1053.78822,56.3839977 C1021.37338,58.9020374 1016.62513,59.1559547 1014.95785,58.4604823 C1013.96901,58.0480338 1007.24669,58.1563254 1000.01932,58.7011483 C992.791978,59.2459941 977.468968,60.0660975 965.968132,60.5236003 C954.467296,60.9811031 944.788847,61.3825357 944.460347,61.4156523 C944.13187,61.4488381 939.561843,61.6936753 934.304854,61.9598299 C929.047612,62.2260074 919.908249,62.8126351 913.994951,63.2634316 C908.081653,63.7142511 895.716133,64.4400055 886.515948,64.876214 C861.258901,66.0737595 852.823289,67.4239135 849.492621,70.8019256 C848.414265,71.8955582 847.07279,72.5106242 846.511549,72.1687186 C845.950308,71.8267899 845.20006,72.0253745 844.844315,72.6102046 C844.488571,73.1949656 847.174767,73.7220663 850.813645,73.7815702 C854.774667,73.8463285 857.141966,73.4307228 856.71271,72.7459206 C856.029525,71.6561827 877.248238,72.0456086 887.170115,73.3049165 C891.190323,73.8151708 896.127495,73.9796939 939.52306,75.0495894 C950.235004,75.3136698 959.651441,75.9307177 960.448417,76.4208301 C961.245301,76.9109425 967.275108,77.1866149 973.847754,77.0334533 C981.253235,76.8608412 984.664162,77.1272492 982.816511,77.733604 C981.176775,78.2718127 971.230648,78.8805642 960.71416,79.086316 C934.080266,79.6074249 928.042237,80.0246668 921.887839,81.7691553 C915.148201,83.6795497 847.930335,83.2920366 846.703896,81.3357123 C844.657657,78.0717532 811.040122,76.6616574 805.938218,79.6257923 C803.666585,80.945572 803.457104,81.3617539 805.053589,81.3833938 C807.232987,81.4128922 808.092098,83.7974053 805.928568,83.8119471 C805.250496,83.8165562 801.451214,82.7506707 797.485678,81.4434508 C789.964495,78.9641279 785.876325,79.4282908 789.868253,82.3083089 C791.977202,83.8298305 791.96092,83.9057199 789.521927,83.9221054 C788.114288,83.9313237 786.50783,83.138829 785.95207,82.1604709 C784.65935,79.8849409 770.795014,78.3234581 769.582301,80.3168168 C769.034624,81.217027 766.560834,81.4301534 762.22995,80.9502503 C757.278501,80.4016019 755.205939,80.666051 753.643814,82.0458648 C752.511245,83.0462315 750.779872,84.1669427 749.796307,84.5363649 C745.914693,85.9942343 773.099995,85.9165704 782.066334,84.4441822 C785.446147,83.8891731 785.961328,84.05206 784.761258,85.296273 C783.293211,86.8182785 776.052625,87.8661424 765.059439,88.1475301 C761.937493,88.2274986 759.385308,88.6107482 759.38791,88.9993213 C759.394819,89.9585976 758.140974,90.1138332 745.174739,90.7597344 C738.340495,91.1001651 733.604836,91.8727023 733.081756,92.7324903 C732.429431,93.8047134 732.102313,93.7943659 731.726049,92.6896254 C731.210637,91.1762158 708.587854,90.6598314 707.13982,92.1284171 C706.747297,92.5265311 710.146133,92.8378552 714.692785,92.8202713 C723.367794,92.7866246 741.070171,95.3383571 742.48449,96.826209 C742.93901,97.3043606 732.6864,97.3865876 719.700911,97.0089612 C694.939471,96.2888529 691.283504,97.0273977 700.901799,100.803086 C708.412734,103.752057 706.826935,105.091518 697.039254,104.065639 C685.222285,102.827049 676.024311,103.135815 674.356754,104.827045 C672.430088,106.781088 671.060402,106.592621 671.045501,104.371478 C671.036289,102.935157 670.405797,102.729681 668.350392,103.492539 C666.874976,104.040151 660.020971,104.563334 653.119272,104.655194 C638.892306,104.844629 636.930127,105.132585 641.178931,106.407794 C643.050211,106.969441 640.019371,107.326695 633.096714,107.360457 C621.449799,107.417379 618.929004,108.196185 622.366301,110.676084 C625.442533,112.895475 623.718945,113.74003 616.007649,113.791813 C612.215967,113.817164 607.603588,114.427574 605.757871,115.148097 C603.912132,115.86862 600.034571,116.670103 597.141013,116.929205 C594.247432,117.188285 591.438163,118.107854 590.898156,118.972689 C589.097348,121.856717 589.82452,125.738046 592.310148,126.509155 C597.09569,127.99378 594.512323,129.217621 584.863743,130.036895 C572.188009,131.113197 568.204855,130.050722 566.784365,125.217813 C565.628236,121.283663 562.260858,119.829066 558.13082,121.479805 C553.853297,123.189425 546.867238,122.789513 546.854134,120.834249 C546.840316,118.814342 544.968645,118.437752 543.875227,120.234969 C543.457785,120.921131 541.105064,120.137256 538.250956,118.360918 C534.142818,115.804208 532.876145,115.524525 530.467438,116.642379 C528.363624,117.618686 526.136255,117.621405 522.178826,116.651597 C518.340209,115.711749 515.491421,115.695202 512.378502,116.594674 C498.830874,120.509536 497.842772,120.533895 494.4201,117.037451 C492.296135,114.867678 489.930931,113.755862 487.344731,113.711499 C485.208031,113.674856 483.462334,114.015656 483.465374,114.468895 C483.467677,114.922088 481.862233,116.018417 479.89607,116.905146 C475.807853,118.748915 475.200184,120.716463 478.726261,120.692795 C480.040928,120.683577 481.120667,121.287512 481.125687,122.034007 C481.130293,122.78048 482.243932,121.960491 483.59957,120.211947 C486.520948,116.443748 488.589664,117.117489 487.524066,121.490083 C486.790008,124.502222 486.902947,124.573963 491.226691,123.842032 C494.785264,123.239595 495.556769,123.432142 495.04465,124.794925 C494.629834,125.898744 495.830826,127.169229 498.440078,128.386847 C502.026794,130.060585 507.665597,134.850744 506.061857,134.861507 C502.793255,134.884552 492.492305,132.241029 491.84956,131.215727 C491.265382,130.283921 490.375525,130.270532 488.799306,131.169866 C486.691532,132.372412 486.686626,132.482133 488.706495,133.24529 C490.238981,133.824313 490.616903,134.768379 490.049444,136.600026 C489.615121,138.001964 489.311816,140.631314 489.375471,142.443027 C489.481409,145.46178 489.123269,145.738006 485.08915,145.748307 C480.1868,145.75983 478.900252,145.111186 476.943578,141.63523 C476.205766,140.324576 475.123171,139.293859 474.537795,139.344766 C473.952418,139.395697 472.753039,138.726036 471.872487,137.856638 C470.991981,136.987263 469.842416,136.545362 469.317884,136.874616 C468.793376,137.203892 467.442505,135.737842 466.31597,133.616718 C465.085454,131.299821 464.487895,130.772466 464.819204,132.295855 C465.251109,134.281724 464.896355,134.710834 463.182946,134.274741 C461.47663,133.840445 461.142396,132.954892 461.664071,130.250482 C462.191597,127.515744 461.904528,126.785933 460.30544,126.796673 C459.190327,126.803586 457.496724,127.602603 456.541877,128.570982 C455.240222,129.891154 454.041303,130.046689 451.750278,129.192616 C450.069733,128.566143 448.113082,128.418696 447.402169,128.864976 C446.586791,129.376866 446.37837,128.961307 446.837634,127.739125 C447.349568,126.376896 446.46084,125.25948 443.843849,123.974937 C439.214727,121.702656 439.291072,121.696457 439.308828,124.343414 C439.315737,125.547827 440.807551,127.272819 442.621348,128.176717 C446.475211,130.097274 452.003977,134.028452 450.861919,134.036126 C450.429462,134.03843 451.028656,135.475812 452.193491,137.228989 C454.283947,140.375369 454.276785,140.407794 451.640241,139.736727 C449.812028,139.271412 448.972722,139.587622 448.980437,140.738869 C448.987346,141.663968 447.981926,142.427633 446.747748,142.435906 C444.2644,142.452038 441.379732,139.705385 442.590833,138.477097 C443.014769,138.047111 444.087438,138.289966 444.974484,139.016573 C447.669754,141.224579 446.690357,138.467602 443.512494,134.901168 C440.687588,131.730821 440.34428,131.643685 437.122084,133.279329 C433.944358,134.892411 433.574312,134.820462 431.581572,132.201851 C428.708902,128.426993 427.385806,128.679666 427.414755,132.997549 C427.430876,135.389483 428.036403,136.581452 429.231545,136.573409 C430.217552,136.566495 430.893666,137.135032 430.734022,137.836173 C430.574424,138.537315 433.409878,140.298051 437.035099,141.748891 C441.851685,143.67657 443.734019,145.092404 444.025971,147.007246 C444.245677,148.448454 445.015501,149.623691 445.736685,149.618851 C446.457846,149.614242 446.749498,149.912661 446.384772,150.282567 C446.020069,150.65245 443.692934,150.12286 441.213363,149.105555 C438.733769,148.088342 436.507367,147.456499 436.265782,147.70152 C435.533774,148.443937 437.2876,152.067616 438.375399,152.06031 C440.190094,152.048787 449.683474,161.386296 448.783899,162.298628 C448.303517,162.785814 446.913817,162.153901 445.695669,160.894294 C440.467582,155.488447 435.767666,152.077825 433.566712,152.092597 C431.957146,152.10412 431.426765,152.679064 431.903509,153.897811 C432.641897,155.785321 430.669584,156.228006 423.086128,155.876928 C418.431443,155.661451 418.155705,157.311452 422.224322,161.034181 C423.877876,162.547176 425.233791,164.234672 425.237475,164.784127 C425.239778,165.333582 424.594455,165.141658 423.800357,164.357621 C423.006283,163.573561 420.613512,162.943792 418.483076,162.95808 C416.352686,162.971908 414.296245,162.484261 413.913233,161.873343 C413.530244,161.262403 411.690562,160.816261 409.825063,160.881872 C405.552653,161.03213 403.691069,159.916904 403.672829,157.196154 C403.663617,155.757275 402.15331,154.623819 399.028761,153.709851 C393.076772,151.968842 392.88104,151.989353 392.896885,154.352041 C392.917612,157.407529 400.273325,163.325405 403.307274,162.727163 C405.248634,162.344397 406.023777,162.897701 406.431547,164.957177 C407.049349,168.077562 405.42707,170.221893 402.433377,170.241989 C397.183781,170.277249 384.690375,162.865575 375.853304,154.473492 C374.592296,153.27597 373.219892,152.641684 372.80351,153.063972 C372.387128,153.486261 372.625258,154.202291 373.33244,154.655115 C374.738283,155.55521 377.890169,160.840644 377.968563,162.429528 C377.995508,162.975733 378.96339,164.104994 380.119381,164.938971 C381.275349,165.772971 382.224691,166.982339 382.228998,167.626489 C382.233604,168.270593 383.615934,169.415271 385.301476,170.170132 C388.976373,171.815962 388.133199,173.926071 383.789027,173.955246 C382.07191,173.966769 379.742495,174.824783 378.612574,175.861953 C377.192452,177.165463 376.303218,177.341048 375.732465,176.430652 L375.747919,176.430951 Z" id="path2987-path" fill="#FCFBF9" fill-rule="nonzero" transform="translate(960.000000, 103.811648) scale(1, -1) translate(-960.000000, -103.811648) "></path>
        <path d="M401.615596,43.9746718 C400.899824,41.7694081 395.433999,39.3266816 393.077247,40.1588379 C392.082627,40.510031 392.06137,41.7403244 392.998254,44.7239789 C394.61671,49.8774529 399.958104,52.2640631 401.395682,48.4760224 C401.89396,47.1630641 401.992873,45.1374414 401.615389,43.9746718 L401.615596,43.9746718 Z" id="path2987-path" fill="#FCFBF9" fill-rule="nonzero" transform="translate(397.078853, 45.162313) scale(1, -1) translate(-397.078853, -45.162313) "></path>
        <path d="M393.871782,47.5777363 C393.867176,46.9199666 394.399353,46.0455675 395.053981,45.6346171 C395.708585,45.2236666 396.247787,45.4255928 396.252185,46.0834085 C396.256791,46.7412013 395.724637,47.6156003 395.07001,48.0265508 C394.415405,48.4375013 393.876203,48.2355751 393.871782,47.5777363 Z" id="path2987-path" fill="#FCFBF9" fill-rule="nonzero" transform="translate(395.061984, 46.830583) scale(1, -1) translate(-395.061984, -46.830583) "></path>
        <path d="M449.590539,60.8903068 C449.237581,60.3272779 449.595145,58.4343983 450.388229,56.6839409 C451.585513,54.0367302 452.381406,53.6166767 455.119074,54.1871493 C457.008317,54.5808617 458.407067,54.3574569 458.402392,53.6626298 C458.39318,52.2674906 454.614073,50.8772142 452.23611,51.3940826 C451.347636,51.5872053 450.739943,51.1044676 450.885677,50.3213064 C451.031457,49.5381682 450.083657,48.5663782 448.779561,48.1618113 C447.475464,47.7572445 446.405283,46.94871 446.401368,46.3650552 C446.399065,45.7814004 444.556112,44.9715754 442.309489,44.5654184 C440.062867,44.1592383 437.118182,42.8091074 435.765699,41.5650788 C432.811342,38.8476479 432.007733,38.7409695 432.023348,41.0683523 C432.030257,42.1877038 431.339149,42.5628644 430.116256,42.1026883 C428.703205,41.5709324 428.316416,41.9775503 428.648946,43.6451124 C428.897325,44.8905698 429.900051,45.9287084 430.87726,45.9520536 C431.854469,45.9755602 432.530284,46.6239734 432.379115,47.3933533 C432.227808,48.1627101 434.253273,49.4208196 436.879891,50.1891164 C439.506485,50.9574362 441.658593,52.0390389 441.6623,52.5927112 C441.664603,53.1463605 442.887266,54.8021693 444.376202,56.2722299 C445.865137,57.7423366 447.153274,59.3483206 447.238738,59.8411063 C447.565373,61.7241685 447.7369,61.930796 448.966656,61.9225457 C449.662784,61.9179365 449.943543,61.4533588 449.590539,60.8903068 Z" id="path2987-path" fill="#FCFBF9" fill-rule="nonzero" transform="translate(443.469796, 50.670457) scale(1, -1) translate(-443.469796, -50.670457) "></path>
        <path d="M460.815591,44.2700145 C460.810985,43.6122448 460.237998,43.0778848 459.541871,43.082563 C458.845743,43.0871722 458.612196,43.6270171 459.022867,44.2820674 C459.433538,44.9371177 460.006708,45.4714778 460.296564,45.4695189 C460.586442,45.4672835 460.820013,44.9278072 460.815591,44.2700145 Z" id="path2987-path" fill="#FCFBF9" fill-rule="nonzero" transform="translate(459.817929, 44.276028) scale(1, -1) translate(-459.817929, -44.276028) "></path>
        <path d="M175.977958,53.1420799 C177.251056,53.6211534 177.601181,53.3954902 177.020894,52.4698836 C175.677992,50.3278572 172.689504,50.8404391 172.811333,53.1919047 C172.87098,54.3426905 173.176588,54.6399797 173.490579,53.852532 C173.80457,53.0651074 174.923875,52.7454177 175.977958,53.1420799 Z" id="path2987-path" fill="#FCFBF9" fill-rule="nonzero" transform="translate(175.050138, 52.703653) scale(1, -1) translate(-175.050138, -52.703653) "></path>
        <path d="M361.912821,57.2006513 C363.13249,55.9636516 360.403873,51.9859218 358.345175,51.9997492 C356.79445,52.0089675 356.721952,52.3381519 357.948023,53.7964362 C359.065715,55.1258491 359.088077,55.5828218 358.035767,55.5898968 C357.259126,55.5945059 356.959713,56.1353188 357.370384,56.7903921 C358.208308,58.1269492 360.771155,58.3584199 361.912729,57.2006513 L361.912821,57.2006513 Z" id="path2987-path" fill="#FCFBF9" fill-rule="nonzero" transform="translate(359.656546, 54.973005) scale(1, -1) translate(-359.656546, -54.973005) "></path>
        <path d="M213.103168,52.3869081 C212.732731,52.0211502 212.068891,52.6894057 211.628005,53.8719023 C210.990834,55.5807623 211.129037,55.7171927 212.30154,54.5369084 C213.112887,53.7201466 213.473629,52.7526661 213.103168,52.3869081 Z" id="path2987-path" fill="#FCFBF9" fill-rule="nonzero" transform="translate(212.250252, 53.797775) scale(1, -1) translate(-212.250252, -53.797775) "></path>
        <path d="M148.234869,53.5780166 C147.842138,52.951589 146.733336,52.7475196 145.770866,53.1245238 C143.306702,54.0897919 143.602292,54.7529082 146.488067,54.7335498 C147.84154,54.7243315 148.6276,54.2044672 148.234869,53.5780166 Z" id="path2987-path" fill="#FCFBF9" fill-rule="nonzero" transform="translate(146.220656, 53.834610) scale(1, -1) translate(-146.220656, -53.834610) "></path>
        <path d="M1817.45534,65.6586597 C1816.59033,65.3189665 1815.55977,65.3683764 1815.16538,65.7683571 C1814.77078,66.1684301 1815.4787,66.446384 1816.73821,66.3859812 C1818.13007,66.3191488 1818.41134,66.0339585 1817.45534,65.6585675 L1817.45534,65.6586597 Z" id="path2987-path" fill="#FCFBF9" fill-rule="nonzero" transform="translate(1816.536470, 65.913579) scale(1, -1) translate(-1816.536470, -65.913579) "></path>
        <path d="M163.83387,55.9641453 C163.43407,55.569419 163.156305,56.2776587 163.216666,57.5380728 C163.283453,58.9309304 163.56845,59.2124103 163.943585,58.2557843 C164.283048,57.3901426 164.233671,56.3588947 163.833732,55.9641453 L163.83387,55.9641453 Z" id="path2987-path" fill="#FCFBF9" fill-rule="nonzero" transform="translate(163.688784, 57.336241) scale(1, -1) translate(-163.688784, -57.336241) "></path>
        <path d="M1722.79778,74.2732597 C1719.83274,73.2503543 1717.1357,72.0922861 1716.8045,71.6997721 C1716.4731,71.3072812 1715.52935,70.936845 1714.7073,70.8765806 C1711.23622,70.6221333 1710.71576,70.3642983 1711.40097,69.238033 C1711.80547,68.5730501 1711.35722,68.3510971 1710.38088,68.7334249 C1709.42251,69.1088159 1706.92058,68.5416849 1704.82068,67.4728495 C1699.84256,64.9389544 1699.06829,65.9375696 1702.61158,70.3219633 C1705.59359,74.0118065 1711.0924,75.5434221 1722.80891,75.9475511 L1728.18872,76.1330688 L1722.79778,74.2732597 Z" id="path2987-path" fill="#FCFBF9" fill-rule="nonzero" transform="translate(1714.305737, 71.117943) scale(1, -1) translate(-1714.305737, -71.117943) "></path>
        <path d="M128.150775,60.519739 C129.386887,58.509142 129.246819,57.9645266 127.218751,56.8958525 C125.088845,55.7735051 120.060521,57.034818 120.071621,58.6886217 C120.101099,63.0873268 125.780781,64.3746352 128.150775,60.519739 Z" id="path2987-path" fill="#FCFBF9" fill-rule="nonzero" transform="translate(124.506867, 59.638397) scale(1, -1) translate(-124.506867, -59.638397) "></path>
        <path d="M510.501455,69.6254663 C510.290501,68.3023219 509.475653,66.5855343 508.690538,65.8103469 C507.905422,65.0351595 507.258371,63.7012988 507.252637,62.846189 C507.238819,60.7197645 506.44479,60.8960409 503.756176,63.6228744 C501.493064,65.9181085 501.500042,65.9833508 504.332755,69.0010899 C507.816019,72.7119046 511.045447,73.0387844 510.501455,69.6254663 Z" id="path2987-path" fill="#FCFBF9" fill-rule="nonzero" transform="translate(506.344458, 66.696855) scale(1, -1) translate(-506.344458, -66.696855) "></path>
        <path d="M150.782793,62.6424768 C152.229745,62.7116138 153.737381,62.2361815 154.133082,61.5857865 C154.543707,60.9108247 153.325213,60.413476 151.294243,60.427119 C146.906913,60.4566175 143.962182,61.5413775 143.972799,63.1242467 C143.977405,63.8041632 144.880757,63.9310758 146.066387,63.4184247 C147.213465,62.9224126 149.335841,62.5732245 150.782793,62.6424768 Z" id="path2987-path" fill="#FCFBF9" fill-rule="nonzero" transform="translate(149.092597, 62.079637) scale(1, -1) translate(-149.092597, -62.079637) "></path>
        <path d="M449.506779,64.4417903 C449.110732,63.4293477 448.213069,62.6048426 447.511966,62.6095669 C446.628075,62.6141761 446.651404,63.3801452 447.587965,65.1035239 C449.090097,67.867507 450.637989,67.3336539 449.506733,64.4417903 L449.506779,64.4417903 Z" id="path2987-path" fill="#FCFBF9" fill-rule="nonzero" transform="translate(448.381370, 64.763352) scale(1, -1) translate(-448.381370, -64.763352) "></path>
        <path d="M1763.63336,71.2773846 C1762.76824,70.9376913 1761.73769,70.9871012 1761.34319,71.387082 C1760.9488,71.787178 1761.6566,72.0650858 1762.916,72.0047061 C1764.308,71.9378736 1764.58924,71.6526834 1763.63336,71.2772924 L1763.63336,71.2773846 Z" id="path2987-path" fill="#FCFBF9" fill-rule="nonzero" transform="translate(1762.714381, 71.532301) scale(1, -1) translate(-1762.714381, -71.532301) "></path>
        <path d="M128.761715,74.6141352 L132.567376,74.4664124 L128.674754,73.2456138 C126.533793,72.5741781 124.762832,71.6991568 124.739272,71.3011119 C124.715551,70.903067 123.935042,69.5856148 123.004514,68.3734353 C121.496971,66.4096441 121.04579,66.3591972 118.86379,67.9104938 C117.516926,68.8680647 116.816745,70.0482107 117.307791,70.5330686 C117.79886,71.0179036 117.181356,72.170994 115.935479,73.0954943 C113.748389,74.718463 113.769669,74.8127198 116.553328,75.8309469 C118.213492,76.4382235 120.606861,76.4351123 122.196185,75.8240332 C123.714138,75.2400097 126.668633,74.6957169 128.761715,74.6145039 L128.761715,74.6141352 Z" id="path2987-path" fill="#FCFBF9" fill-rule="nonzero" transform="translate(123.470013, 71.550571) scale(1, -1) translate(-123.470013, -71.550571) "></path>
        <path d="M174.281982,71.7692722 C176.148495,70.3356929 176.274215,69.7201659 175.00821,68.2143615 C172.992694,65.8170581 167.936711,65.9273777 165.212285,68.4279949 C162.121636,71.2648945 162.506652,72.2275816 166.93995,72.7479299 C169.078078,72.9988973 171.096818,73.2714354 171.426055,73.3535702 C171.755292,73.4356128 173.040458,72.7227179 174.281982,71.769157 L174.281982,71.7692722 Z" id="path2987-path" fill="#FCFBF9" fill-rule="nonzero" transform="translate(169.520223, 69.921224) scale(1, -1) translate(-169.520223, -69.921224) "></path>
        <path d="M618.396219,73.1378371 C618.382401,71.0800887 614.696381,69.7432552 611.97534,70.8091407 C608.114936,72.3213288 610.052819,74.9072841 615.021449,74.873937 C617.163884,74.8601096 618.403496,74.2218596 618.396219,73.1378371 Z" id="path2987-path" fill="#FCFBF9" fill-rule="nonzero" transform="translate(614.163650, 72.653933) scale(1, -1) translate(-614.163650, -72.653933) "></path>
        <path d="M157.299085,69.3749815 C156.176142,68.266231 155.538695,68.2704945 154.430722,69.3934181 C153.322725,70.5171483 153.643556,70.8339341 155.874542,70.8189544 C158.105481,70.805127 158.422051,70.4829024 157.299085,69.3741749 L157.299085,69.3749815 Z" id="path2987-path" fill="#FCFBF9" fill-rule="nonzero" transform="translate(155.871135, 69.683378) scale(1, -1) translate(-155.871135, -69.683378) "></path>
        <path d="M1861.65023,86.3056486 C1866.36735,86.274076 1865.58544,85.6146701 1859.82213,84.7640311 C1857.00893,84.3487942 1855.58478,84.5379531 1856.04123,85.2660812 C1856.91345,86.657533 1850.56988,85.4045857 1848.84682,83.845154 C1848.21854,83.2765019 1845.79475,82.7532038 1843.46061,82.6822692 L1839.21671,82.5534438 L1843.39391,81.6442689 L1847.571,80.7350709 L1843.64819,80.603941 C1841.09114,80.5184415 1839.48098,81.1230218 1839.02363,82.3403174 C1838.63755,83.3674171 1837.5545,83.9190614 1836.61683,83.5661861 C1835.67242,83.2107987 1835.24113,83.4498054 1835.65003,84.1019519 C1836.05589,84.7494893 1838.3734,85.2970085 1840.79977,85.3186253 C1843.22635,85.3393664 1847.36588,85.7872592 1849.99883,86.3120092 C1852.63178,86.8367592 1855.50099,87.055601 1856.37477,86.798296 C1857.24846,86.540991 1859.62253,86.3193377 1861.65023,86.3057177 L1861.65023,86.3056486 Z" id="path2987-path" fill="#FCFBF9" fill-rule="nonzero" transform="translate(1850.111426, 83.751093) scale(1, -1) translate(-1850.111426, -83.751093) "></path>
        <path d="M503.648718,73.3419164 C503.644112,72.6841467 502.699583,72.1605029 501.549303,72.1783172 C499.761991,72.205972 499.719685,72.3774318 501.258411,73.3579792 C503.523688,74.8014451 503.658506,74.8005463 503.648718,73.3418472 L503.648718,73.3419164 Z" id="path2987-path" fill="#FCFBF9" fill-rule="nonzero" transform="translate(501.901309, 73.308055) scale(1, -1) translate(-501.901309, -73.308055) "></path>
        <path d="M589.094322,75.7216902 C589.496172,75.0611781 589.389428,74.4635346 588.857159,74.3935679 C580.512745,73.2968703 578.478045,73.7541657 580.930095,76.175183 C582.174728,77.4040707 588.276987,77.0651149 589.094322,75.7216902 Z" id="path2987-path" fill="#FCFBF9" fill-rule="nonzero" transform="translate(584.648644, 75.382815) scale(1, -1) translate(-584.648644, -75.382815) "></path>
        <path d="M533.931739,77.652702 C534.303489,76.6634663 534.086731,75.8576282 533.450021,75.8618916 C532.813287,75.8665008 532.297761,76.676948 532.304393,77.6636256 C532.311302,78.6502801 532.527784,79.4561413 532.786135,79.4544129 C533.044462,79.4521544 533.559989,78.6419145 533.931739,77.652702 Z" id="path2987-path" fill="#FCFBF9" fill-rule="nonzero" transform="translate(533.208949, 77.658145) scale(1, -1) translate(-533.208949, -77.658145) "></path>
        <path d="M214.218719,76.8967169 C216.736842,75.2762833 214.32719,74.5673752 207.839939,75.0200845 C199.976299,75.5688481 199.124903,78.0690044 206.827609,77.9928615 C210.004666,77.9612889 213.330659,77.4682036 214.218719,76.8967169 Z" id="path2987-path" fill="#FCFBF9" fill-rule="nonzero" transform="translate(208.336994, 76.440207) scale(1, -1) translate(-208.336994, -76.440207) "></path>
        <path d="M201.226275,78.8242693 C201.219366,77.6132882 200.031226,77.3703176 193.300248,77.2018998 C190.772153,77.1387547 189.755816,77.5896894 190.150665,78.5996201 C190.847161,80.3811199 201.238136,80.5918957 201.226275,78.8243154 L201.226275,78.8242693 Z" id="path2987-path" fill="#FCFBF9" fill-rule="nonzero" transform="translate(195.647183, 78.621982) scale(1, -1) translate(-195.647183, -78.621982) "></path>
        <path d="M613.554899,81.1642267 C613.550293,80.5064339 612.740143,79.973664 611.75416,79.9802781 C610.768154,79.9871918 609.965028,80.5305167 609.969427,81.1882863 C609.974033,81.8460791 610.784182,82.378849 611.770189,82.3722349 C612.756195,82.3653212 613.55932,81.8219963 613.554899,81.1642267 Z" id="path2987-path" fill="#FCFBF9" fill-rule="nonzero" transform="translate(611.762163, 81.176257) scale(1, -1) translate(-611.762163, -81.176257) "></path>
        <path d="M263.273999,84.0306203 C263.647845,83.6160056 263.278605,83.041039 262.456181,82.7528989 C261.632536,82.4647588 260.953542,81.4665815 260.947301,80.5347065 C260.92381,77.0499238 256.900746,79.3152676 255.613461,83.5380881 C254.783345,86.2611191 254.943472,86.3691803 258.665857,85.5981872 C260.826509,85.1506402 262.900176,84.4452581 263.273999,84.0306203 Z" id="path2987-path" fill="#FCFBF9" fill-rule="nonzero" transform="translate(259.311605, 82.418589) scale(1, -1) translate(-259.311605, -82.418589) "></path>
        <path d="M162.681703,88.0790117 L165.404609,86.2912204 L162.916586,84.0027387 C160.77422,82.032149 159.867068,81.9038307 156.386683,83.0792293 C152.228294,84.4835867 148.267618,87.93735 150.835301,87.9200888 C151.573113,87.9154796 152.182119,88.7049092 152.188613,89.6751552 C152.202431,91.8201546 158.425183,90.8736687 162.681703,88.0790117 Z" id="path2987-path" fill="#FCFBF9" fill-rule="nonzero" transform="translate(157.712874, 86.588787) scale(1, -1) translate(-157.712874, -86.588787) "></path>
        <path d="M113.342255,83.7895717 C112.931584,83.1345215 112.089515,82.6019589 111.470976,82.6061302 C110.852436,82.6107393 110.349967,83.1518518 110.354366,83.8096445 C110.358972,84.4674142 111.200857,84.9999767 112.225669,84.9931091 C113.250458,84.9861954 113.752926,84.4446451 113.342255,83.7895717 Z" id="path2987-path" fill="#FCFBF9" fill-rule="nonzero" transform="translate(111.919956, 83.799640) scale(1, -1) translate(-111.919956, -83.799640) "></path>
        <path d="M147.598412,95.3832317 C149.367438,94.4741029 151.616502,93.7248649 152.596359,93.7182969 C156.308312,93.6934076 155.621948,91.3061751 151.405478,89.5764128 C145.920653,87.3262791 146.109592,87.30351 146.129098,90.2121739 C146.147522,92.9162382 141.49081,95.4042955 139.638461,93.6803407 C137.921413,92.0822844 136.58215,92.4094638 136.595669,94.423725 C136.602578,95.4104256 135.832708,96.2229009 134.885484,96.2292615 C133.938283,96.2361752 132.81937,96.8061179 132.399027,97.4970503 C131.349895,99.2215121 143.38733,97.5475203 147.598412,95.3832317 Z" id="path2987-path" fill="#FCFBF9" fill-rule="nonzero" transform="translate(143.675050, 93.081864) scale(1, -1) translate(-143.675050, -93.081864) "></path>
        <path d="M182.498326,95.8386094 C185.502152,94.5261812 187.957703,93.1324249 187.955077,92.7413167 C187.952843,92.3502546 187.391257,92.381205 186.70798,92.8099928 C186.02468,93.238942 184.716967,92.976613 183.801893,92.2269372 C182.532503,91.1870241 181.288906,91.3107103 178.555107,92.7487144 C176.58443,93.7853089 174.590124,95.2612 174.123329,96.0284597 C173.595642,96.8958298 173.794368,97.0972029 174.648712,96.5608609 C175.404465,96.0864196 176.026643,96.2681808 176.031318,96.9648055 C176.042833,98.6319297 176.145777,98.6139541 182.498326,95.8384481 L182.498326,95.8386094 Z" id="path2987-path" fill="#FCFBF9" fill-rule="nonzero" transform="translate(180.893714, 94.819171) scale(1, -1) translate(-180.893714, -94.819171) "></path>
        <path d="M159.688793,94.9290057 C160.125235,93.767688 159.768937,93.4158727 158.614351,93.8681441 C156.728816,94.606758 156.250391,96.6852014 157.968567,96.6736785 C158.555579,96.6690694 159.329686,95.8846177 159.688793,94.9290057 Z" id="path2987-path" fill="#FCFBF9" fill-rule="nonzero" transform="translate(158.388222, 95.175600) scale(1, -1) translate(-158.388222, -95.175600) "></path>
        <path d="M779.774517,112.621605 C778.950619,112.295347 777.606058,112.304381 776.786605,112.642346 C775.967175,112.979643 776.641286,113.246604 778.284591,113.235565 C779.927943,113.224042 780.598392,112.948554 779.774517,112.622296 L779.774517,112.621605 Z" id="path2987-path" fill="#FCFBF9" fill-rule="nonzero" transform="translate(778.282358, 112.809331) scale(1, -1) translate(-778.282358, -112.809331) "></path>
        <path d="M927.325396,116.618666 C927.562122,115.878577 926.521557,114.938521 925.012954,114.52969 C921.134656,113.478715 902.511447,113.026674 901.937839,113.969588 C901.359878,114.919623 896.918635,114.71795 895.882193,113.694561 C894.897637,112.722471 891.793263,113.976801 891.802429,115.343018 C891.807035,115.933264 896.784485,116.380465 902.864843,116.336771 C917.96278,116.228687 917.960639,116.228687 918.798148,117.564184 C919.774942,119.122233 926.772216,118.346354 927.325396,116.618666 Z" id="path2987-path" fill="#FCFBF9" fill-rule="nonzero" transform="translate(909.580692, 115.877561) scale(1, -1) translate(-909.580692, -115.877561) "></path>
        <path d="M872.65303,120.02738 C872.650727,119.534041 872.378098,119.132217 872.049437,119.134429 C867.291646,119.166463 867.242662,119.186282 869.069562,120.349328 C871.027872,121.595961 872.662565,121.449091 872.65303,120.02738 Z" id="path2987-path" fill="#FCFBF9" fill-rule="nonzero" transform="translate(870.304017, 120.165557) scale(1, -1) translate(-870.304017, -120.165557) "></path>
        <path d="M1917.18572,132.900652 C1917.18572,132.648417 1915.85253,132.196906 1914.22719,131.897266 C1912.60164,131.597603 1911.55917,131.810845 1911.91049,132.371408 C1912.5291,133.358224 1917.19189,133.826028 1917.18572,132.900652 Z" id="path2987-path" fill="#FCFBF9" fill-rule="nonzero" transform="translate(1914.514038, 132.580783) scale(1, -1) translate(-1914.514038, -132.580783) "></path>
        <path d="M43.861922,21.4007939 C43.85271,19.9088629 45.0368895,18.3610232 46.8239945,17.5316784 C48.4623256,16.7713785 49.8046521,16.4303717 49.8069551,16.7738444 C49.809189,17.1173633 48.4763278,18.8584641 46.8448596,20.6429599 C44.0755713,23.6720605 43.8774903,23.7223922 43.861922,21.4007939 Z" id="path2987-path" fill="#FCFBF9" fill-rule="nonzero" transform="translate(46.834413, 19.839958) scale(1, -1) translate(-46.834413, -19.839958) "></path>
        <path d="M205.213183,19.1271739 C205.208577,18.4305722 205.742527,17.8570114 206.399873,17.8525867 C207.057195,17.8479775 207.596604,18.0818911 207.598538,18.3719671 C207.600795,18.662043 207.066499,19.2356038 206.411894,19.6465542 C205.757267,20.0574817 205.217858,19.8237755 205.213183,19.1271739 Z" id="path2987-path" fill="#FCFBF9" fill-rule="nonzero" transform="translate(206.405849, 18.850928) scale(1, -1) translate(-206.405849, -18.850928) "></path>
        <path d="M182.544202,21.3602848 C181.607572,19.6369062 181.584265,18.8722276 182.467973,18.8663049 C183.916859,18.8570866 185.517329,22.2000923 184.53883,23.1925083 C184.184606,23.5517443 183.286942,22.7272622 182.544018,21.3602848 L182.544202,21.3602848 Z" id="path2987-path" fill="#FCFBF9" fill-rule="nonzero" transform="translate(183.331209, 21.071476) scale(1, -1) translate(-183.331209, -21.071476) "></path>
        <path d="M444.062326,29.9546754 C442.977498,29.6741173 441.839839,28.5131684 441.534162,27.374735 C440.85579,24.8482376 442.999284,18.7565741 443.815997,20.8899584 C444.129988,21.710131 445.148789,22.3760358 446.079984,22.3697904 C447.011225,22.3628767 447.778308,23.129445 447.784618,24.0717827 C447.791527,25.0141204 448.967255,26.1484516 450.398639,26.5925187 L453.001121,27.3998779 L450.11613,29.0246672 C448.529386,29.9183093 446.961941,30.6079051 446.632911,30.5571124 C446.303882,30.5064119 445.147108,30.2352335 444.062326,29.9546754 Z" id="path2987-path" fill="#FCFBF9" fill-rule="nonzero" transform="translate(447.202300, 25.502267) scale(1, -1) translate(-447.202300, -25.502267) "></path>
        <path d="M1777.79064,38.0159099 C1777.43584,37.6656618 1773.44409,37.2564166 1768.92006,37.1064815 C1760.06085,36.8129026 1753.50755,34.4863034 1753.48844,31.6279712 C1753.47692,30.3847262 1755.03819,29.7273483 1758.66986,29.4417893 C1761.96193,29.1829403 1763.59177,29.4795842 1763.12191,30.2520522 C1762.2505,31.6843871 1773.14799,35.0953084 1778.52893,35.074406 C1780.54606,35.0674923 1785.15678,35.4051345 1788.77519,35.8267321 C1794.11992,36.4494954 1794.79454,36.7572012 1792.37178,37.467008 C1788.76395,38.524021 1778.68929,38.9032606 1777.79064,38.0159099 Z" id="path2987-path" fill="#FCFBF9" fill-rule="nonzero" transform="translate(1773.599559, 33.930736) scale(1, -1) translate(-1773.599559, -33.930736) "></path>
        <path d="M1682.73556,30.1945961 C1683.13004,29.7945001 1684.16072,29.7451132 1685.02573,30.0846682 C1685.98173,30.4600592 1685.70046,30.7453417 1684.30837,30.8120819 C1683.04909,30.8724616 1682.34117,30.5945308 1682.73556,30.1944578 L1682.73556,30.1945961 Z" id="path2987-path" fill="#FCFBF9" fill-rule="nonzero" transform="translate(1684.106795, 30.339688) scale(1, -1) translate(-1684.106795, -30.339688) "></path>
        <path d="M90.7505169,21.9607896 C91.0189085,21.1367223 92.9401171,20.3972327 95.0198872,20.3174946 C98.0655816,20.200653 98.5428783,20.4884935 97.4730888,21.7960591 C95.7717016,23.8757239 90.0814724,24.0151503 90.7505169,21.9608357 L90.7505169,21.9607896 Z" id="path2987-path" fill="#FCFBF9" fill-rule="nonzero" transform="translate(94.343859, 21.862290) scale(1, -1) translate(-94.343859, -21.862290) "></path>
        <path d="M85.6590216,27.6548741 C85.6475066,25.9774945 90.0196599,23.9557204 95.527169,23.0914154 C101.105795,22.2159332 104.12588,22.9602855 102.935275,24.9172782 C102.549615,25.5511956 101.385471,25.4660419 100.164904,24.7147067 C98.5413584,23.7151697 96.7937038,24.0061213 92.5255771,25.9865054 C86.442364,28.8090937 85.6680033,28.9972616 85.6590216,27.6549662 L85.6590216,27.6548741 Z" id="path2987-path" fill="#FCFBF9" fill-rule="nonzero" transform="translate(94.425819, 25.594908) scale(1, -1) translate(-94.425819, -25.594908) "></path>
        <path d="M460.93636,26.8243272 C460.931754,26.1277255 461.465682,25.5541647 462.123027,25.549763 C462.780372,25.5451539 463.319758,25.7790675 463.321715,26.0691204 C463.323949,26.3591963 462.789653,26.9327571 462.135049,27.3437075 C461.480444,27.754658 460.941035,27.5209288 460.93636,26.8243272 Z" id="path2987-path" fill="#FCFBF9" fill-rule="nonzero" transform="translate(462.129026, 26.548098) scale(1, -1) translate(-462.129026, -26.548098) "></path>
        <path d="M140.626218,34.5860614 C140.621612,33.9282686 139.799924,33.3955678 138.799824,33.4022741 C137.799746,33.4091878 136.350652,32.0533185 135.579654,30.3896743 C134.438633,27.9276586 134.525617,27.0121231 136.047048,25.4690768 C137.747928,23.7440619 137.988131,23.7947623 138.714382,26.0323131 C139.226616,27.6105501 140.163154,28.2364707 141.329024,27.7797745 C142.533954,27.307776 143.01885,27.6788345 142.769251,28.882464 C142.562212,29.8802957 143.745032,31.8112698 145.397573,33.1734997 L148.402205,35.6502646 L144.518219,35.7161752 C142.382025,35.7523569 140.630617,35.243808 140.626218,34.5860383 L140.626218,34.5860614 Z" id="path2987-path" fill="#FCFBF9" fill-rule="nonzero" transform="translate(141.603143, 29.986892) scale(1, -1) translate(-141.603143, -29.986892) "></path>
        <path d="M323.081272,41.4324749 C322.640109,40.9969347 322.272527,39.6538557 322.264444,38.4479216 C322.252929,36.7982891 323.157616,36.2492258 325.915735,36.2306971 C329.037866,36.209956 329.466823,35.8519645 328.807036,33.8192437 C327.929501,31.115525 329.287511,30.6981678 331.791033,32.9021871 C333.200838,34.1432889 333.242775,34.0780697 332.047657,32.5033356 C330.929896,31.0305095 330.985283,30.11903 332.302138,28.3155445 C333.957212,26.048841 334.016169,26.0500855 335.829989,28.3899821 C338.361653,31.6559 338.222667,32.4010589 334.784288,33.9967415 C333.14598,34.7570414 331.809964,36.0381044 331.815353,36.8435508 C331.824565,38.3212395 326.843545,42.2045972 324.921392,42.2175028 C324.350501,42.2198074 323.522411,41.8680843 323.081272,41.4324979 L323.081272,41.4324749 Z" id="path2987-path" fill="#FCFBF9" fill-rule="nonzero" transform="translate(329.916179, 34.421343) scale(1, -1) translate(-329.916179, -34.421343) "></path>
        <path d="M70.6330756,33.8565212 C70.1891263,33.1483737 68.5421819,32.9005866 66.9732172,33.3058678 C64.5844305,33.9228927 64.1175203,33.5954367 64.1020902,31.2922288 C64.0882722,29.305899 65.1258197,28.1400643 67.8347234,27.0960261 C72.0168791,25.4842115 73.8460829,25.9919078 72.9025438,28.502665 C71.8297834,31.3572637 76.2024894,32.6697841 81.7321534,31.1529638 C87.2027225,29.6523677 88.4456055,30.0791966 87.3208664,33.0721847 C86.7418922,34.6127881 84.9298918,35.0534445 79.0103529,35.0931982 C74.8467824,35.1210835 71.0770018,34.5646457 70.6330756,33.8565212 Z" id="path2987-path" fill="#FCFBF9" fill-rule="nonzero" transform="translate(75.900789, 30.632214) scale(1, -1) translate(-75.900789, -30.632214) "></path>
        <path d="M53.3421291,36.0156974 C53.3375231,35.3923349 54.728489,33.5681775 56.4321562,31.9619861 C59.1330224,29.4157385 59.4769064,29.3301007 59.1169014,31.2935693 C58.6865398,33.6407483 53.3554404,38.0000684 53.3421291,36.0156974 Z" id="path2987-path" fill="#FCFBF9" fill-rule="nonzero" transform="translate(56.288720, 33.222146) scale(1, -1) translate(-56.288720, -33.222146) "></path>
        <path d="M1677.54803,48.0013633 C1676.62084,47.4365829 1675.47219,47.2194926 1674.99515,47.5189251 C1674.51811,47.8183806 1673.78635,47.5191555 1673.36914,46.852905 C1672.9517,46.1871846 1673.31525,45.6295023 1674.17468,45.6136699 C1675.32904,45.5929288 1675.27642,45.2964001 1673.9734,44.484017 C1671.53017,42.9606748 1673.17935,41.6541924 1676.31677,42.6275265 C1677.73351,43.0670536 1678.59357,43.7299625 1678.22808,44.1006752 C1677.86248,44.471388 1678.44779,45.4125734 1679.52819,46.1922316 C1681.83446,47.8560372 1680.02412,49.5098871 1677.54805,48.0013633 L1677.54803,48.0013633 Z" id="path2987-path" fill="#FCFBF9" fill-rule="nonzero" transform="translate(1676.694338, 45.443085) scale(1, -1) translate(-1676.694338, -45.443085) "></path>
        <path d="M480.51004,41.845736 C480.072056,41.1471063 479.998751,40.2863733 480.347218,39.933014 C481.197601,39.0705987 483.538692,40.5644194 483.548158,41.9755062 C483.55737,43.5039184 481.494388,43.4157457 480.510109,41.845759 L480.51004,41.845736 Z" id="path2987-path" fill="#FCFBF9" fill-rule="nonzero" transform="translate(481.837638, 41.376323) scale(1, -1) translate(-481.837638, -41.376323) "></path>
        <path d="M1725.01755,52.4694723 C1721.47575,51.6294805 1722.68319,49.7581946 1726.7919,49.7195931 C1728.92812,49.698852 1733.63206,49.3557019 1737.24485,48.9555137 L1743.81367,48.2279157 L1740.90081,50.6224536 C1738.10829,52.9180103 1730.59348,53.7919023 1725.01755,52.4694723 Z" id="path2987-path" fill="#FCFBF9" fill-rule="nonzero" transform="translate(1733.371077, 50.658800) scale(1, -1) translate(-1733.371077, -50.658800) "></path>
        <path d="M484.727178,43.7295748 C484.722572,43.0329732 485.256523,42.4594124 485.913868,42.4550107 C486.571191,42.4504016 487.110599,42.6843152 487.112557,42.974368 C487.114791,43.264444 486.580495,43.8380047 485.92589,44.2489552 C485.271262,44.6599057 484.731854,44.4261765 484.727178,43.7295748 Z" id="path2987-path" fill="#FCFBF9" fill-rule="nonzero" transform="translate(485.919856, 43.453346) scale(1, -1) translate(-485.919856, -43.453346) "></path>
        <path d="M1911.73965,56.2757767 C1911.72814,55.3086649 1913.33745,53.9437156 1915.30488,53.242551 C1917.27231,52.5413863 1918.88335,52.1721945 1918.88503,52.4220788 C1918.88503,52.67194 1917.28242,54.0368893 1915.31971,55.4552815 C1912.539,57.4648875 1911.74889,57.6460035 1911.73965,56.2757767 Z" id="path2987-path" fill="#FCFBF9" fill-rule="nonzero" transform="translate(1915.312311, 54.752398) scale(1, -1) translate(-1915.312311, -54.752398) "></path>
        <path d="M1817.01754,61.1687128 C1814.48525,59.7154294 1814.29542,57.2936976 1816.56424,55.383649 C1818.59148,53.676794 1825.60034,51.5048543 1825.45336,52.6290224 C1824.96957,56.325134 1825.9176,57.6167058 1829.0982,57.5953425 C1833.74524,57.5642308 1836.35323,60.5576336 1832.58333,61.5956109 C1828.3787,62.7532182 1819.34698,62.5055233 1817.01754,61.1687128 Z" id="path2987-path" fill="#FCFBF9" fill-rule="nonzero" transform="translate(1824.685184, 57.326988) scale(1, -1) translate(-1824.685184, -57.326988) "></path>
        <path d="M1860.9241,56.1004823 C1860.51352,55.445432 1861.31669,54.9018306 1862.70878,54.892474 C1864.10111,54.8832558 1864.91137,55.4158874 1864.50957,56.0763995 C1864.10786,56.7369117 1863.30471,57.2805361 1862.72488,57.2844308 C1862.14515,57.2867354 1861.33479,56.7555326 1860.9241,56.1004823 Z" id="path2987-path" fill="#FCFBF9" fill-rule="nonzero" transform="translate(1862.714615, 56.088397) scale(1, -1) translate(-1862.714615, -56.088397) "></path>
        <path d="M261.192571,57.2614276 C259.86906,55.9546917 258.783172,54.4307733 258.779441,53.8749346 C258.777138,53.319096 259.841769,51.8830047 261.148445,50.6836155 C262.455144,49.4842033 263.519383,47.7790307 263.513442,46.8942842 C263.501927,45.0397987 264.589795,44.8696294 266.968057,46.354324 C267.947523,46.9657949 268.375328,48.4415248 268.000561,49.9159871 C267.648593,51.3006405 267.843957,52.7280205 268.434745,53.0879248 C269.643659,53.8243955 266.297193,59.6192076 264.656605,59.6302235 C264.07489,59.632528 262.516059,58.5681865 261.192571,57.2614276 Z" id="path2987-path" fill="#FCFBF9" fill-rule="nonzero" transform="translate(263.735948, 52.494088) scale(1, -1) translate(-263.735948, -52.494088) "></path>
        <path d="M5.72032002,63.8871766 C6.1505895,62.0753025 7.07453004,60.2143181 7.77349052,59.7516531 C8.54566336,59.2405231 8.11748961,58.6117449 6.68230612,58.1491951 C0.846918847,56.2685988 0.738931181,56.1048823 4.53957196,54.9006536 C7.01267146,54.1170315 8.48417326,52.8000633 8.72603431,51.1537724 C8.93123161,49.7575501 9.75945947,48.7453149 10.5666149,48.9043531 C12.3221457,49.2502226 12.5227139,46.0584426 10.8109632,45.0156258 C9.32833789,44.1123966 9.19738931,40.8403946 10.6435351,40.8306924 C11.2241905,40.8283878 11.9656413,41.8155724 12.2911703,43.0280054 C12.7567218,44.7618237 13.7083904,45.105527 16.7490412,44.6380915 C20.359293,44.0830595 20.5277574,44.2095111 19.296021,46.5502373 C18.570599,47.9287836 18.050858,49.4816703 18.1410665,50.0010738 C18.6993828,53.2158073 17.6811804,55.1828479 15.1158688,55.8454802 C13.5022028,56.2623073 11.4933421,57.4632406 10.6517107,58.5142156 C9.34570251,60.145135 9.42720567,60.3081371 11.2077701,59.6267225 C14.2777611,58.4518309 13.7620733,60.2550398 9.97603358,63.9338441 C5.75493411,68.0353752 4.73790631,68.0242211 5.72034305,63.8870614 L5.72032002,63.8871766 Z" id="path2987-path" fill="#FCFBF9" fill-rule="nonzero" transform="translate(10.967507, 53.915344) scale(1, -1) translate(-10.967507, -53.915344) "></path>
        <path d="M615.548122,53.263653 C614.562876,51.6920992 615.976941,49.4429795 617.403741,50.3122163 C618.861402,51.2002584 618.873677,54.4373462 617.419862,54.4470945 C616.801299,54.4517037 615.959231,53.9187263 615.54856,53.263653 L615.548122,53.263653 Z" id="path2987-path" fill="#FCFBF9" fill-rule="nonzero" transform="translate(616.861821, 52.282877) scale(1, -1) translate(-616.861821, -52.282877) "></path>
        <path d="M324.517077,50.9701123 C324.512471,50.09304 325.289987,49.3702123 326.247689,49.3637826 C327.205415,49.3568689 328.268986,50.067828 328.611189,50.9426188 C328.99982,51.9360948 328.350236,52.5390619 326.880577,52.5489254 C325.586544,52.5581437 324.522973,51.8471385 324.517077,50.9701123 Z" id="path2987-path" fill="#FCFBF9" fill-rule="nonzero" transform="translate(326.619413, 50.956373) scale(1, -1) translate(-326.619413, -50.956373) "></path>
        <path d="M1775.64813,65.0381473 C1771.99408,63.6006272 1772.62641,59.8619733 1776.60547,59.3773458 C1778.58043,59.1367489 1780.1022,59.8465557 1781.13197,61.4886293 C1783.78583,65.7212211 1781.36577,67.2876818 1775.64813,65.0381473 Z" id="path2987-path" fill="#FCFBF9" fill-rule="nonzero" transform="translate(1777.720338, 62.697977) scale(1, -1) translate(-1777.720338, -62.697977) "></path>
        <path d="M25.1487579,52.8935749 C22.3695207,50.8955378 22.9422537,48.8541518 26.2883744,48.8316823 C27.9317261,48.8201595 29.2796259,49.3123921 29.2837252,49.9244161 C29.2883312,50.5364631 30.4603048,51.2013539 31.8892242,51.4019665 C33.3181665,51.6024639 34.7143142,52.4412343 34.9917796,53.2656473 C35.6209131,55.134836 27.8581683,54.8413954 25.1487579,52.8935749 Z" id="path2987-path" fill="#FCFBF9" fill-rule="nonzero" transform="translate(29.202386, 51.676655) scale(1, -1) translate(-29.202386, -51.676655) "></path>
        <path d="M36.6567564,53.8493157 C37.8484668,52.6189071 39.4660248,52.109805 40.7037031,52.5755582 C43.2296104,53.5261001 42.8400349,53.9160099 38.2513766,55.0299226 C34.890747,55.8457396 34.7930998,55.7734453 36.6567564,53.8493157 Z" id="path2987-path" fill="#FCFBF9" fill-rule="nonzero" transform="translate(38.848048, 53.963692) scale(1, -1) translate(-38.848048, -53.963692) "></path>
        <path d="M488.21597,57.6433627 C488.211364,56.98557 489.046409,56.4417611 490.071198,56.4348705 C491.09601,56.4279568 491.605687,56.9627778 491.203836,57.6232899 C490.802009,58.283802 489.967125,58.8276108 489.348585,58.8317821 C488.730069,58.8363912 488.220369,58.3011554 488.21597,57.6433627 Z" id="path2987-path" fill="#FCFBF9" fill-rule="nonzero" transform="translate(489.778619, 57.633308) scale(1, -1) translate(-489.778619, -57.633308) "></path>
        <path d="M1611.66205,65.2501388 C1611.66205,64.5923461 1613.67087,64.0488599 1616.13602,64.042361 C1619.4698,64.0331427 1620.16075,64.3306624 1618.83297,65.2019733 C1616.48767,66.7411018 1611.67228,66.7734349 1611.66205,65.2501388 Z" id="path2987-path" fill="#FCFBF9" fill-rule="nonzero" transform="translate(1615.564678, 65.208409) scale(1, -1) translate(-1615.564678, -65.208409) "></path>
        <path d="M555.132627,59.8775154 C555.944319,58.88533 556.79461,58.0723016 557.022169,58.0707805 C557.249706,58.0696513 557.131792,58.8773561 556.759996,59.8665687 C556.388222,60.8557813 555.537955,61.6688097 554.870453,61.6733036 C554.170917,61.6779128 554.281968,60.9172902 555.132627,59.8775154 Z" id="path2987-path" fill="#FCFBF9" fill-rule="nonzero" transform="translate(555.774943, 59.872052) scale(1, -1) translate(-555.774943, -59.872052) "></path>
        <path d="M595.166319,60.8240407 C593.243337,60.0123951 593.655597,59.7896586 597.250396,59.6980981 C599.71509,59.6351834 601.735281,60.1221155 601.73968,60.7799083 C601.748892,62.2080488 598.497102,62.229873 595.166319,60.8239255 L595.166319,60.8240407 Z" id="path2987-path" fill="#FCFBF9" fill-rule="nonzero" transform="translate(597.885875, 60.778735) scale(1, -1) translate(-597.885875, -60.778735) "></path>
        <path d="M1649.891,67.9348434 C1648.44235,67.011841 1648.62992,66.7803472 1650.84992,66.7507105 C1652.38867,66.7299694 1653.2862,67.2451094 1652.87887,67.9147937 C1652.00025,69.3589049 1652.1244,69.3580752 1649.891,67.9355348 L1649.891,67.9348434 Z" id="path2987-path" fill="#FCFBF9" fill-rule="nonzero" transform="translate(1650.968928, 67.875139) scale(1, -1) translate(-1650.968928, -67.875139) "></path>
        <path d="M271.873239,60.0480213 C271.870982,59.7579224 272.405301,59.1843846 273.059906,58.7734341 C273.714511,58.3624836 274.253919,58.5962129 274.258595,59.2927915 C274.263201,59.9893931 273.729273,60.5629539 273.071951,60.5673787 C272.414606,60.5719878 271.875197,60.3380742 271.873239,60.0480213 Z" id="path2987-path" fill="#FCFBF9" fill-rule="nonzero" transform="translate(273.065928, 59.569043) scale(1, -1) translate(-273.065928, -59.569043) "></path>
        <path d="M637.587186,63.0208691 C637.577974,61.5257809 640.943348,60.3640714 641.715728,61.5960702 C642.065416,62.1538678 641.506155,62.9414307 640.472776,63.346228 C637.97386,64.3250931 637.595638,64.2824586 637.587186,63.0208691 Z" id="path2987-path" fill="#FCFBF9" fill-rule="nonzero" transform="translate(639.703562, 62.553597) scale(1, -1) translate(-639.703562, -62.553597) "></path>
        <path d="M269.466489,65.3063287 C269.45958,64.056193 268.94684,63.0705525 267.886908,62.2610501 C267.286262,61.802372 268.20661,61.4175783 269.932133,61.4059864 C273.958744,61.3790229 274.696464,62.5996141 271.773888,64.4534544 C270.507054,65.257011 269.468723,65.6407906 269.466489,65.3063287 Z" id="path2987-path" fill="#FCFBF9" fill-rule="nonzero" transform="translate(270.625750, 63.416379) scale(1, -1) translate(-270.625750, -63.416379) "></path>
        <path d="M1651.1963,72.8248051 C1649.62259,71.9657084 1648.87149,70.9261179 1649.52699,70.5145683 C1650.18261,70.1030186 1651.68796,70.8235186 1652.87247,72.1156896 C1655.37596,74.8468096 1655.10787,74.9602635 1651.1963,72.8248051 Z" id="path2987-path" fill="#FCFBF9" fill-rule="nonzero" transform="translate(1651.892781, 72.353509) scale(1, -1) translate(-1651.892781, -72.353509) "></path>
        <path d="M44.7607599,69.2067432 C43.7733486,69.0046327 40.966982,68.5271032 38.5244203,68.1457203 L34.0833152,67.4522298 L36.5542039,64.9462891 C38.6080653,62.8632596 39.9390841,62.5594024 44.4403895,63.1460301 C47.6851092,63.5688952 50.4779111,63.3278605 51.4080928,62.5448145 C52.565166,61.5706507 53.6566037,61.8781492 55.6941829,63.7523157 L58.4278669,66.2667833 L55.7858884,66.9771202 C54.3328336,67.3678135 53.4417338,68.1624976 53.8056999,68.7430873 C54.4261051,69.7326686 48.7504769,70.0236203 44.7607599,69.2067432 Z" id="path2987-path" fill="#FCFBF9" fill-rule="nonzero" transform="translate(46.255591, 65.842826) scale(1, -1) translate(-46.255591, -65.842826) "></path>
        <path d="M83.5913192,64.4994752 C86.8693863,63.1931541 90.0895098,62.1602008 90.7471775,62.2040337 C92.8173672,62.3420773 82.5306265,66.7745904 80.0212778,66.8258209 C78.7067254,66.8525539 80.3132521,65.8058193 83.5913192,64.4994752 Z" id="path2987-path" fill="#FCFBF9" fill-rule="nonzero" transform="translate(85.291379, 64.514505) scale(1, -1) translate(-85.291379, -64.514505) "></path>
        <path d="M226.422062,67.7017836 C226.419759,67.1495862 224.931652,66.0125817 223.118293,65.1751018 C221.301319,64.3359396 220.472216,63.4112779 221.27138,63.1152562 C222.068978,62.8198107 224.073877,63.5496903 225.72674,64.7371879 C228.859073,66.9875981 229.671687,68.6839903 227.623952,68.6977486 C226.966629,68.7023577 226.42577,68.253981 226.422062,67.7017836 Z" id="path2987-path" fill="#FCFBF9" fill-rule="nonzero" transform="translate(224.858282, 65.873691) scale(1, -1) translate(-224.858282, -65.873691) "></path>
        <path d="M681.772451,70.3368776 C681.765542,69.3919357 682.521087,67.978821 683.450186,67.1966277 C684.837168,66.0289494 685.026475,66.2187997 684.508231,68.2577428 C683.746467,71.2547177 681.788595,72.7426848 681.772451,70.3368776 Z" id="path2987-path" fill="#FCFBF9" fill-rule="nonzero" transform="translate(683.272465, 69.006466) scale(1, -1) translate(-683.272465, -69.006466) "></path>
        <path d="M24.7583534,63.3156794 C25.1528342,62.9156065 26.1833576,62.8661966 27.0484335,63.205982 C28.0044088,63.58135 27.7231203,63.8666554 26.3312102,63.9333727 C25.0716765,63.9937523 24.3638956,63.7158215 24.7583534,63.3157716 L24.7583534,63.3156794 Z" id="path2987-path" fill="#FCFBF9" fill-rule="nonzero" transform="translate(26.129516, 63.460899) scale(1, -1) translate(-26.129516, -63.460899) "></path>
        <path d="M571.223664,67.247577 C570.800396,66.5724539 571.278936,66.3687532 572.345133,66.7700245 C574.420965,67.5511807 574.805543,68.4058757 573.0864,68.4174216 C572.467837,68.4220307 571.629614,67.8951375 571.223664,67.247577 Z" id="path2987-path" fill="#FCFBF9" fill-rule="nonzero" transform="translate(572.620182, 67.491348) scale(1, -1) translate(-572.620182, -67.491348) "></path>
        <path d="M1639.07132,78.9643653 C1637.42498,78.5139837 1633.03376,78.1860898 1629.31314,78.235661 C1624.69556,78.297193 1622.87679,77.9224703 1623.58291,77.0549158 C1624.24707,76.238638 1627.09413,76.0764425 1631.54033,76.6015382 C1635.34811,77.0512285 1639.94287,77.4546431 1641.75084,77.497992 C1643.55893,77.5413179 1645.04176,78.11504 1645.04616,78.7728327 C1645.05767,80.115612 1643.46614,80.166543 1639.07132,78.9643422 L1639.07132,78.9643653 Z" id="path2987-path" fill="#FCFBF9" fill-rule="nonzero" transform="translate(1634.240882, 78.061949) scale(1, -1) translate(-1634.240882, -78.061949) "></path>
        <path d="M31.1025655,67.9287054 C31.4374217,67.3782825 32.2174938,66.9245362 32.8360335,66.920388 C33.4545732,66.9157788 33.9636744,67.3613209 33.9673362,67.9094623 C33.9696392,68.4576267 33.1909488,68.911373 32.2338681,68.9178028 C31.2767644,68.9247165 30.7676862,68.4791283 31.1025655,67.9287054 Z" id="path2987-path" fill="#FCFBF9" fill-rule="nonzero" transform="translate(32.483459, 67.919117) scale(1, -1) translate(-32.483459, -67.919117) "></path>
        <path d="M9.44052512,74.7912866 C10.2436042,72.0516397 14.3660202,67.7834423 16.2761744,67.7139365 C16.7690624,67.6955 17.1795721,68.7576982 17.1883926,70.0732606 C17.1999076,71.6907214 18.0011904,72.4598477 19.6652921,72.4486706 C23.3761389,72.4237813 21.4092848,74.4145128 16.9529569,75.1939867 C14.8030835,75.570023 12.0434908,76.2807286 10.8205518,76.7733069 C8.91035151,77.5427098 8.7158862,77.2633732 9.44052512,74.7912866 Z" id="path2987-path" fill="#FCFBF9" fill-rule="nonzero" transform="translate(15.332948, 72.433082) scale(1, -1) translate(-15.332948, -72.433082) "></path>
        <path d="M563.837345,73.1023708 C564.816741,72.1090792 566.260147,71.2920639 567.044917,71.2867864 C568.123527,71.2798727 568.111597,71.7175101 566.996093,73.0811458 C566.184378,74.0733312 564.740996,74.8903235 563.788521,74.8967302 C562.303386,74.9059485 562.310341,74.6511785 563.837345,73.1023708 Z" id="path2987-path" fill="#FCFBF9" fill-rule="nonzero" transform="translate(565.263370, 73.091836) scale(1, -1) translate(-565.263370, -73.091836) "></path>
        <path d="M640.231307,72.2323876 C640.625788,71.8323147 641.656334,71.7829278 642.52141,72.1226902 C643.477385,72.4980582 643.196097,72.7833636 641.804187,72.8500809 C640.54463,72.9104605 639.836849,72.6325297 640.231307,72.2324798 L640.231307,72.2323876 Z" id="path2987-path" fill="#FCFBF9" fill-rule="nonzero" transform="translate(641.602481, 72.377612) scale(1, -1) translate(-641.602481, -72.377612) "></path>
        <path d="M1535.95231,78.3294566 C1536.75919,77.9964235 1538.37261,77.9656345 1539.53753,78.261011 C1540.70225,78.5564335 1540.04214,78.8289255 1538.0702,78.8665361 C1536.09828,78.904331 1535.14532,78.6623514 1535.95231,78.3293875 L1535.95231,78.3294566 Z" id="path2987-path" fill="#FCFBF9" fill-rule="nonzero" transform="translate(1537.889065, 78.464269) scale(1, -1) translate(-1537.889065, -78.464269) "></path>
        <path d="M1538.31862,81.9334316 C1539.1255,81.6003985 1540.73868,81.5696095 1541.90363,81.8649859 C1543.06845,82.1603854 1542.40834,82.4329005 1540.43639,82.4705111 C1538.46459,82.508306 1537.5114,82.2663264 1538.31862,81.9333624 L1538.31862,81.9334316 Z" id="path2987-path" fill="#FCFBF9" fill-rule="nonzero" transform="translate(1540.255255, 82.068244) scale(1, -1) translate(-1540.255255, -82.068244) "></path>
        <path d="M1520.10772,86.9021268 C1517.82126,84.6445033 1518.89229,83.0939672 1523.08389,82.5937608 C1525.52555,82.3023713 1526.11415,82.8161516 1526.44422,85.5268761 C1526.76247,88.1401636 1526.35647,88.8165311 1524.46025,88.8292754 C1523.14879,88.8384937 1521.19025,87.9708701 1520.10772,86.9021268 Z" id="path2987-path" fill="#FCFBF9" fill-rule="nonzero" transform="translate(1522.736256, 85.675389) scale(1, -1) translate(-1522.736256, -85.675389) "></path>
        <path d="M1489.35489,86.2362039 C1488.90889,85.7959623 1486.76613,85.0202449 1484.59279,84.5124104 C1481.66241,83.8276312 1482.73254,83.6564709 1488.73503,83.8498933 C1493.18639,83.9932374 1497.1785,84.4563402 1497.60628,84.8788136 C1498.0343,85.3012869 1497.62471,85.6594167 1496.69132,85.6746499 C1495.76008,85.6907819 1493.91096,86.0025668 1492.58194,86.3695231 C1491.25293,86.7364564 1489.80077,86.6764915 1489.35489,86.2360886 L1489.35489,86.2362039 Z" id="path2987-path" fill="#FCFBF9" fill-rule="nonzero" transform="translate(1490.400978, 85.192699) scale(1, -1) translate(-1490.400978, -85.192699) "></path>
        <path d="M75.1828592,78.1680149 C74.7928001,77.5458508 75.5279177,76.4630267 76.8164692,75.7617929 C79.3162835,74.4013375 81.2748697,75.8590456 79.9260257,78.0761779 C79.0000585,79.5981604 76.1144687,79.6540462 75.1828592,78.1678997 L75.1828592,78.1680149 Z" id="path2987-path" fill="#FCFBF9" fill-rule="nonzero" transform="translate(77.721970, 77.243179) scale(1, -1) translate(-77.721970, -77.243179) "></path>
        <path d="M1461.51028,96.7289169 C1456.79779,94.6775982 1456.76675,94.6237866 1459.69658,93.5995215 C1461.33608,93.0263064 1462.94625,92.5207995 1463.2745,92.4761831 C1463.603,92.4314745 1464.40727,92.0657857 1465.0619,91.663316 C1465.71662,91.2608002 1467.19452,91.0769418 1468.34607,91.2547162 C1472.37855,91.877226 1470.38526,89.6562912 1466.23864,88.9066614 C1463.93509,88.490203 1462.04681,87.6356693 1462.04267,87.0076977 C1462.03115,85.4991278 1464.0121,85.5483073 1467.01616,87.1312225 C1468.35473,87.8365355 1472.22448,88.6830031 1475.6154,89.0122797 C1482.66451,89.6966902 1483.65796,90.1454126 1480.46879,91.2045458 C1479.22715,91.6169251 1477.03706,92.5253165 1475.6019,93.2232087 C1474.16695,93.9211239 1471.34485,94.1738198 1469.33097,93.7847857 C1466.57027,93.2515549 1465.67196,93.5116253 1465.68085,94.8415221 C1465.69237,95.8117451 1466.53126,96.5999302 1467.55596,96.5930396 C1468.58077,96.5861259 1469.09042,97.1209469 1468.68862,97.781459 C1467.75613,99.3141808 1467.2936,99.2463574 1461.51028,96.7289169 Z" id="path2987-path" fill="#FCFBF9" fill-rule="nonzero" transform="translate(1469.947791, 92.356295) scale(1, -1) translate(-1469.947791, -92.356295) "></path>
        <path d="M1511.1166,87.3087813 C1509.71866,86.4179507 1510.06648,86.1523723 1512.67322,86.1206384 C1514.61062,86.09621 1515.72136,86.587636 1515.29966,87.2807117 C1514.39246,88.771813 1513.42276,88.7783349 1511.1166,87.3088274 L1511.1166,87.3087813 Z" id="path2987-path" fill="#FCFBF9" fill-rule="nonzero" transform="translate(1512.847994, 87.262401) scale(1, -1) translate(-1512.847994, -87.262401) "></path>
        <path d="M1488.88392,95.7005846 C1488.28273,94.7414467 1494.65126,93.5504922 1504.48334,92.783463 L1511.65099,92.2243288 L1505.597,93.2377394 C1502.26716,93.7951221 1498.46072,94.8401743 1497.13778,95.5600982 C1494.57917,96.952541 1489.7206,97.0352289 1488.88392,95.7006768 L1488.88392,95.7005846 Z" id="path2987-path" fill="#FCFBF9" fill-rule="nonzero" transform="translate(1500.247867, 94.439526) scale(1, -1) translate(-1500.247867, -94.439526) "></path>
        <path d="M1418.50204,96.9150507 C1414.05989,94.6483241 1413.92775,94.4321326 1416.3205,93.3443998 C1417.72125,92.7076017 1419.84105,92.6030204 1421.0313,93.1120072 C1422.22131,93.620994 1423.86667,93.9244364 1424.68736,93.7863237 C1425.50808,93.6482801 1426.18316,94.0530082 1426.18733,94.6858425 C1426.18733,95.3186307 1426.52728,96.6855158 1426.93325,97.7233087 C1427.94344,100.305669 1424.49978,99.9755395 1418.50204,96.9150507 Z" id="path2987-path" fill="#FCFBF9" fill-rule="nonzero" transform="translate(1420.940802, 96.123015) scale(1, -1) translate(-1420.940802, -96.123015) "></path>
        <path d="M1512.56639,97.2260778 C1512.96101,96.8260049 1513.99144,96.7765949 1514.85647,97.1163804 C1515.81244,97.4917483 1515.53131,97.7770538 1514.13931,97.843771 C1512.8798,97.9041507 1512.17188,97.6262199 1512.56639,97.22617 L1512.56639,97.2260778 Z" id="path2987-path" fill="#FCFBF9" fill-rule="nonzero" transform="translate(1513.937569, 97.371297) scale(1, -1) translate(-1513.937569, -97.371297) "></path>
        <path d="M1384.3178,103.129051 C1384.3178,102.471258 1385.1484,101.927426 1386.17312,101.920559 C1387.19793,101.913645 1387.70759,102.448466 1387.30578,103.108978 C1386.90396,103.76949 1386.06898,104.313299 1385.45046,104.317447 C1384.83183,104.322056 1384.32218,103.786821 1384.3178,103.129051 Z" id="path2987-path" fill="#FCFBF9" fill-rule="nonzero" transform="translate(1385.880507, 103.118985) scale(1, -1) translate(-1385.880507, -103.118985) "></path>
    </g>
</svg>
